<svg xmlns="http://www.w3.org/2000/svg" xmlns:xlink="http://www.w3.org/1999/xlink" x="0" y="0" width="396" height="96.65625" style="
        width:396px;
        height:96.65625px;
        background: transparent;
        fill: none;
">
        <svg xmlns="http://www.w3.org/2000/svg"/>
        
        <svg xmlns="http://www.w3.org/2000/svg" class="role-diagram-draw-area"><g class="shapes-region" style="stroke: black; fill: none;"><g class="arrow-line"><path class="connection real" stroke-dasharray="" d="  M56.67,44 L322,44" style="stroke: rgb(0, 0, 0); stroke-width: 1; fill: none; fill-opacity: 1;"/><g stroke="none" transform="matrix(-1,1.2246467991473532e-16,-1.2246467991473532e-16,-1,325,44)" style="stroke: none; stroke-width: 1; fill: rgb(0, 0, 0);" fill="#000"><path d=" M8.93,-4.29 L0,0 L8.93,4.29 Z"/></g></g><g class="composite-shape"><path class="real" d=" M114.67,43.33 C114.67,41.31 116.31,39.67 118.33,39.67 C120.36,39.67 122,41.31 122,43.33 C122,45.36 120.36,47 118.33,47 C116.31,47 114.67,45.36 114.67,43.33 Z" style="stroke-width: 1; stroke: rgb(0, 0, 0); fill: rgb(255, 255, 255); fill-opacity: 1;"/></g><g class="composite-shape"><path class="real" d=" M232.67,43.33 C232.67,41.31 234.31,39.67 236.33,39.67 C238.36,39.67 240,41.31 240,43.33 C240,45.36 238.36,47 236.33,47 C234.31,47 232.67,45.36 232.67,43.33 Z" style="stroke-width: 1; stroke: rgb(0, 0, 0); fill: rgb(255, 255, 255); fill-opacity: 1;"/></g><g class="arrow-line"><path class="connection real" stroke-dasharray="" d="  M240,43.33 L315.67,43.33" style="stroke: rgb(74, 144, 226); stroke-width: 3; fill: none; fill-opacity: 1; stroke-opacity: 1;"/></g><g class="arrow-line"><path class="connection real" stroke-dasharray="" d="  M55,43.33 L114.67,43.33" style="stroke: rgb(74, 144, 226); stroke-opacity: 1; stroke-width: 3; fill: none; fill-opacity: 1;"/></g><g/></g><g/><g/><g/></svg>
        <svg xmlns="http://www.w3.org/2000/svg" xmlns:xlink="http://www.w3.org/1999/xlink" width="394" height="94.65625" style="width:394px;height:94.65625px;font-family:Asana-Math, Asana;background:transparent;"><g><g><g><g transform="matrix(1,0,0,1,331.65625,49)"><path transform="matrix(0.017,0,0,-0.017,0,0)" d="M125 390L69 107C68 99 56 61 56 31C56 6 67 -9 86 -9C121 -9 156 11 234 74L265 99L255 117L210 86C181 66 161 56 150 56C141 56 136 64 136 76C136 102 150 183 179 328L192 390L299 390L310 440C272 436 238 434 200 434C216 528 227 577 245 631L234 646C214 634 187 622 156 610L131 440C87 419 61 408 43 403L41 390Z" stroke="rgb(0,0,0)" stroke-opacity="1" stroke-width="8" fill="rgb(0,0,0)" fill-opacity="1"></path></g></g></g></g><g><g><g><svg x="109.15625" overflow="visible" y="53.140625" height="33" width="5.9375"><path d=" M 4.39 1.19 c 0.00 -0.04 -0.03 -0.06 -0.06 -0.06 c -0.02 0.00 -0.04 0.01 -0.06 0.02 c -1.78 0.94 -3.25 2.61 -3.25 6.58 v 0.42 h 1.07 v -0.42 c 0.00 -2.26 0.45 -4.92 2.32 -6.34 c 0.09 -0.07 0.09 -0.13 0.09 -0.20 z   M 1.01 8.15 v 16.70 h 1.07 v -16.70 z" style="fill:rgb(0,0,0);fill-opacity:1;stroke-width:1px;stroke:none;stroke-opacity:1;"></path><path d=" M 4.39 31.81 c 0.00 0.04 -0.03 0.06 -0.06 0.06 c -0.02 0.00 -0.04 -0.01 -0.06 -0.02 c -1.78 -0.94 -3.25 -2.61 -3.25 -6.58 v -0.42 h 1.07 v 0.42 c 0.00 2.26 0.45 4.92 2.32 6.34 c 0.09 0.07 0.09 0.13 0.09 0.20 z" style="fill:rgb(0,0,0);fill-opacity:1;stroke-width:1px;stroke:none;stroke-opacity:1;"></path></svg></g><g><g><g><g><g transform="matrix(1,0,0,1,115.09375,65.759375)"><path transform="matrix(0.0119,0,0,-0.0119,0,0)" d="M459 253C459 366 378 446 264 446C216 446 180 443 127 396L127 605L432 604L432 689L75 690L75 322L95 316C142 363 169 377 218 377C314 377 374 309 374 201C374 90 310 25 201 25C147 25 97 43 83 69L37 151L13 137C36 80 48 48 62 4C90 -11 130 -20 173 -20C301 -20 459 89 459 253Z" stroke="rgb(0,0,0)" stroke-opacity="1" stroke-width="8" fill="rgb(0,0,0)" fill-opacity="1"></path></g></g></g></g><g><g><g><g transform="matrix(1,0,0,1,115.09375,83.321875)"><path transform="matrix(0.0119,0,0,-0.0119,0,0)" d="M462 224C462 345 355 366 308 374C388 436 418 482 418 541C418 630 344 689 233 689C165 689 120 670 72 622L43 498L74 498L92 554C103 588 166 622 218 622C283 622 336 569 336 506C336 431 277 368 206 368C198 368 187 369 174 370L159 371L147 318L154 312C192 329 211 334 238 334C321 334 369 281 369 190C369 88 308 21 215 21C169 21 128 36 98 64C74 86 61 109 42 163L15 153C36 92 44 56 50 6C103 -12 147 -20 184 -20C307 -20 462 87 462 224Z" stroke="rgb(0,0,0)" stroke-opacity="1" stroke-width="8" fill="rgb(0,0,0)" fill-opacity="1"></path></g></g></g></g><line style="fill:none;stroke-width:1px;stroke:rgb(0, 0, 0);" x1="115.09375" y1="71.171875" x2="121.03125" y2="71.171875"></line></g><g><svg x="121.03125" overflow="visible" y="53.140625" height="33" width="5.9375"><path d=" M 1.22 1.19 c 0.00 -0.04 0.03 -0.06 0.06 -0.06 c 0.02 0.00 0.04 0.01 0.06 0.02 c 1.78 0.94 3.25 2.61 3.25 6.58 v 0.42 h -1.07 v -0.42 c 0.00 -2.26 -0.45 -4.92 -2.32 -6.34 c -0.09 -0.07 -0.09 -0.13 -0.09 -0.20 z  M 4.61 8.15 v 16.70 h -1.07 v -16.70 z" style="fill:rgb(0,0,0);fill-opacity:1;stroke-width:1px;stroke:none;stroke-opacity:1;"></path><path d=" M 1.22 31.81 c 0.00 0.04 0.03 0.06 0.06 0.06 c 0.02 0.00 0.04 -0.01 0.06 -0.02 c 1.78 -0.94 3.25 -2.61 3.25 -6.58 v -0.42 h -1.07 v 0.42 c 0.00 2.26 -0.45 4.92 -2.32 6.34 c -0.09 0.07 -0.09 0.13 -0.09 0.20 z" style="fill:rgb(0,0,0);fill-opacity:1;stroke-width:1px;stroke:none;stroke-opacity:1;"></path></svg></g><g><g><g><g><g transform="matrix(1,0,0,1,126.9375,56.98625)"><path transform="matrix(0.00833,0,0,-0.00833,0,0)" d="M555 243L555 299L51 299L51 243ZM621 23L621 -3C808 -3 808 0 844 0C880 0 880 -3 1073 -3L1073 82C958 77 912 81 727 77L909 270C1006 373 1036 428 1036 503C1036 618 958 689 831 689C759 689 710 669 661 619L644 483L673 483L686 529C702 587 738 612 805 612C891 612 946 558 946 473C946 398 904 324 791 204Z" stroke="rgb(0,0,0)" stroke-opacity="1" stroke-width="8" fill="rgb(0,0,0)" fill-opacity="1"></path></g></g></g></g></g></g></g><g><g><g><g><g><g><g transform="matrix(1,0,0,1,234.1875,62.55625)"><path transform="matrix(0.0119,0,0,-0.0119,0,0)" d="M459 253C459 366 378 446 264 446C216 446 180 443 127 396L127 605L432 604L432 689L75 690L75 322L95 316C142 363 169 377 218 377C314 377 374 309 374 201C374 90 310 25 201 25C147 25 97 43 83 69L37 151L13 137C36 80 48 48 62 4C90 -11 130 -20 173 -20C301 -20 459 89 459 253Z" stroke="rgb(0,0,0)" stroke-opacity="1" stroke-width="8" fill="rgb(0,0,0)" fill-opacity="1"></path></g></g></g></g><g><g><g><g transform="matrix(1,0,0,1,234.1875,80.11875)"><path transform="matrix(0.0119,0,0,-0.0119,0,0)" d="M462 224C462 345 355 366 308 374C388 436 418 482 418 541C418 630 344 689 233 689C165 689 120 670 72 622L43 498L74 498L92 554C103 588 166 622 218 622C283 622 336 569 336 506C336 431 277 368 206 368C198 368 187 369 174 370L159 371L147 318L154 312C192 329 211 334 238 334C321 334 369 281 369 190C369 88 308 21 215 21C169 21 128 36 98 64C74 86 61 109 42 163L15 153C36 92 44 56 50 6C103 -12 147 -20 184 -20C307 -20 462 87 462 224Z" stroke="rgb(0,0,0)" stroke-opacity="1" stroke-width="8" fill="rgb(0,0,0)" fill-opacity="1"></path></g></g></g></g><line style="fill:none;stroke-width:1px;stroke:rgb(0, 0, 0);" x1="234.1875" y1="67.96875" x2="240.125" y2="67.96875"></line></g><g><g><g></g></g></g></g></g><g><g><g><g transform="matrix(1,0,0,1,72.328125,35.328125)"><path transform="matrix(0.017,0,0,-0.017,0,0)" d="M604 241L604 300L364 300L364 538L305 538L305 300L65 300L65 241L305 241L305 0L364 0L364 241Z" stroke="rgb(0,0,0)" stroke-opacity="1" stroke-width="8" fill="rgb(0,0,0)" fill-opacity="1"></path></g></g></g></g><g><g><g><g transform="matrix(1,0,0,1,171.65625,34.65625)"><path transform="matrix(0.017,0,0,-0.017,0,0)" d="M555 243L555 299L51 299L51 243Z" stroke="rgb(0,0,0)" stroke-opacity="1" stroke-width="8" fill="rgb(0,0,0)" fill-opacity="1"></path></g></g></g></g><g><g><g><g transform="matrix(1,0,0,1,271.65625,32)"><path transform="matrix(0.017,0,0,-0.017,0,0)" d="M604 241L604 300L364 300L364 538L305 538L305 300L65 300L65 241L305 241L305 0L364 0L364 241Z" stroke="rgb(0,0,0)" stroke-opacity="1" stroke-width="8" fill="rgb(0,0,0)" fill-opacity="1"></path></g></g></g></g></svg>
</svg>
