<svg xmlns="http://www.w3.org/2000/svg" xmlns:xlink="http://www.w3.org/1999/xlink" x="0" y="0" width="320.3333435058594" height="282.79168701171875" style="
        width:320.3333435058594px;
        height:282.79168701171875px;
        background: transparent;
        fill: none;
">
        <svg xmlns="http://www.w3.org/2000/svg"/>
        
        <svg xmlns="http://www.w3.org/2000/svg" class="role-diagram-draw-area"><g class="shapes-region" style="stroke: black; fill: none;"><g class="composite-shape"><path class="real" d=" M62.71,140 C62.71,86.98 105.69,44 158.71,44 C211.73,44 254.71,86.98 254.71,140 C254.71,193.02 211.73,236 158.71,236 C105.69,236 62.71,193.02 62.71,140 Z" style="stroke-width: 1; stroke: rgb(0, 0, 0); fill: none; fill-opacity: 1;"/></g><g class="composite-shape"><path class="real" d=" M155.29,140 C155.29,139.05 156.05,138.29 157,138.29 C157.95,138.29 158.71,139.05 158.71,140 C158.71,140.95 157.95,141.71 157,141.71 C156.05,141.71 155.29,140.95 155.29,140 Z" style="stroke-width: 1; stroke: rgb(0, 0, 0); fill: rgb(0, 0, 0); fill-opacity: 1;"/></g><g class="arrow-line"><path class="connection real" stroke-dasharray="" d="  M36.71,140 L277.71,140" style="stroke: rgb(0, 0, 0); stroke-width: 1; fill: none; fill-opacity: 1;"/><g stroke="none" fill="#000" transform="matrix(-1,1.2246467991473532e-16,-1.2246467991473532e-16,-1,280.7142791748047,140.00000000000003)" style="stroke: none; fill: rgb(0, 0, 0); stroke-width: 1;"><path d=" M8.93,-4.29 L0,0 L8.93,4.29 Z"/></g></g><g class="arrow-line"><path class="connection real" stroke-dasharray="" d="  M157,257 L157,26" style="stroke: rgb(0, 0, 0); stroke-width: 1; fill: none; fill-opacity: 1;"/><g stroke="none" fill="#000" transform="matrix(3.061616997868383e-16,1,-1,3.061616997868383e-16,157,23)" style="stroke: none; fill: rgb(0, 0, 0); stroke-width: 1;"><path d=" M8.93,-4.29 L0,0 L8.93,4.29 Z"/></g></g><g class="composite-shape"><path class="real" d=" M201.67,57 C201.67,54.51 203.68,52.5 206.17,52.5 C208.65,52.5 210.67,54.51 210.67,57 C210.67,59.49 208.65,61.5 206.17,61.5 C203.68,61.5 201.67,59.49 201.67,57 Z" style="stroke-width: 1; stroke: rgb(0, 0, 0); stroke-opacity: 1; fill: rgb(0, 0, 0); fill-opacity: 1;"/></g><g class="composite-shape"><path class="real" d=" M225.67,77 C225.67,74.51 227.68,72.5 230.17,72.5 C232.65,72.5 234.67,74.51 234.67,77 C234.67,79.49 232.65,81.5 230.17,81.5 C227.68,81.5 225.67,79.49 225.67,77 Z" style="stroke-width: 1; stroke: rgb(0, 0, 0); stroke-opacity: 1; fill: rgb(0, 0, 0); fill-opacity: 1;"/></g><g class="composite-shape"><path class="real" d=" M241.67,103 C241.67,100.51 243.68,98.5 246.17,98.5 C248.65,98.5 250.67,100.51 250.67,103 C250.67,105.49 248.65,107.5 246.17,107.5 C243.68,107.5 241.67,105.49 241.67,103 Z" style="stroke-width: 1; stroke: rgb(0, 0, 0); stroke-opacity: 1; fill: rgb(0, 0, 0); fill-opacity: 1;"/></g><g class="composite-shape"><path class="real" d=" M250.21,140 C250.21,137.51 252.23,135.5 254.71,135.5 C257.2,135.5 259.21,137.51 259.21,140 C259.21,142.49 257.2,144.5 254.71,144.5 C252.23,144.5 250.21,142.49 250.21,140 Z" style="stroke-width: 1; stroke: rgb(0, 0, 0); stroke-opacity: 1; fill: rgb(0, 0, 0); fill-opacity: 1;"/></g><g class="composite-shape"><path class="real" d=" M154.21,44 C154.21,41.51 156.23,39.5 158.71,39.5 C161.2,39.5 163.21,41.51 163.21,44 C163.21,46.49 161.2,48.5 158.71,48.5 C156.23,48.5 154.21,46.49 154.21,44 Z" style="stroke-width: 1; stroke: rgb(0, 0, 0); stroke-opacity: 1; fill: rgb(0, 0, 0); fill-opacity: 1;"/></g><g class="composite-shape"><path class="real" d=" M109.67,55 C109.67,52.51 111.68,50.5 114.17,50.5 C116.65,50.5 118.67,52.51 118.67,55 C118.67,57.49 116.65,59.5 114.17,59.5 C111.68,59.5 109.67,57.49 109.67,55 Z" style="stroke-width: 1; stroke: rgb(0, 0, 0); stroke-opacity: 1; fill: rgb(0, 0, 0); fill-opacity: 1;"/></g><g class="composite-shape"><path class="real" d=" M82.67,78 C82.67,75.51 84.68,73.5 87.17,73.5 C89.65,73.5 91.67,75.51 91.67,78 C91.67,80.49 89.65,82.5 87.17,82.5 C84.68,82.5 82.67,80.49 82.67,78 Z" style="stroke-width: 1; stroke: rgb(0, 0, 0); stroke-opacity: 1; fill: rgb(0, 0, 0); fill-opacity: 1;"/></g><g class="composite-shape"><path class="real" d=" M64.67,107 C64.67,104.51 66.68,102.5 69.17,102.5 C71.65,102.5 73.67,104.51 73.67,107 C73.67,109.49 71.65,111.5 69.17,111.5 C66.68,111.5 64.67,109.49 64.67,107 Z" style="stroke-width: 1; stroke: rgb(0, 0, 0); stroke-opacity: 1; fill: rgb(0, 0, 0); fill-opacity: 1;"/></g><g class="composite-shape"><path class="real" d=" M58.21,140 C58.21,137.51 60.23,135.5 62.71,135.5 C65.2,135.5 67.21,137.51 67.21,140 C67.21,142.49 65.2,144.5 62.71,144.5 C60.23,144.5 58.21,142.49 58.21,140 Z" style="stroke-width: 1; stroke: rgb(0, 0, 0); stroke-opacity: 1; fill: rgb(0, 0, 0); fill-opacity: 1;"/></g><g class="composite-shape"><path class="real" d=" M64.67,175 C64.67,172.51 66.68,170.5 69.17,170.5 C71.65,170.5 73.67,172.51 73.67,175 C73.67,177.49 71.65,179.5 69.17,179.5 C66.68,179.5 64.67,177.49 64.67,175 Z" style="stroke-width: 1; stroke: rgb(0, 0, 0); stroke-opacity: 1; fill: rgb(0, 0, 0); fill-opacity: 1;"/></g><g class="composite-shape"><path class="real" d=" M80.67,202 C80.67,199.51 82.68,197.5 85.17,197.5 C87.65,197.5 89.67,199.51 89.67,202 C89.67,204.49 87.65,206.5 85.17,206.5 C82.68,206.5 80.67,204.49 80.67,202 Z" style="stroke-width: 1; stroke: rgb(0, 0, 0); stroke-opacity: 1; fill: rgb(0, 0, 0); fill-opacity: 1;"/></g><g class="composite-shape"><path class="real" d=" M104.67,222 C104.67,219.51 106.68,217.5 109.17,217.5 C111.65,217.5 113.67,219.51 113.67,222 C113.67,224.49 111.65,226.5 109.17,226.5 C106.68,226.5 104.67,224.49 104.67,222 Z" style="stroke-width: 1; stroke: rgb(0, 0, 0); stroke-opacity: 1; fill: rgb(0, 0, 0); fill-opacity: 1;"/></g><g class="composite-shape"><path class="real" d=" M154.21,236 C154.21,233.51 156.23,231.5 158.71,231.5 C161.2,231.5 163.21,233.51 163.21,236 C163.21,238.49 161.2,240.5 158.71,240.5 C156.23,240.5 154.21,238.49 154.21,236 Z" style="stroke-width: 1; stroke: rgb(0, 0, 0); stroke-opacity: 1; fill: rgb(0, 0, 0); fill-opacity: 1;"/></g><g class="composite-shape"><path class="real" d=" M197.67,226 C197.67,223.51 199.68,221.5 202.17,221.5 C204.65,221.5 206.67,223.51 206.67,226 C206.67,228.49 204.65,230.5 202.17,230.5 C199.68,230.5 197.67,228.49 197.67,226 Z" style="stroke-width: 1; stroke: rgb(0, 0, 0); stroke-opacity: 1; fill: rgb(0, 0, 0); fill-opacity: 1;"/></g><g class="composite-shape"><path class="real" d=" M245.67,170 C245.67,167.51 247.68,165.5 250.17,165.5 C252.65,165.5 254.67,167.51 254.67,170 C254.67,172.49 252.65,174.5 250.17,174.5 C247.68,174.5 245.67,172.49 245.67,170 Z" style="stroke-width: 1; stroke: rgb(0, 0, 0); stroke-opacity: 1; fill: rgb(0, 0, 0); fill-opacity: 1;"/></g><g class="composite-shape"><path class="real" d=" M227.67,202 C227.67,199.51 229.68,197.5 232.17,197.5 C234.65,197.5 236.67,199.51 236.67,202 C236.67,204.49 234.65,206.5 232.17,206.5 C229.68,206.5 227.67,204.49 227.67,202 Z" style="stroke-width: 1; stroke: rgb(0, 0, 0); stroke-opacity: 1; fill: rgb(0, 0, 0); fill-opacity: 1;"/></g><g/></g><g/><g/><g/></svg>
        <svg xmlns="http://www.w3.org/2000/svg" xmlns:xlink="http://www.w3.org/1999/xlink" width="319" height="281.4583435058594" style="width:319px;height:281.4583435058594px;font-family:Asana-Math, Asana;background:transparent;"><g><g><g><g><g><g><g transform="matrix(1,0,0,1,205.5103759765625,34.145843505859375)"><path transform="matrix(0.0085,0,0,-0.0085,0,0)" d="M525 42C469 42 464 125 465 166C466 251 494 333 537 405L599 418C602 435 608 452 613 467C459 461 300 463 145 466C80 467 66 389 47 340C46 332 59 331 63 328L63 332C106 395 130 405 205 405L228 405C188 266 161 129 98 -2L98 -12C118 -6 153 1 170 13C211 141 240 274 268 405L495 405C438 318 397 213 395 108C395 59 410 -15 471 -15C512 -15 568 25 598 51L598 66L586 66L586 67C568 56 548 42 525 42Z" stroke="rgb(0,0,0)" stroke-opacity="1" stroke-width="8" fill="rgb(0,0,0)" fill-opacity="1"></path></g></g></g></g><g><g><g><g transform="matrix(1,0,0,1,206.15625,47.54167175292969)"><path transform="matrix(0.0085,0,0,-0.0085,0,0)" d="M462 224C462 345 355 366 308 374C388 436 418 482 418 541C418 630 344 689 233 689C165 689 120 670 72 622L43 498L74 498L92 554C103 588 166 622 218 622C283 622 336 569 336 506C336 431 277 368 206 368C198 368 187 369 174 370L159 371L147 318L154 312C192 329 211 334 238 334C321 334 369 281 369 190C369 88 308 21 215 21C169 21 128 36 98 64C74 86 61 109 42 163L15 153C36 92 44 56 50 6C103 -12 147 -20 184 -20C307 -20 462 87 462 224Z" stroke="rgb(0,0,0)" stroke-opacity="1" stroke-width="8" fill="rgb(0,0,0)" fill-opacity="1"></path></g></g></g></g><line style="fill:none;stroke-width:0.666667px;stroke:rgb(0, 0, 0);" x1="205.5103759765625" y1="38.38541668653488" x2="211.06245946884155" y2="38.38541668653488"></line></g><g><svg x="212.5" overflow="visible" y="23.510421752929688" height="28" width="4.25"><path d=" M 3.14 0.85 c 0.00 -0.03 -0.02 -0.04 -0.04 -0.04 c -0.01 0.00 -0.03 0.01 -0.04 0.01 c -1.27 0.67 -2.32 1.86 -2.32 4.70 v 0.30 h 0.77 v -0.30 c 0.00 -1.62 0.32 -3.51 1.66 -4.53 c 0.06 -0.05 0.06 -0.10 0.06 -0.14 z   M 0.72 5.82 v 16.36 h 0.77 v -16.36 z" style="fill:rgb(0,0,0);fill-opacity:1;stroke-width:1px;stroke:none;stroke-opacity:1;"></path><path d=" M 3.14 27.15 c 0.00 0.03 -0.02 0.04 -0.04 0.04 c -0.01 0.00 -0.03 -0.01 -0.04 -0.01 c -1.27 -0.67 -2.32 -1.86 -2.32 -4.70 v -0.30 h 0.77 v 0.30 c 0.00 1.62 0.32 3.51 1.66 4.53 c 0.06 0.05 0.06 0.10 0.06 0.14 z" style="fill:rgb(0,0,0);fill-opacity:1;stroke-width:1px;stroke:none;stroke-opacity:1;"></path></svg></g><g><g><g><g><g transform="matrix(1,0,0,1,216.75,34.145843505859375)"><path transform="matrix(0.0085,0,0,-0.0085,0,0)" d="M418 -3L418 27L366 30C311 33 301 44 301 96L301 700L60 598L67 548L217 614L217 96C217 44 206 33 152 30L96 27L96 -3C250 0 250 0 261 0C292 0 402 -3 418 -3Z" stroke="rgb(0,0,0)" stroke-opacity="1" stroke-width="8" fill="rgb(0,0,0)" fill-opacity="1"></path></g></g></g></g><g><g><g><g transform="matrix(1,0,0,1,216.75,47.54167175292969)"><path transform="matrix(0.0085,0,0,-0.0085,0,0)" d="M16 23L16 -3C203 -3 203 0 239 0C275 0 275 -3 468 -3L468 82C353 77 307 81 122 77L304 270C401 373 431 428 431 503C431 618 353 689 226 689C154 689 105 669 56 619L39 483L68 483L81 529C97 587 133 612 200 612C286 612 341 558 341 473C341 398 299 324 186 204Z" stroke="rgb(0,0,0)" stroke-opacity="1" stroke-width="8" fill="rgb(0,0,0)" fill-opacity="1"></path></g></g></g></g><line style="fill:none;stroke-width:0.666667px;stroke:rgb(0, 0, 0);" x1="216.75" y1="38.38541668653488" x2="221" y2="38.38541668653488"></line></g><g><g transform="matrix(1,0,0,1,221.84375,40.34375)"><path transform="matrix(0.0085,0,0,-0.0085,0,0)" d="M204 123C177 114 159 108 106 93C99 17 74 -48 16 -144L30 -155L71 -136C152 -31 190 32 218 109Z" stroke="rgb(0,0,0)" stroke-opacity="1" stroke-width="8" fill="rgb(0,0,0)" fill-opacity="1"></path></g></g><g><g><g><g><g><g><g><g transform="matrix(1,0,0,1,235.0103759765625,34.145843505859375)"><path transform="matrix(0.0085,0,0,-0.0085,0,0)" d="M462 224C462 345 355 366 308 374C388 436 418 482 418 541C418 630 344 689 233 689C165 689 120 670 72 622L43 498L74 498L92 554C103 588 166 622 218 622C283 622 336 569 336 506C336 431 277 368 206 368C198 368 187 369 174 370L159 371L147 318L154 312C192 329 211 334 238 334C321 334 369 281 369 190C369 88 308 21 215 21C169 21 128 36 98 64C74 86 61 109 42 163L15 153C36 92 44 56 50 6C103 -12 147 -20 184 -20C307 -20 462 87 462 224Z" stroke="rgb(0,0,0)" stroke-opacity="1" stroke-width="8" fill="rgb(0,0,0)" fill-opacity="1"></path></g></g></g></g><svg x="226.5103759765625" overflow="visible" y="25.3125" height="8.5" width="12.75"><polygon points="0.18,5.14 2.39,3.96 4.83,9.13 8.18,0.00 12.75,0.00 12.75,0.53 8.59,0.53 4.59,11.29 1.55,4.92 0.32,5.38" style="fill:rgb(0,0,0);fill-opacity:1;stroke-width:1px;stroke:none;stroke-opacity:1;"></polygon></svg></g></g></g><g><g><g><g transform="matrix(1,0,0,1,230.7603759765625,47.54167175292969)"><path transform="matrix(0.0085,0,0,-0.0085,0,0)" d="M16 23L16 -3C203 -3 203 0 239 0C275 0 275 -3 468 -3L468 82C353 77 307 81 122 77L304 270C401 373 431 428 431 503C431 618 353 689 226 689C154 689 105 669 56 619L39 483L68 483L81 529C97 587 133 612 200 612C286 612 341 558 341 473C341 398 299 324 186 204Z" stroke="rgb(0,0,0)" stroke-opacity="1" stroke-width="8" fill="rgb(0,0,0)" fill-opacity="1"></path></g></g></g></g><line style="fill:none;stroke-width:0.666667px;stroke:rgb(0, 0, 0);" x1="226.5103759765625" y1="38.38541668653488" x2="239.2603759765625" y2="38.38541668653488"></line></g><g><svg x="239.2603759765625" overflow="visible" y="23.510421752929688" height="28" width="4.25"><path d=" M 0.87 0.85 c 0.00 -0.03 0.02 -0.04 0.04 -0.04 c 0.01 0.00 0.03 0.01 0.04 0.01 c 1.27 0.67 2.32 1.86 2.32 4.70 v 0.30 h -0.77 v -0.30 c 0.00 -1.62 -0.32 -3.51 -1.66 -4.53 c -0.06 -0.05 -0.06 -0.10 -0.06 -0.14 z  M 3.29 5.82 v 16.36 h -0.77 v -16.36 z" style="fill:rgb(0,0,0);fill-opacity:1;stroke-width:1px;stroke:none;stroke-opacity:1;"></path><path d=" M 0.87 27.15 c 0.00 0.03 0.02 0.04 0.04 0.04 c 0.01 0.00 0.03 -0.01 0.04 -0.01 c 1.27 -0.67 2.32 -1.86 2.32 -4.70 v -0.30 h -0.77 v 0.30 c 0.00 1.62 -0.32 3.51 -1.66 4.53 c -0.06 0.05 -0.06 0.10 -0.06 0.14 z" style="fill:rgb(0,0,0);fill-opacity:1;stroke-width:1px;stroke:none;stroke-opacity:1;"></path></svg></g></g></g><g><g><g><g><g><g><g transform="matrix(1,0,0,1,147.5103759765625,11.5)"><path transform="matrix(0.0085,0,0,-0.0085,0,0)" d="M525 42C469 42 464 125 465 166C466 251 494 333 537 405L599 418C602 435 608 452 613 467C459 461 300 463 145 466C80 467 66 389 47 340C46 332 59 331 63 328L63 332C106 395 130 405 205 405L228 405C188 266 161 129 98 -2L98 -12C118 -6 153 1 170 13C211 141 240 274 268 405L495 405C438 318 397 213 395 108C395 59 410 -15 471 -15C512 -15 568 25 598 51L598 66L586 66L586 67C568 56 548 42 525 42Z" stroke="rgb(0,0,0)" stroke-opacity="1" stroke-width="8" fill="rgb(0,0,0)" fill-opacity="1"></path></g></g></g></g><g><g><g><g transform="matrix(1,0,0,1,148.15625,24.895843505859375)"><path transform="matrix(0.0085,0,0,-0.0085,0,0)" d="M16 23L16 -3C203 -3 203 0 239 0C275 0 275 -3 468 -3L468 82C353 77 307 81 122 77L304 270C401 373 431 428 431 503C431 618 353 689 226 689C154 689 105 669 56 619L39 483L68 483L81 529C97 587 133 612 200 612C286 612 341 558 341 473C341 398 299 324 186 204Z" stroke="rgb(0,0,0)" stroke-opacity="1" stroke-width="8" fill="rgb(0,0,0)" fill-opacity="1"></path></g></g></g></g><line style="fill:none;stroke-width:0.666667px;stroke:rgb(0, 0, 0);" x1="147.5103759765625" y1="15.739588439464569" x2="153.06245946884155" y2="15.739588439464569"></line></g><g><g transform="matrix(1,0,0,1,153.90625,18.364593505859375)"><path transform="matrix(0.0085,0,0,-0.0085,0,0)" d="M146 266C146 526 243 632 301 700L282 726C225 675 60 542 60 266C60 159 85 58 133 -32C168 -99 200 -138 282 -215L301 -194C255 -137 146 -15 146 266Z" stroke="rgb(0,0,0)" stroke-opacity="1" stroke-width="8" fill="rgb(0,0,0)" fill-opacity="1"></path></g></g><g><g transform="matrix(1,0,0,1,156.7291259765625,17.697921752929688)"><path transform="matrix(0.0085,0,0,-0.0085,0,0)" d="M263 689C108 689 29 566 29 324C29 207 50 106 85 57C120 8 176 -20 238 -20C389 -20 465 110 465 366C465 585 400 689 263 689ZM245 654C342 654 381 556 381 316C381 103 343 15 251 15C154 15 113 116 113 360C113 571 150 654 245 654Z" stroke="rgb(0,0,0)" stroke-opacity="1" stroke-width="8" fill="rgb(0,0,0)" fill-opacity="1"></path></g></g><g><g transform="matrix(1,0,0,1,160.9791259765625,17.697921752929688)"><path transform="matrix(0.0085,0,0,-0.0085,0,0)" d="M204 123C177 114 159 108 106 93C99 17 74 -48 16 -144L30 -155L71 -136C152 -31 190 32 218 109Z" stroke="rgb(0,0,0)" stroke-opacity="1" stroke-width="8" fill="rgb(0,0,0)" fill-opacity="1"></path></g></g><g><g transform="matrix(1,0,0,1,164.80206298828125,17.697921752929688)"><path transform="matrix(0.0085,0,0,-0.0085,0,0)" d="M418 -3L418 27L366 30C311 33 301 44 301 96L301 700L60 598L67 548L217 614L217 96C217 44 206 33 152 30L96 27L96 -3C250 0 250 0 261 0C292 0 402 -3 418 -3Z" stroke="rgb(0,0,0)" stroke-opacity="1" stroke-width="8" fill="rgb(0,0,0)" fill-opacity="1"></path></g></g><g><g transform="matrix(1,0,0,1,169.05206298828125,18.364593505859375)"><path transform="matrix(0.0085,0,0,-0.0085,0,0)" d="M51 726L32 700C87 636 187 526 187 266C187 -10 83 -131 32 -194L51 -215C104 -165 273 -23 273 265C273 542 108 675 51 726Z" stroke="rgb(0,0,0)" stroke-opacity="1" stroke-width="8" fill="rgb(0,0,0)" fill-opacity="1"></path></g></g></g></g><g><g><g><g><g><g><g transform="matrix(1,0,0,1,235.5103759765625,61.145843505859375)"><path transform="matrix(0.0085,0,0,-0.0085,0,0)" d="M525 42C469 42 464 125 465 166C466 251 494 333 537 405L599 418C602 435 608 452 613 467C459 461 300 463 145 466C80 467 66 389 47 340C46 332 59 331 63 328L63 332C106 395 130 405 205 405L228 405C188 266 161 129 98 -2L98 -12C118 -6 153 1 170 13C211 141 240 274 268 405L495 405C438 318 397 213 395 108C395 59 410 -15 471 -15C512 -15 568 25 598 51L598 66L586 66L586 67C568 56 548 42 525 42Z" stroke="rgb(0,0,0)" stroke-opacity="1" stroke-width="8" fill="rgb(0,0,0)" fill-opacity="1"></path></g></g></g></g><g><g><g><g transform="matrix(1,0,0,1,236.15625,74.54167175292969)"><path transform="matrix(0.0085,0,0,-0.0085,0,0)" d="M280 181L280 106C280 46 269 32 220 30L158 27L158 -3C291 0 291 0 315 0C339 0 339 0 472 -3L472 27L424 30C375 33 364 46 364 106L364 181C423 181 444 180 472 177L472 248L364 245L365 697L285 667L2 204L2 181ZM280 245L65 245L280 597Z" stroke="rgb(0,0,0)" stroke-opacity="1" stroke-width="8" fill="rgb(0,0,0)" fill-opacity="1"></path></g></g></g></g><line style="fill:none;stroke-width:0.666667px;stroke:rgb(0, 0, 0);" x1="235.5103759765625" y1="65.38541668653488" x2="241.06245946884155" y2="65.38541668653488"></line></g><g><svg x="242.5" overflow="visible" y="50.51042175292969" height="28" width="4.25"><path d=" M 3.14 0.85 c 0.00 -0.03 -0.02 -0.04 -0.04 -0.04 c -0.01 0.00 -0.03 0.01 -0.04 0.01 c -1.27 0.67 -2.32 1.86 -2.32 4.70 v 0.30 h 0.77 v -0.30 c 0.00 -1.62 0.32 -3.51 1.66 -4.53 c 0.06 -0.05 0.06 -0.10 0.06 -0.14 z   M 0.72 5.82 v 16.36 h 0.77 v -16.36 z" style="fill:rgb(0,0,0);fill-opacity:1;stroke-width:1px;stroke:none;stroke-opacity:1;"></path><path d=" M 3.14 27.15 c 0.00 0.03 -0.02 0.04 -0.04 0.04 c -0.01 0.00 -0.03 -0.01 -0.04 -0.01 c -1.27 -0.67 -2.32 -1.86 -2.32 -4.70 v -0.30 h 0.77 v 0.30 c 0.00 1.62 0.32 3.51 1.66 4.53 c 0.06 0.05 0.06 0.10 0.06 0.14 z" style="fill:rgb(0,0,0);fill-opacity:1;stroke-width:1px;stroke:none;stroke-opacity:1;"></path></svg></g><g><g><g><g><g><g><g><g transform="matrix(1,0,0,1,255.25,61.145843505859375)"><path transform="matrix(0.0085,0,0,-0.0085,0,0)" d="M16 23L16 -3C203 -3 203 0 239 0C275 0 275 -3 468 -3L468 82C353 77 307 81 122 77L304 270C401 373 431 428 431 503C431 618 353 689 226 689C154 689 105 669 56 619L39 483L68 483L81 529C97 587 133 612 200 612C286 612 341 558 341 473C341 398 299 324 186 204Z" stroke="rgb(0,0,0)" stroke-opacity="1" stroke-width="8" fill="rgb(0,0,0)" fill-opacity="1"></path></g></g></g></g><svg x="246.75" overflow="visible" y="52.3125" height="8.5" width="12.75"><polygon points="0.18,5.14 2.39,3.96 4.83,9.13 8.18,0.00 12.75,0.00 12.75,0.53 8.59,0.53 4.59,11.29 1.55,4.92 0.32,5.38" style="fill:rgb(0,0,0);fill-opacity:1;stroke-width:1px;stroke:none;stroke-opacity:1;"></polygon></svg></g></g></g><g><g><g><g transform="matrix(1,0,0,1,251,74.54167175292969)"><path transform="matrix(0.0085,0,0,-0.0085,0,0)" d="M16 23L16 -3C203 -3 203 0 239 0C275 0 275 -3 468 -3L468 82C353 77 307 81 122 77L304 270C401 373 431 428 431 503C431 618 353 689 226 689C154 689 105 669 56 619L39 483L68 483L81 529C97 587 133 612 200 612C286 612 341 558 341 473C341 398 299 324 186 204Z" stroke="rgb(0,0,0)" stroke-opacity="1" stroke-width="8" fill="rgb(0,0,0)" fill-opacity="1"></path></g></g></g></g><line style="fill:none;stroke-width:0.666667px;stroke:rgb(0, 0, 0);" x1="246.75" y1="65.38541668653488" x2="259.5" y2="65.38541668653488"></line></g><g><g transform="matrix(1,0,0,1,260.34375,67.34375)"><path transform="matrix(0.0085,0,0,-0.0085,0,0)" d="M204 123C177 114 159 108 106 93C99 17 74 -48 16 -144L30 -155L71 -136C152 -31 190 32 218 109Z" stroke="rgb(0,0,0)" stroke-opacity="1" stroke-width="8" fill="rgb(0,0,0)" fill-opacity="1"></path></g></g><g><g><g><g><g><g><g><g transform="matrix(1,0,0,1,273.5103759765625,61.145843505859375)"><path transform="matrix(0.0085,0,0,-0.0085,0,0)" d="M16 23L16 -3C203 -3 203 0 239 0C275 0 275 -3 468 -3L468 82C353 77 307 81 122 77L304 270C401 373 431 428 431 503C431 618 353 689 226 689C154 689 105 669 56 619L39 483L68 483L81 529C97 587 133 612 200 612C286 612 341 558 341 473C341 398 299 324 186 204Z" stroke="rgb(0,0,0)" stroke-opacity="1" stroke-width="8" fill="rgb(0,0,0)" fill-opacity="1"></path></g></g></g></g><svg x="265.0103759765625" overflow="visible" y="52.3125" height="8.5" width="12.75"><polygon points="0.18,5.14 2.39,3.96 4.83,9.13 8.18,0.00 12.75,0.00 12.75,0.53 8.59,0.53 4.59,11.29 1.55,4.92 0.32,5.38" style="fill:rgb(0,0,0);fill-opacity:1;stroke-width:1px;stroke:none;stroke-opacity:1;"></polygon></svg></g></g></g><g><g><g><g transform="matrix(1,0,0,1,269.2603759765625,74.54167175292969)"><path transform="matrix(0.0085,0,0,-0.0085,0,0)" d="M16 23L16 -3C203 -3 203 0 239 0C275 0 275 -3 468 -3L468 82C353 77 307 81 122 77L304 270C401 373 431 428 431 503C431 618 353 689 226 689C154 689 105 669 56 619L39 483L68 483L81 529C97 587 133 612 200 612C286 612 341 558 341 473C341 398 299 324 186 204Z" stroke="rgb(0,0,0)" stroke-opacity="1" stroke-width="8" fill="rgb(0,0,0)" fill-opacity="1"></path></g></g></g></g><line style="fill:none;stroke-width:0.666667px;stroke:rgb(0, 0, 0);" x1="265.0103759765625" y1="65.38541668653488" x2="277.7603759765625" y2="65.38541668653488"></line></g><g><svg x="277.7603759765625" overflow="visible" y="50.51042175292969" height="28" width="4.25"><path d=" M 0.87 0.85 c 0.00 -0.03 0.02 -0.04 0.04 -0.04 c 0.01 0.00 0.03 0.01 0.04 0.01 c 1.27 0.67 2.32 1.86 2.32 4.70 v 0.30 h -0.77 v -0.30 c 0.00 -1.62 -0.32 -3.51 -1.66 -4.53 c -0.06 -0.05 -0.06 -0.10 -0.06 -0.14 z  M 3.29 5.82 v 16.36 h -0.77 v -16.36 z" style="fill:rgb(0,0,0);fill-opacity:1;stroke-width:1px;stroke:none;stroke-opacity:1;"></path><path d=" M 0.87 27.15 c 0.00 0.03 0.02 0.04 0.04 0.04 c 0.01 0.00 0.03 -0.01 0.04 -0.01 c 1.27 -0.67 2.32 -1.86 2.32 -4.70 v -0.30 h -0.77 v 0.30 c 0.00 1.62 -0.32 3.51 -1.66 4.53 c -0.06 0.05 -0.06 0.10 -0.06 0.14 z" style="fill:rgb(0,0,0);fill-opacity:1;stroke-width:1px;stroke:none;stroke-opacity:1;"></path></svg></g></g></g><g><g><g><g><g><g><g transform="matrix(1,0,0,1,254.5103759765625,96.14584350585938)"><path transform="matrix(0.0085,0,0,-0.0085,0,0)" d="M525 42C469 42 464 125 465 166C466 251 494 333 537 405L599 418C602 435 608 452 613 467C459 461 300 463 145 466C80 467 66 389 47 340C46 332 59 331 63 328L63 332C106 395 130 405 205 405L228 405C188 266 161 129 98 -2L98 -12C118 -6 153 1 170 13C211 141 240 274 268 405L495 405C438 318 397 213 395 108C395 59 410 -15 471 -15C512 -15 568 25 598 51L598 66L586 66L586 67C568 56 548 42 525 42Z" stroke="rgb(0,0,0)" stroke-opacity="1" stroke-width="8" fill="rgb(0,0,0)" fill-opacity="1"></path></g></g></g></g><g><g><g><g transform="matrix(1,0,0,1,255.15625,109.54167175292969)"><path transform="matrix(0.0085,0,0,-0.0085,0,0)" d="M131 331C152 512 241 611 421 665L379 689C283 657 242 637 191 593C88 506 32 384 32 247C32 82 112 -20 241 -20C371 -20 468 83 468 219C468 334 399 409 293 409C216 409 184 370 131 331ZM255 349C331 349 382 283 382 184C382 80 331 13 254 13C169 13 123 86 123 220C123 255 127 274 138 291C160 325 207 349 255 349Z" stroke="rgb(0,0,0)" stroke-opacity="1" stroke-width="8" fill="rgb(0,0,0)" fill-opacity="1"></path></g></g></g></g><line style="fill:none;stroke-width:0.666667px;stroke:rgb(0, 0, 0);" x1="254.5103759765625" y1="100.38541668653488" x2="260.06245946884155" y2="100.38541668653488"></line></g><g><svg x="261.5" overflow="visible" y="85.51042175292969" height="28" width="4.25"><path d=" M 3.14 0.85 c 0.00 -0.03 -0.02 -0.04 -0.04 -0.04 c -0.01 0.00 -0.03 0.01 -0.04 0.01 c -1.27 0.67 -2.32 1.86 -2.32 4.70 v 0.30 h 0.77 v -0.30 c 0.00 -1.62 0.32 -3.51 1.66 -4.53 c 0.06 -0.05 0.06 -0.10 0.06 -0.14 z   M 0.72 5.82 v 16.36 h 0.77 v -16.36 z" style="fill:rgb(0,0,0);fill-opacity:1;stroke-width:1px;stroke:none;stroke-opacity:1;"></path><path d=" M 3.14 27.15 c 0.00 0.03 -0.02 0.04 -0.04 0.04 c -0.01 0.00 -0.03 -0.01 -0.04 -0.01 c -1.27 -0.67 -2.32 -1.86 -2.32 -4.70 v -0.30 h 0.77 v 0.30 c 0.00 1.62 0.32 3.51 1.66 4.53 c 0.06 0.05 0.06 0.10 0.06 0.14 z" style="fill:rgb(0,0,0);fill-opacity:1;stroke-width:1px;stroke:none;stroke-opacity:1;"></path></svg></g><g><g><g><g><g><g><g><g transform="matrix(1,0,0,1,274.25,96.14584350585938)"><path transform="matrix(0.0085,0,0,-0.0085,0,0)" d="M462 224C462 345 355 366 308 374C388 436 418 482 418 541C418 630 344 689 233 689C165 689 120 670 72 622L43 498L74 498L92 554C103 588 166 622 218 622C283 622 336 569 336 506C336 431 277 368 206 368C198 368 187 369 174 370L159 371L147 318L154 312C192 329 211 334 238 334C321 334 369 281 369 190C369 88 308 21 215 21C169 21 128 36 98 64C74 86 61 109 42 163L15 153C36 92 44 56 50 6C103 -12 147 -20 184 -20C307 -20 462 87 462 224Z" stroke="rgb(0,0,0)" stroke-opacity="1" stroke-width="8" fill="rgb(0,0,0)" fill-opacity="1"></path></g></g></g></g><svg x="265.75" overflow="visible" y="87.3125" height="8.5" width="12.75"><polygon points="0.18,5.14 2.39,3.96 4.83,9.13 8.18,0.00 12.75,0.00 12.75,0.53 8.59,0.53 4.59,11.29 1.55,4.92 0.32,5.38" style="fill:rgb(0,0,0);fill-opacity:1;stroke-width:1px;stroke:none;stroke-opacity:1;"></polygon></svg></g></g></g><g><g><g><g transform="matrix(1,0,0,1,270,109.54167175292969)"><path transform="matrix(0.0085,0,0,-0.0085,0,0)" d="M16 23L16 -3C203 -3 203 0 239 0C275 0 275 -3 468 -3L468 82C353 77 307 81 122 77L304 270C401 373 431 428 431 503C431 618 353 689 226 689C154 689 105 669 56 619L39 483L68 483L81 529C97 587 133 612 200 612C286 612 341 558 341 473C341 398 299 324 186 204Z" stroke="rgb(0,0,0)" stroke-opacity="1" stroke-width="8" fill="rgb(0,0,0)" fill-opacity="1"></path></g></g></g></g><line style="fill:none;stroke-width:0.666667px;stroke:rgb(0, 0, 0);" x1="265.75" y1="100.38541668653488" x2="278.5" y2="100.38541668653488"></line></g><g><g transform="matrix(1,0,0,1,279.34375,102.34375)"><path transform="matrix(0.0085,0,0,-0.0085,0,0)" d="M204 123C177 114 159 108 106 93C99 17 74 -48 16 -144L30 -155L71 -136C152 -31 190 32 218 109Z" stroke="rgb(0,0,0)" stroke-opacity="1" stroke-width="8" fill="rgb(0,0,0)" fill-opacity="1"></path></g></g><g><g><g><g><g transform="matrix(1,0,0,1,284.0103759765625,96.14584350585938)"><path transform="matrix(0.0085,0,0,-0.0085,0,0)" d="M418 -3L418 27L366 30C311 33 301 44 301 96L301 700L60 598L67 548L217 614L217 96C217 44 206 33 152 30L96 27L96 -3C250 0 250 0 261 0C292 0 402 -3 418 -3Z" stroke="rgb(0,0,0)" stroke-opacity="1" stroke-width="8" fill="rgb(0,0,0)" fill-opacity="1"></path></g></g></g></g><g><g><g><g transform="matrix(1,0,0,1,284.0103759765625,109.54167175292969)"><path transform="matrix(0.0085,0,0,-0.0085,0,0)" d="M16 23L16 -3C203 -3 203 0 239 0C275 0 275 -3 468 -3L468 82C353 77 307 81 122 77L304 270C401 373 431 428 431 503C431 618 353 689 226 689C154 689 105 669 56 619L39 483L68 483L81 529C97 587 133 612 200 612C286 612 341 558 341 473C341 398 299 324 186 204Z" stroke="rgb(0,0,0)" stroke-opacity="1" stroke-width="8" fill="rgb(0,0,0)" fill-opacity="1"></path></g></g></g></g><line style="fill:none;stroke-width:0.666667px;stroke:rgb(0, 0, 0);" x1="284.0103759765625" y1="100.38541668653488" x2="288.2603759765625" y2="100.38541668653488"></line></g><g><svg x="288.2603759765625" overflow="visible" y="85.51042175292969" height="28" width="4.25"><path d=" M 0.87 0.85 c 0.00 -0.03 0.02 -0.04 0.04 -0.04 c 0.01 0.00 0.03 0.01 0.04 0.01 c 1.27 0.67 2.32 1.86 2.32 4.70 v 0.30 h -0.77 v -0.30 c 0.00 -1.62 -0.32 -3.51 -1.66 -4.53 c -0.06 -0.05 -0.06 -0.10 -0.06 -0.14 z  M 3.29 5.82 v 16.36 h -0.77 v -16.36 z" style="fill:rgb(0,0,0);fill-opacity:1;stroke-width:1px;stroke:none;stroke-opacity:1;"></path><path d=" M 0.87 27.15 c 0.00 0.03 0.02 0.04 0.04 0.04 c 0.01 0.00 0.03 -0.01 0.04 -0.01 c 1.27 -0.67 2.32 -1.86 2.32 -4.70 v -0.30 h -0.77 v 0.30 c 0.00 1.62 -0.32 3.51 -1.66 4.53 c -0.06 0.05 -0.06 0.10 -0.06 0.14 z" style="fill:rgb(0,0,0);fill-opacity:1;stroke-width:1px;stroke:none;stroke-opacity:1;"></path></svg></g></g></g><g><g><g><g><g><g><g transform="matrix(1,0,0,1,86.5103759765625,29.145843505859375)"><path transform="matrix(0.0085,0,0,-0.0085,0,0)" d="M16 23L16 -3C203 -3 203 0 239 0C275 0 275 -3 468 -3L468 82C353 77 307 81 122 77L304 270C401 373 431 428 431 503C431 618 353 689 226 689C154 689 105 669 56 619L39 483L68 483L81 529C97 587 133 612 200 612C286 612 341 558 341 473C341 398 299 324 186 204ZM1024 42C968 42 963 125 964 166C965 251 993 333 1036 405L1098 418C1101 435 1107 452 1112 467C958 461 799 463 644 466C579 467 565 389 546 340C545 332 558 331 562 328L562 332C605 395 629 405 704 405L727 405C687 266 660 129 597 -2L597 -12C617 -6 652 1 669 13C710 141 739 274 767 405L994 405C937 318 896 213 894 108C894 59 909 -15 970 -15C1011 -15 1067 25 1097 51L1097 66L1085 66L1085 67C1067 56 1047 42 1024 42Z" stroke="rgb(0,0,0)" stroke-opacity="1" stroke-width="8" fill="rgb(0,0,0)" fill-opacity="1"></path></g></g></g></g><g><g><g><g transform="matrix(1,0,0,1,89.28125,42.54167175292969)"><path transform="matrix(0.0085,0,0,-0.0085,0,0)" d="M462 224C462 345 355 366 308 374C388 436 418 482 418 541C418 630 344 689 233 689C165 689 120 670 72 622L43 498L74 498L92 554C103 588 166 622 218 622C283 622 336 569 336 506C336 431 277 368 206 368C198 368 187 369 174 370L159 371L147 318L154 312C192 329 211 334 238 334C321 334 369 281 369 190C369 88 308 21 215 21C169 21 128 36 98 64C74 86 61 109 42 163L15 153C36 92 44 56 50 6C103 -12 147 -20 184 -20C307 -20 462 87 462 224Z" stroke="rgb(0,0,0)" stroke-opacity="1" stroke-width="8" fill="rgb(0,0,0)" fill-opacity="1"></path></g></g></g></g><line style="fill:none;stroke-width:0.666667px;stroke:rgb(0, 0, 0);" x1="86.5103759765625" y1="33.38541668653488" x2="96.31245994567871" y2="33.38541668653488"></line></g><g><svg x="97.75" overflow="visible" y="18.510421752929688" height="28" width="4.25"><path d=" M 3.14 0.85 c 0.00 -0.03 -0.02 -0.04 -0.04 -0.04 c -0.01 0.00 -0.03 0.01 -0.04 0.01 c -1.27 0.67 -2.32 1.86 -2.32 4.70 v 0.30 h 0.77 v -0.30 c 0.00 -1.62 0.32 -3.51 1.66 -4.53 c 0.06 -0.05 0.06 -0.10 0.06 -0.14 z   M 0.72 5.82 v 16.36 h 0.77 v -16.36 z" style="fill:rgb(0,0,0);fill-opacity:1;stroke-width:1px;stroke:none;stroke-opacity:1;"></path><path d=" M 3.14 27.15 c 0.00 0.03 -0.02 0.04 -0.04 0.04 c -0.01 0.00 -0.03 -0.01 -0.04 -0.01 c -1.27 -0.67 -2.32 -1.86 -2.32 -4.70 v -0.30 h 0.77 v 0.30 c 0.00 1.62 0.32 3.51 1.66 4.53 c 0.06 0.05 0.06 0.10 0.06 0.14 z" style="fill:rgb(0,0,0);fill-opacity:1;stroke-width:1px;stroke:none;stroke-opacity:1;"></path></svg></g><g><g transform="matrix(1,0,0,1,101.15625,35.34375)"><path transform="matrix(0.0085,0,0,-0.0085,0,0)" d="M555 243L555 299L51 299L51 243Z" stroke="rgb(0,0,0)" stroke-opacity="1" stroke-width="8" fill="rgb(0,0,0)" fill-opacity="1"></path></g></g><g><g><g><g><g transform="matrix(1,0,0,1,107.14581298828125,29.145843505859375)"><path transform="matrix(0.0085,0,0,-0.0085,0,0)" d="M418 -3L418 27L366 30C311 33 301 44 301 96L301 700L60 598L67 548L217 614L217 96C217 44 206 33 152 30L96 27L96 -3C250 0 250 0 261 0C292 0 402 -3 418 -3Z" stroke="rgb(0,0,0)" stroke-opacity="1" stroke-width="8" fill="rgb(0,0,0)" fill-opacity="1"></path></g></g></g></g><g><g><g><g transform="matrix(1,0,0,1,107.14581298828125,42.54167175292969)"><path transform="matrix(0.0085,0,0,-0.0085,0,0)" d="M16 23L16 -3C203 -3 203 0 239 0C275 0 275 -3 468 -3L468 82C353 77 307 81 122 77L304 270C401 373 431 428 431 503C431 618 353 689 226 689C154 689 105 669 56 619L39 483L68 483L81 529C97 587 133 612 200 612C286 612 341 558 341 473C341 398 299 324 186 204Z" stroke="rgb(0,0,0)" stroke-opacity="1" stroke-width="8" fill="rgb(0,0,0)" fill-opacity="1"></path></g></g></g></g><line style="fill:none;stroke-width:0.666667px;stroke:rgb(0, 0, 0);" x1="107.14581298828125" y1="33.38541668653488" x2="111.39581298828125" y2="33.38541668653488"></line></g><g><g transform="matrix(1,0,0,1,112.23956298828125,35.34375)"><path transform="matrix(0.0085,0,0,-0.0085,0,0)" d="M204 123C177 114 159 108 106 93C99 17 74 -48 16 -144L30 -155L71 -136C152 -31 190 32 218 109Z" stroke="rgb(0,0,0)" stroke-opacity="1" stroke-width="8" fill="rgb(0,0,0)" fill-opacity="1"></path></g></g><g><g><g><g><g><g><g><g transform="matrix(1,0,0,1,125.40625,29.145843505859375)"><path transform="matrix(0.0085,0,0,-0.0085,0,0)" d="M462 224C462 345 355 366 308 374C388 436 418 482 418 541C418 630 344 689 233 689C165 689 120 670 72 622L43 498L74 498L92 554C103 588 166 622 218 622C283 622 336 569 336 506C336 431 277 368 206 368C198 368 187 369 174 370L159 371L147 318L154 312C192 329 211 334 238 334C321 334 369 281 369 190C369 88 308 21 215 21C169 21 128 36 98 64C74 86 61 109 42 163L15 153C36 92 44 56 50 6C103 -12 147 -20 184 -20C307 -20 462 87 462 224Z" stroke="rgb(0,0,0)" stroke-opacity="1" stroke-width="8" fill="rgb(0,0,0)" fill-opacity="1"></path></g></g></g></g><svg x="116.90625" overflow="visible" y="20.3125" height="8.5" width="12.75"><polygon points="0.18,5.14 2.39,3.96 4.83,9.13 8.18,0.00 12.75,0.00 12.75,0.53 8.59,0.53 4.59,11.29 1.55,4.92 0.32,5.38" style="fill:rgb(0,0,0);fill-opacity:1;stroke-width:1px;stroke:none;stroke-opacity:1;"></polygon></svg></g></g></g><g><g><g><g transform="matrix(1,0,0,1,121.15625,42.54167175292969)"><path transform="matrix(0.0085,0,0,-0.0085,0,0)" d="M16 23L16 -3C203 -3 203 0 239 0C275 0 275 -3 468 -3L468 82C353 77 307 81 122 77L304 270C401 373 431 428 431 503C431 618 353 689 226 689C154 689 105 669 56 619L39 483L68 483L81 529C97 587 133 612 200 612C286 612 341 558 341 473C341 398 299 324 186 204Z" stroke="rgb(0,0,0)" stroke-opacity="1" stroke-width="8" fill="rgb(0,0,0)" fill-opacity="1"></path></g></g></g></g><line style="fill:none;stroke-width:0.666667px;stroke:rgb(0, 0, 0);" x1="116.90625" y1="33.38541668653488" x2="129.65625" y2="33.38541668653488"></line></g><g><svg x="129.65625" overflow="visible" y="18.510421752929688" height="28" width="4.25"><path d=" M 0.87 0.85 c 0.00 -0.03 0.02 -0.04 0.04 -0.04 c 0.01 0.00 0.03 0.01 0.04 0.01 c 1.27 0.67 2.32 1.86 2.32 4.70 v 0.30 h -0.77 v -0.30 c 0.00 -1.62 -0.32 -3.51 -1.66 -4.53 c -0.06 -0.05 -0.06 -0.10 -0.06 -0.14 z  M 3.29 5.82 v 16.36 h -0.77 v -16.36 z" style="fill:rgb(0,0,0);fill-opacity:1;stroke-width:1px;stroke:none;stroke-opacity:1;"></path><path d=" M 0.87 27.15 c 0.00 0.03 0.02 0.04 0.04 0.04 c 0.01 0.00 0.03 -0.01 0.04 -0.01 c 1.27 -0.67 2.32 -1.86 2.32 -4.70 v -0.30 h -0.77 v 0.30 c 0.00 1.62 -0.32 3.51 -1.66 4.53 c -0.06 0.05 -0.06 0.10 -0.06 0.14 z" style="fill:rgb(0,0,0);fill-opacity:1;stroke-width:1px;stroke:none;stroke-opacity:1;"></path></svg></g></g></g><g><g><g><g><g><g><g transform="matrix(1,0,0,1,28.5103759765625,58.145843505859375)"><path transform="matrix(0.0085,0,0,-0.0085,0,0)" d="M462 224C462 345 355 366 308 374C388 436 418 482 418 541C418 630 344 689 233 689C165 689 120 670 72 622L43 498L74 498L92 554C103 588 166 622 218 622C283 622 336 569 336 506C336 431 277 368 206 368C198 368 187 369 174 370L159 371L147 318L154 312C192 329 211 334 238 334C321 334 369 281 369 190C369 88 308 21 215 21C169 21 128 36 98 64C74 86 61 109 42 163L15 153C36 92 44 56 50 6C103 -12 147 -20 184 -20C307 -20 462 87 462 224ZM1024 42C968 42 963 125 964 166C965 251 993 333 1036 405L1098 418C1101 435 1107 452 1112 467C958 461 799 463 644 466C579 467 565 389 546 340C545 332 558 331 562 328L562 332C605 395 629 405 704 405L727 405C687 266 660 129 597 -2L597 -12C617 -6 652 1 669 13C710 141 739 274 767 405L994 405C937 318 896 213 894 108C894 59 909 -15 970 -15C1011 -15 1067 25 1097 51L1097 66L1085 66L1085 67C1067 56 1047 42 1024 42Z" stroke="rgb(0,0,0)" stroke-opacity="1" stroke-width="8" fill="rgb(0,0,0)" fill-opacity="1"></path></g></g></g></g><g><g><g><g transform="matrix(1,0,0,1,31.28125,71.54167175292969)"><path transform="matrix(0.0085,0,0,-0.0085,0,0)" d="M280 181L280 106C280 46 269 32 220 30L158 27L158 -3C291 0 291 0 315 0C339 0 339 0 472 -3L472 27L424 30C375 33 364 46 364 106L364 181C423 181 444 180 472 177L472 248L364 245L365 697L285 667L2 204L2 181ZM280 245L65 245L280 597Z" stroke="rgb(0,0,0)" stroke-opacity="1" stroke-width="8" fill="rgb(0,0,0)" fill-opacity="1"></path></g></g></g></g><line style="fill:none;stroke-width:0.666667px;stroke:rgb(0, 0, 0);" x1="28.5103759765625" y1="62.38541668653488" x2="38.31245994567871" y2="62.38541668653488"></line></g><g><svg x="39.75" overflow="visible" y="47.51042175292969" height="28" width="4.25"><path d=" M 3.14 0.85 c 0.00 -0.03 -0.02 -0.04 -0.04 -0.04 c -0.01 0.00 -0.03 0.01 -0.04 0.01 c -1.27 0.67 -2.32 1.86 -2.32 4.70 v 0.30 h 0.77 v -0.30 c 0.00 -1.62 0.32 -3.51 1.66 -4.53 c 0.06 -0.05 0.06 -0.10 0.06 -0.14 z   M 0.72 5.82 v 16.36 h 0.77 v -16.36 z" style="fill:rgb(0,0,0);fill-opacity:1;stroke-width:1px;stroke:none;stroke-opacity:1;"></path><path d=" M 3.14 27.15 c 0.00 0.03 -0.02 0.04 -0.04 0.04 c -0.01 0.00 -0.03 -0.01 -0.04 -0.01 c -1.27 -0.67 -2.32 -1.86 -2.32 -4.70 v -0.30 h 0.77 v 0.30 c 0.00 1.62 0.32 3.51 1.66 4.53 c 0.06 0.05 0.06 0.10 0.06 0.14 z" style="fill:rgb(0,0,0);fill-opacity:1;stroke-width:1px;stroke:none;stroke-opacity:1;"></path></svg></g><g><g transform="matrix(1,0,0,1,43.15625,64.34375)"><path transform="matrix(0.0085,0,0,-0.0085,0,0)" d="M555 243L555 299L51 299L51 243Z" stroke="rgb(0,0,0)" stroke-opacity="1" stroke-width="8" fill="rgb(0,0,0)" fill-opacity="1"></path></g></g><g><g><g><g><g><g><g><g transform="matrix(1,0,0,1,57.64581298828125,58.145843505859375)"><path transform="matrix(0.0085,0,0,-0.0085,0,0)" d="M16 23L16 -3C203 -3 203 0 239 0C275 0 275 -3 468 -3L468 82C353 77 307 81 122 77L304 270C401 373 431 428 431 503C431 618 353 689 226 689C154 689 105 669 56 619L39 483L68 483L81 529C97 587 133 612 200 612C286 612 341 558 341 473C341 398 299 324 186 204Z" stroke="rgb(0,0,0)" stroke-opacity="1" stroke-width="8" fill="rgb(0,0,0)" fill-opacity="1"></path></g></g></g></g><svg x="49.14581298828125" overflow="visible" y="49.3125" height="8.5" width="12.75"><polygon points="0.18,5.14 2.39,3.96 4.83,9.13 8.18,0.00 12.75,0.00 12.75,0.53 8.59,0.53 4.59,11.29 1.55,4.92 0.32,5.38" style="fill:rgb(0,0,0);fill-opacity:1;stroke-width:1px;stroke:none;stroke-opacity:1;"></polygon></svg></g></g></g><g><g><g><g transform="matrix(1,0,0,1,53.39581298828125,71.54167175292969)"><path transform="matrix(0.0085,0,0,-0.0085,0,0)" d="M16 23L16 -3C203 -3 203 0 239 0C275 0 275 -3 468 -3L468 82C353 77 307 81 122 77L304 270C401 373 431 428 431 503C431 618 353 689 226 689C154 689 105 669 56 619L39 483L68 483L81 529C97 587 133 612 200 612C286 612 341 558 341 473C341 398 299 324 186 204Z" stroke="rgb(0,0,0)" stroke-opacity="1" stroke-width="8" fill="rgb(0,0,0)" fill-opacity="1"></path></g></g></g></g><line style="fill:none;stroke-width:0.666667px;stroke:rgb(0, 0, 0);" x1="49.14581298828125" y1="62.38541668653488" x2="61.89581298828125" y2="62.38541668653488"></line></g><g><g transform="matrix(1,0,0,1,62.73956298828125,64.34375)"><path transform="matrix(0.0085,0,0,-0.0085,0,0)" d="M204 123C177 114 159 108 106 93C99 17 74 -48 16 -144L30 -155L71 -136C152 -31 190 32 218 109Z" stroke="rgb(0,0,0)" stroke-opacity="1" stroke-width="8" fill="rgb(0,0,0)" fill-opacity="1"></path></g></g><g><g><g><g><g><g><g><g transform="matrix(1,0,0,1,75.90625,58.145843505859375)"><path transform="matrix(0.0085,0,0,-0.0085,0,0)" d="M16 23L16 -3C203 -3 203 0 239 0C275 0 275 -3 468 -3L468 82C353 77 307 81 122 77L304 270C401 373 431 428 431 503C431 618 353 689 226 689C154 689 105 669 56 619L39 483L68 483L81 529C97 587 133 612 200 612C286 612 341 558 341 473C341 398 299 324 186 204Z" stroke="rgb(0,0,0)" stroke-opacity="1" stroke-width="8" fill="rgb(0,0,0)" fill-opacity="1"></path></g></g></g></g><svg x="67.40625" overflow="visible" y="49.3125" height="8.5" width="12.75"><polygon points="0.18,5.14 2.39,3.96 4.83,9.13 8.18,0.00 12.75,0.00 12.75,0.53 8.59,0.53 4.59,11.29 1.55,4.92 0.32,5.38" style="fill:rgb(0,0,0);fill-opacity:1;stroke-width:1px;stroke:none;stroke-opacity:1;"></polygon></svg></g></g></g><g><g><g><g transform="matrix(1,0,0,1,71.65625,71.54167175292969)"><path transform="matrix(0.0085,0,0,-0.0085,0,0)" d="M16 23L16 -3C203 -3 203 0 239 0C275 0 275 -3 468 -3L468 82C353 77 307 81 122 77L304 270C401 373 431 428 431 503C431 618 353 689 226 689C154 689 105 669 56 619L39 483L68 483L81 529C97 587 133 612 200 612C286 612 341 558 341 473C341 398 299 324 186 204Z" stroke="rgb(0,0,0)" stroke-opacity="1" stroke-width="8" fill="rgb(0,0,0)" fill-opacity="1"></path></g></g></g></g><line style="fill:none;stroke-width:0.666667px;stroke:rgb(0, 0, 0);" x1="67.40625" y1="62.38541668653488" x2="80.15625" y2="62.38541668653488"></line></g><g><svg x="80.15625" overflow="visible" y="47.51042175292969" height="28" width="4.25"><path d=" M 0.87 0.85 c 0.00 -0.03 0.02 -0.04 0.04 -0.04 c 0.01 0.00 0.03 0.01 0.04 0.01 c 1.27 0.67 2.32 1.86 2.32 4.70 v 0.30 h -0.77 v -0.30 c 0.00 -1.62 -0.32 -3.51 -1.66 -4.53 c -0.06 -0.05 -0.06 -0.10 -0.06 -0.14 z  M 3.29 5.82 v 16.36 h -0.77 v -16.36 z" style="fill:rgb(0,0,0);fill-opacity:1;stroke-width:1px;stroke:none;stroke-opacity:1;"></path><path d=" M 0.87 27.15 c 0.00 0.03 0.02 0.04 0.04 0.04 c 0.01 0.00 0.03 -0.01 0.04 -0.01 c 1.27 -0.67 2.32 -1.86 2.32 -4.70 v -0.30 h -0.77 v 0.30 c 0.00 1.62 -0.32 3.51 -1.66 4.53 c -0.06 0.05 -0.06 0.10 -0.06 0.14 z" style="fill:rgb(0,0,0);fill-opacity:1;stroke-width:1px;stroke:none;stroke-opacity:1;"></path></svg></g></g></g><g><g><g><g><g><g><g transform="matrix(1,0,0,1,12.84375,98.14584350585938)"><path transform="matrix(0.0085,0,0,-0.0085,0,0)" d="M459 253C459 366 378 446 264 446C216 446 180 443 127 396L127 605L432 604L432 689L75 690L75 322L95 316C142 363 169 377 218 377C314 377 374 309 374 201C374 90 310 25 201 25C147 25 97 43 83 69L37 151L13 137C36 80 48 48 62 4C90 -11 130 -20 173 -20C301 -20 459 89 459 253ZM1024 42C968 42 963 125 964 166C965 251 993 333 1036 405L1098 418C1101 435 1107 452 1112 467C958 461 799 463 644 466C579 467 565 389 546 340C545 332 558 331 562 328L562 332C605 395 629 405 704 405L727 405C687 266 660 129 597 -2L597 -12C617 -6 652 1 669 13C710 141 739 274 767 405L994 405C937 318 896 213 894 108C894 59 909 -15 970 -15C1011 -15 1067 25 1097 51L1097 66L1085 66L1085 67C1067 56 1047 42 1024 42Z" stroke="rgb(0,0,0)" stroke-opacity="1" stroke-width="8" fill="rgb(0,0,0)" fill-opacity="1"></path></g></g></g></g><g><g><g><g transform="matrix(1,0,0,1,15.61456298828125,111.54167175292969)"><path transform="matrix(0.0085,0,0,-0.0085,0,0)" d="M131 331C152 512 241 611 421 665L379 689C283 657 242 637 191 593C88 506 32 384 32 247C32 82 112 -20 241 -20C371 -20 468 83 468 219C468 334 399 409 293 409C216 409 184 370 131 331ZM255 349C331 349 382 283 382 184C382 80 331 13 254 13C169 13 123 86 123 220C123 255 127 274 138 291C160 325 207 349 255 349Z" stroke="rgb(0,0,0)" stroke-opacity="1" stroke-width="8" fill="rgb(0,0,0)" fill-opacity="1"></path></g></g></g></g><line style="fill:none;stroke-width:0.666667px;stroke:rgb(0, 0, 0);" x1="12.84375" y1="102.38541668653488" x2="22.64583396911621" y2="102.38541668653488"></line></g><g><svg x="24.08331298828125" overflow="visible" y="87.51042175292969" height="28" width="4.25"><path d=" M 3.14 0.85 c 0.00 -0.03 -0.02 -0.04 -0.04 -0.04 c -0.01 0.00 -0.03 0.01 -0.04 0.01 c -1.27 0.67 -2.32 1.86 -2.32 4.70 v 0.30 h 0.77 v -0.30 c 0.00 -1.62 0.32 -3.51 1.66 -4.53 c 0.06 -0.05 0.06 -0.10 0.06 -0.14 z   M 0.72 5.82 v 16.36 h 0.77 v -16.36 z" style="fill:rgb(0,0,0);fill-opacity:1;stroke-width:1px;stroke:none;stroke-opacity:1;"></path><path d=" M 3.14 27.15 c 0.00 0.03 -0.02 0.04 -0.04 0.04 c -0.01 0.00 -0.03 -0.01 -0.04 -0.01 c -1.27 -0.67 -2.32 -1.86 -2.32 -4.70 v -0.30 h 0.77 v 0.30 c 0.00 1.62 0.32 3.51 1.66 4.53 c 0.06 0.05 0.06 0.10 0.06 0.14 z" style="fill:rgb(0,0,0);fill-opacity:1;stroke-width:1px;stroke:none;stroke-opacity:1;"></path></svg></g><g><g transform="matrix(1,0,0,1,27.48956298828125,104.34375)"><path transform="matrix(0.0085,0,0,-0.0085,0,0)" d="M555 243L555 299L51 299L51 243Z" stroke="rgb(0,0,0)" stroke-opacity="1" stroke-width="8" fill="rgb(0,0,0)" fill-opacity="1"></path></g></g><g><g><g><g><g><g><g><g transform="matrix(1,0,0,1,41.9791259765625,98.14584350585938)"><path transform="matrix(0.0085,0,0,-0.0085,0,0)" d="M462 224C462 345 355 366 308 374C388 436 418 482 418 541C418 630 344 689 233 689C165 689 120 670 72 622L43 498L74 498L92 554C103 588 166 622 218 622C283 622 336 569 336 506C336 431 277 368 206 368C198 368 187 369 174 370L159 371L147 318L154 312C192 329 211 334 238 334C321 334 369 281 369 190C369 88 308 21 215 21C169 21 128 36 98 64C74 86 61 109 42 163L15 153C36 92 44 56 50 6C103 -12 147 -20 184 -20C307 -20 462 87 462 224Z" stroke="rgb(0,0,0)" stroke-opacity="1" stroke-width="8" fill="rgb(0,0,0)" fill-opacity="1"></path></g></g></g></g><svg x="33.4791259765625" overflow="visible" y="89.3125" height="8.5" width="12.75"><polygon points="0.18,5.14 2.39,3.96 4.83,9.13 8.18,0.00 12.75,0.00 12.75,0.53 8.59,0.53 4.59,11.29 1.55,4.92 0.32,5.38" style="fill:rgb(0,0,0);fill-opacity:1;stroke-width:1px;stroke:none;stroke-opacity:1;"></polygon></svg></g></g></g><g><g><g><g transform="matrix(1,0,0,1,37.7291259765625,111.54167175292969)"><path transform="matrix(0.0085,0,0,-0.0085,0,0)" d="M16 23L16 -3C203 -3 203 0 239 0C275 0 275 -3 468 -3L468 82C353 77 307 81 122 77L304 270C401 373 431 428 431 503C431 618 353 689 226 689C154 689 105 669 56 619L39 483L68 483L81 529C97 587 133 612 200 612C286 612 341 558 341 473C341 398 299 324 186 204Z" stroke="rgb(0,0,0)" stroke-opacity="1" stroke-width="8" fill="rgb(0,0,0)" fill-opacity="1"></path></g></g></g></g><line style="fill:none;stroke-width:0.666667px;stroke:rgb(0, 0, 0);" x1="33.4791259765625" y1="102.38541668653488" x2="46.2291259765625" y2="102.38541668653488"></line></g><g><g transform="matrix(1,0,0,1,47.0728759765625,104.34375)"><path transform="matrix(0.0085,0,0,-0.0085,0,0)" d="M204 123C177 114 159 108 106 93C99 17 74 -48 16 -144L30 -155L71 -136C152 -31 190 32 218 109Z" stroke="rgb(0,0,0)" stroke-opacity="1" stroke-width="8" fill="rgb(0,0,0)" fill-opacity="1"></path></g></g><g><g><g><g><g transform="matrix(1,0,0,1,51.73956298828125,98.14584350585938)"><path transform="matrix(0.0085,0,0,-0.0085,0,0)" d="M418 -3L418 27L366 30C311 33 301 44 301 96L301 700L60 598L67 548L217 614L217 96C217 44 206 33 152 30L96 27L96 -3C250 0 250 0 261 0C292 0 402 -3 418 -3Z" stroke="rgb(0,0,0)" stroke-opacity="1" stroke-width="8" fill="rgb(0,0,0)" fill-opacity="1"></path></g></g></g></g><g><g><g><g transform="matrix(1,0,0,1,51.73956298828125,111.54167175292969)"><path transform="matrix(0.0085,0,0,-0.0085,0,0)" d="M16 23L16 -3C203 -3 203 0 239 0C275 0 275 -3 468 -3L468 82C353 77 307 81 122 77L304 270C401 373 431 428 431 503C431 618 353 689 226 689C154 689 105 669 56 619L39 483L68 483L81 529C97 587 133 612 200 612C286 612 341 558 341 473C341 398 299 324 186 204Z" stroke="rgb(0,0,0)" stroke-opacity="1" stroke-width="8" fill="rgb(0,0,0)" fill-opacity="1"></path></g></g></g></g><line style="fill:none;stroke-width:0.666667px;stroke:rgb(0, 0, 0);" x1="51.73956298828125" y1="102.38541668653488" x2="55.98956298828125" y2="102.38541668653488"></line></g><g><svg x="55.98956298828125" overflow="visible" y="87.51042175292969" height="28" width="4.25"><path d=" M 0.87 0.85 c 0.00 -0.03 0.02 -0.04 0.04 -0.04 c 0.01 0.00 0.03 0.01 0.04 0.01 c 1.27 0.67 2.32 1.86 2.32 4.70 v 0.30 h -0.77 v -0.30 c 0.00 -1.62 -0.32 -3.51 -1.66 -4.53 c -0.06 -0.05 -0.06 -0.10 -0.06 -0.14 z  M 3.29 5.82 v 16.36 h -0.77 v -16.36 z" style="fill:rgb(0,0,0);fill-opacity:1;stroke-width:1px;stroke:none;stroke-opacity:1;"></path><path d=" M 0.87 27.15 c 0.00 0.03 0.02 0.04 0.04 0.04 c 0.01 0.00 0.03 -0.01 0.04 -0.01 c 1.27 -0.67 2.32 -1.86 2.32 -4.70 v -0.30 h -0.77 v 0.30 c 0.00 1.62 -0.32 3.51 -1.66 4.53 c -0.06 0.05 -0.06 0.10 -0.06 0.14 z" style="fill:rgb(0,0,0);fill-opacity:1;stroke-width:1px;stroke:none;stroke-opacity:1;"></path></svg></g></g></g><g><g><g><g transform="matrix(1,0,0,1,281.6666259765625,141.5)"><path transform="matrix(0.0085,0,0,-0.0085,0,0)" d="M263 689C108 689 29 566 29 324C29 207 50 106 85 57C120 8 176 -20 238 -20C389 -20 465 110 465 366C465 585 400 689 263 689ZM245 654C342 654 381 556 381 316C381 103 343 15 251 15C154 15 113 116 113 360C113 571 150 654 245 654Z" stroke="rgb(0,0,0)" stroke-opacity="1" stroke-width="8" fill="rgb(0,0,0)" fill-opacity="1"></path></g></g><g><g transform="matrix(1,0,0,1,285.9166259765625,142.16668701171875)"><path transform="matrix(0.0085,0,0,-0.0085,0,0)" d="M146 266C146 526 243 632 301 700L282 726C225 675 60 542 60 266C60 159 85 58 133 -32C168 -99 200 -138 282 -215L301 -194C255 -137 146 -15 146 266Z" stroke="rgb(0,0,0)" stroke-opacity="1" stroke-width="8" fill="rgb(0,0,0)" fill-opacity="1"></path></g></g><g><g transform="matrix(1,0,0,1,288.73956298828125,141.5)"><path transform="matrix(0.0085,0,0,-0.0085,0,0)" d="M418 -3L418 27L366 30C311 33 301 44 301 96L301 700L60 598L67 548L217 614L217 96C217 44 206 33 152 30L96 27L96 -3C250 0 250 0 261 0C292 0 402 -3 418 -3Z" stroke="rgb(0,0,0)" stroke-opacity="1" stroke-width="8" fill="rgb(0,0,0)" fill-opacity="1"></path></g></g><g><g transform="matrix(1,0,0,1,292.98956298828125,141.5)"><path transform="matrix(0.0085,0,0,-0.0085,0,0)" d="M204 123C177 114 159 108 106 93C99 17 74 -48 16 -144L30 -155L71 -136C152 -31 190 32 218 109Z" stroke="rgb(0,0,0)" stroke-opacity="1" stroke-width="8" fill="rgb(0,0,0)" fill-opacity="1"></path></g></g><g><g transform="matrix(1,0,0,1,296.8125,141.5)"><path transform="matrix(0.0085,0,0,-0.0085,0,0)" d="M263 689C108 689 29 566 29 324C29 207 50 106 85 57C120 8 176 -20 238 -20C389 -20 465 110 465 366C465 585 400 689 263 689ZM245 654C342 654 381 556 381 316C381 103 343 15 251 15C154 15 113 116 113 360C113 571 150 654 245 654Z" stroke="rgb(0,0,0)" stroke-opacity="1" stroke-width="8" fill="rgb(0,0,0)" fill-opacity="1"></path></g></g><g><g transform="matrix(1,0,0,1,301.0625,142.16668701171875)"><path transform="matrix(0.0085,0,0,-0.0085,0,0)" d="M51 726L32 700C87 636 187 526 187 266C187 -10 83 -131 32 -194L51 -215C104 -165 273 -23 273 265C273 542 108 675 51 726Z" stroke="rgb(0,0,0)" stroke-opacity="1" stroke-width="8" fill="rgb(0,0,0)" fill-opacity="1"></path></g></g></g></g><g><g><g><g transform="matrix(1,0,0,1,7,141.5)"><path transform="matrix(0.0085,0,0,-0.0085,0,0)" d="M525 42C469 42 464 125 465 166C466 251 494 333 537 405L599 418C602 435 608 452 613 467C459 461 300 463 145 466C80 467 66 389 47 340C46 332 59 331 63 328L63 332C106 395 130 405 205 405L228 405C188 266 161 129 98 -2L98 -12C118 -6 153 1 170 13C211 141 240 274 268 405L495 405C438 318 397 213 395 108C395 59 410 -15 471 -15C512 -15 568 25 598 51L598 66L586 66L586 67C568 56 548 42 525 42Z" stroke="rgb(0,0,0)" stroke-opacity="1" stroke-width="8" fill="rgb(0,0,0)" fill-opacity="1"></path></g></g><g><g transform="matrix(1,0,0,1,12.55206298828125,142.16668701171875)"><path transform="matrix(0.0085,0,0,-0.0085,0,0)" d="M146 266C146 526 243 632 301 700L282 726C225 675 60 542 60 266C60 159 85 58 133 -32C168 -99 200 -138 282 -215L301 -194C255 -137 146 -15 146 266Z" stroke="rgb(0,0,0)" stroke-opacity="1" stroke-width="8" fill="rgb(0,0,0)" fill-opacity="1"></path></g></g><g><g transform="matrix(1,0,0,1,15.375,141.5)"><path transform="matrix(0.0085,0,0,-0.0085,0,0)" d="M555 243L555 299L51 299L51 243Z" stroke="rgb(0,0,0)" stroke-opacity="1" stroke-width="8" fill="rgb(0,0,0)" fill-opacity="1"></path></g></g><g><g transform="matrix(1,0,0,1,20.52081298828125,141.5)"><path transform="matrix(0.0085,0,0,-0.0085,0,0)" d="M418 -3L418 27L366 30C311 33 301 44 301 96L301 700L60 598L67 548L217 614L217 96C217 44 206 33 152 30L96 27L96 -3C250 0 250 0 261 0C292 0 402 -3 418 -3Z" stroke="rgb(0,0,0)" stroke-opacity="1" stroke-width="8" fill="rgb(0,0,0)" fill-opacity="1"></path></g></g><g><g transform="matrix(1,0,0,1,24.77081298828125,141.5)"><path transform="matrix(0.0085,0,0,-0.0085,0,0)" d="M204 123C177 114 159 108 106 93C99 17 74 -48 16 -144L30 -155L71 -136C152 -31 190 32 218 109Z" stroke="rgb(0,0,0)" stroke-opacity="1" stroke-width="8" fill="rgb(0,0,0)" fill-opacity="1"></path></g></g><g><g transform="matrix(1,0,0,1,28.59375,141.5)"><path transform="matrix(0.0085,0,0,-0.0085,0,0)" d="M263 689C108 689 29 566 29 324C29 207 50 106 85 57C120 8 176 -20 238 -20C389 -20 465 110 465 366C465 585 400 689 263 689ZM245 654C342 654 381 556 381 316C381 103 343 15 251 15C154 15 113 116 113 360C113 571 150 654 245 654Z" stroke="rgb(0,0,0)" stroke-opacity="1" stroke-width="8" fill="rgb(0,0,0)" fill-opacity="1"></path></g></g><g><g transform="matrix(1,0,0,1,32.84375,142.16668701171875)"><path transform="matrix(0.0085,0,0,-0.0085,0,0)" d="M51 726L32 700C87 636 187 526 187 266C187 -10 83 -131 32 -194L51 -215C104 -165 273 -23 273 265C273 542 108 675 51 726Z" stroke="rgb(0,0,0)" stroke-opacity="1" stroke-width="8" fill="rgb(0,0,0)" fill-opacity="1"></path></g></g></g></g><g><g><g><g><g><g><g transform="matrix(1,0,0,1,8.5103759765625,173.14584350585938)"><path transform="matrix(0.0085,0,0,-0.0085,0,0)" d="M409 603L47 -1L157 -1L497 659L497 689L44 689L44 477L74 477L81 533C89 595 96 603 142 603ZM1024 42C968 42 963 125 964 166C965 251 993 333 1036 405L1098 418C1101 435 1107 452 1112 467C958 461 799 463 644 466C579 467 565 389 546 340C545 332 558 331 562 328L562 332C605 395 629 405 704 405L727 405C687 266 660 129 597 -2L597 -12C617 -6 652 1 669 13C710 141 739 274 767 405L994 405C937 318 896 213 894 108C894 59 909 -15 970 -15C1011 -15 1067 25 1097 51L1097 66L1085 66L1085 67C1067 56 1047 42 1024 42Z" stroke="rgb(0,0,0)" stroke-opacity="1" stroke-width="8" fill="rgb(0,0,0)" fill-opacity="1"></path></g></g></g></g><g><g><g><g transform="matrix(1,0,0,1,11.28125,186.54168701171875)"><path transform="matrix(0.0085,0,0,-0.0085,0,0)" d="M131 331C152 512 241 611 421 665L379 689C283 657 242 637 191 593C88 506 32 384 32 247C32 82 112 -20 241 -20C371 -20 468 83 468 219C468 334 399 409 293 409C216 409 184 370 131 331ZM255 349C331 349 382 283 382 184C382 80 331 13 254 13C169 13 123 86 123 220C123 255 127 274 138 291C160 325 207 349 255 349Z" stroke="rgb(0,0,0)" stroke-opacity="1" stroke-width="8" fill="rgb(0,0,0)" fill-opacity="1"></path></g></g></g></g><line style="fill:none;stroke-width:0.666667px;stroke:rgb(0, 0, 0);" x1="8.5103759765625" y1="177.38541668653488" x2="18.31245994567871" y2="177.38541668653488"></line></g><g><svg x="19.75" overflow="visible" y="162.51043701171875" height="28" width="4.25"><path d=" M 3.14 0.85 c 0.00 -0.03 -0.02 -0.04 -0.04 -0.04 c -0.01 0.00 -0.03 0.01 -0.04 0.01 c -1.27 0.67 -2.32 1.86 -2.32 4.70 v 0.30 h 0.77 v -0.30 c 0.00 -1.62 0.32 -3.51 1.66 -4.53 c 0.06 -0.05 0.06 -0.10 0.06 -0.14 z   M 0.72 5.82 v 16.36 h 0.77 v -16.36 z" style="fill:rgb(0,0,0);fill-opacity:1;stroke-width:1px;stroke:none;stroke-opacity:1;"></path><path d=" M 3.14 27.15 c 0.00 0.03 -0.02 0.04 -0.04 0.04 c -0.01 0.00 -0.03 -0.01 -0.04 -0.01 c -1.27 -0.67 -2.32 -1.86 -2.32 -4.70 v -0.30 h 0.77 v 0.30 c 0.00 1.62 0.32 3.51 1.66 4.53 c 0.06 0.05 0.06 0.10 0.06 0.14 z" style="fill:rgb(0,0,0);fill-opacity:1;stroke-width:1px;stroke:none;stroke-opacity:1;"></path></svg></g><g><g transform="matrix(1,0,0,1,23.15625,179.34375)"><path transform="matrix(0.0085,0,0,-0.0085,0,0)" d="M555 243L555 299L51 299L51 243Z" stroke="rgb(0,0,0)" stroke-opacity="1" stroke-width="8" fill="rgb(0,0,0)" fill-opacity="1"></path></g></g><g><g><g><g><g><g><g><g transform="matrix(1,0,0,1,37.64581298828125,173.14584350585938)"><path transform="matrix(0.0085,0,0,-0.0085,0,0)" d="M462 224C462 345 355 366 308 374C388 436 418 482 418 541C418 630 344 689 233 689C165 689 120 670 72 622L43 498L74 498L92 554C103 588 166 622 218 622C283 622 336 569 336 506C336 431 277 368 206 368C198 368 187 369 174 370L159 371L147 318L154 312C192 329 211 334 238 334C321 334 369 281 369 190C369 88 308 21 215 21C169 21 128 36 98 64C74 86 61 109 42 163L15 153C36 92 44 56 50 6C103 -12 147 -20 184 -20C307 -20 462 87 462 224Z" stroke="rgb(0,0,0)" stroke-opacity="1" stroke-width="8" fill="rgb(0,0,0)" fill-opacity="1"></path></g></g></g></g><svg x="29.14581298828125" overflow="visible" y="164.3125" height="8.5" width="12.75"><polygon points="0.18,5.14 2.39,3.96 4.83,9.13 8.18,0.00 12.75,0.00 12.75,0.53 8.59,0.53 4.59,11.29 1.55,4.92 0.32,5.38" style="fill:rgb(0,0,0);fill-opacity:1;stroke-width:1px;stroke:none;stroke-opacity:1;"></polygon></svg></g></g></g><g><g><g><g transform="matrix(1,0,0,1,33.39581298828125,186.54168701171875)"><path transform="matrix(0.0085,0,0,-0.0085,0,0)" d="M16 23L16 -3C203 -3 203 0 239 0C275 0 275 -3 468 -3L468 82C353 77 307 81 122 77L304 270C401 373 431 428 431 503C431 618 353 689 226 689C154 689 105 669 56 619L39 483L68 483L81 529C97 587 133 612 200 612C286 612 341 558 341 473C341 398 299 324 186 204Z" stroke="rgb(0,0,0)" stroke-opacity="1" stroke-width="8" fill="rgb(0,0,0)" fill-opacity="1"></path></g></g></g></g><line style="fill:none;stroke-width:0.666667px;stroke:rgb(0, 0, 0);" x1="29.14581298828125" y1="177.38541668653488" x2="41.89581298828125" y2="177.38541668653488"></line></g><g><g transform="matrix(1,0,0,1,42.73956298828125,179.34375)"><path transform="matrix(0.0085,0,0,-0.0085,0,0)" d="M204 123C177 114 159 108 106 93C99 17 74 -48 16 -144L30 -155L71 -136C152 -31 190 32 218 109Z" stroke="rgb(0,0,0)" stroke-opacity="1" stroke-width="8" fill="rgb(0,0,0)" fill-opacity="1"></path></g></g><g><g transform="matrix(1,0,0,1,48.2603759765625,179.34375)"><path transform="matrix(0.0085,0,0,-0.0085,0,0)" d="M555 243L555 299L51 299L51 243Z" stroke="rgb(0,0,0)" stroke-opacity="1" stroke-width="8" fill="rgb(0,0,0)" fill-opacity="1"></path></g></g><g><g><g><g><g transform="matrix(1,0,0,1,55.9478759765625,173.14584350585938)"><path transform="matrix(0.0085,0,0,-0.0085,0,0)" d="M418 -3L418 27L366 30C311 33 301 44 301 96L301 700L60 598L67 548L217 614L217 96C217 44 206 33 152 30L96 27L96 -3C250 0 250 0 261 0C292 0 402 -3 418 -3Z" stroke="rgb(0,0,0)" stroke-opacity="1" stroke-width="8" fill="rgb(0,0,0)" fill-opacity="1"></path></g></g></g></g><g><g><g><g transform="matrix(1,0,0,1,55.9478759765625,186.54168701171875)"><path transform="matrix(0.0085,0,0,-0.0085,0,0)" d="M16 23L16 -3C203 -3 203 0 239 0C275 0 275 -3 468 -3L468 82C353 77 307 81 122 77L304 270C401 373 431 428 431 503C431 618 353 689 226 689C154 689 105 669 56 619L39 483L68 483L81 529C97 587 133 612 200 612C286 612 341 558 341 473C341 398 299 324 186 204Z" stroke="rgb(0,0,0)" stroke-opacity="1" stroke-width="8" fill="rgb(0,0,0)" fill-opacity="1"></path></g></g></g></g><line style="fill:none;stroke-width:0.666667px;stroke:rgb(0, 0, 0);" x1="55.9478759765625" y1="177.38541668653488" x2="60.1978759765625" y2="177.38541668653488"></line></g><g><svg x="60.1978759765625" overflow="visible" y="162.51043701171875" height="28" width="4.25"><path d=" M 0.87 0.85 c 0.00 -0.03 0.02 -0.04 0.04 -0.04 c 0.01 0.00 0.03 0.01 0.04 0.01 c 1.27 0.67 2.32 1.86 2.32 4.70 v 0.30 h -0.77 v -0.30 c 0.00 -1.62 -0.32 -3.51 -1.66 -4.53 c -0.06 -0.05 -0.06 -0.10 -0.06 -0.14 z  M 3.29 5.82 v 16.36 h -0.77 v -16.36 z" style="fill:rgb(0,0,0);fill-opacity:1;stroke-width:1px;stroke:none;stroke-opacity:1;"></path><path d=" M 0.87 27.15 c 0.00 0.03 0.02 0.04 0.04 0.04 c 0.01 0.00 0.03 -0.01 0.04 -0.01 c 1.27 -0.67 2.32 -1.86 2.32 -4.70 v -0.30 h -0.77 v 0.30 c 0.00 1.62 -0.32 3.51 -1.66 4.53 c -0.06 0.05 -0.06 0.10 -0.06 0.14 z" style="fill:rgb(0,0,0);fill-opacity:1;stroke-width:1px;stroke:none;stroke-opacity:1;"></path></svg></g></g></g><g><g><g><g><g><g><g transform="matrix(1,0,0,1,18.5103759765625,215.14584350585938)"><path transform="matrix(0.0085,0,0,-0.0085,0,0)" d="M459 253C459 366 378 446 264 446C216 446 180 443 127 396L127 605L432 604L432 689L75 690L75 322L95 316C142 363 169 377 218 377C314 377 374 309 374 201C374 90 310 25 201 25C147 25 97 43 83 69L37 151L13 137C36 80 48 48 62 4C90 -11 130 -20 173 -20C301 -20 459 89 459 253ZM1024 42C968 42 963 125 964 166C965 251 993 333 1036 405L1098 418C1101 435 1107 452 1112 467C958 461 799 463 644 466C579 467 565 389 546 340C545 332 558 331 562 328L562 332C605 395 629 405 704 405L727 405C687 266 660 129 597 -2L597 -12C617 -6 652 1 669 13C710 141 739 274 767 405L994 405C937 318 896 213 894 108C894 59 909 -15 970 -15C1011 -15 1067 25 1097 51L1097 66L1085 66L1085 67C1067 56 1047 42 1024 42Z" stroke="rgb(0,0,0)" stroke-opacity="1" stroke-width="8" fill="rgb(0,0,0)" fill-opacity="1"></path></g></g></g></g><g><g><g><g transform="matrix(1,0,0,1,21.28125,228.54168701171875)"><path transform="matrix(0.0085,0,0,-0.0085,0,0)" d="M280 181L280 106C280 46 269 32 220 30L158 27L158 -3C291 0 291 0 315 0C339 0 339 0 472 -3L472 27L424 30C375 33 364 46 364 106L364 181C423 181 444 180 472 177L472 248L364 245L365 697L285 667L2 204L2 181ZM280 245L65 245L280 597Z" stroke="rgb(0,0,0)" stroke-opacity="1" stroke-width="8" fill="rgb(0,0,0)" fill-opacity="1"></path></g></g></g></g><line style="fill:none;stroke-width:0.666667px;stroke:rgb(0, 0, 0);" x1="18.5103759765625" y1="219.38541668653488" x2="28.31245994567871" y2="219.38541668653488"></line></g><g><svg x="29.75" overflow="visible" y="204.51043701171875" height="28" width="4.25"><path d=" M 3.14 0.85 c 0.00 -0.03 -0.02 -0.04 -0.04 -0.04 c -0.01 0.00 -0.03 0.01 -0.04 0.01 c -1.27 0.67 -2.32 1.86 -2.32 4.70 v 0.30 h 0.77 v -0.30 c 0.00 -1.62 0.32 -3.51 1.66 -4.53 c 0.06 -0.05 0.06 -0.10 0.06 -0.14 z   M 0.72 5.82 v 16.36 h 0.77 v -16.36 z" style="fill:rgb(0,0,0);fill-opacity:1;stroke-width:1px;stroke:none;stroke-opacity:1;"></path><path d=" M 3.14 27.15 c 0.00 0.03 -0.02 0.04 -0.04 0.04 c -0.01 0.00 -0.03 -0.01 -0.04 -0.01 c -1.27 -0.67 -2.32 -1.86 -2.32 -4.70 v -0.30 h 0.77 v 0.30 c 0.00 1.62 0.32 3.51 1.66 4.53 c 0.06 0.05 0.06 0.10 0.06 0.14 z" style="fill:rgb(0,0,0);fill-opacity:1;stroke-width:1px;stroke:none;stroke-opacity:1;"></path></svg></g><g><g transform="matrix(1,0,0,1,33.15625,221.34375)"><path transform="matrix(0.0085,0,0,-0.0085,0,0)" d="M555 243L555 299L51 299L51 243Z" stroke="rgb(0,0,0)" stroke-opacity="1" stroke-width="8" fill="rgb(0,0,0)" fill-opacity="1"></path></g></g><g><g><g><g><g><g><g><g transform="matrix(1,0,0,1,47.64581298828125,215.14584350585938)"><path transform="matrix(0.0085,0,0,-0.0085,0,0)" d="M16 23L16 -3C203 -3 203 0 239 0C275 0 275 -3 468 -3L468 82C353 77 307 81 122 77L304 270C401 373 431 428 431 503C431 618 353 689 226 689C154 689 105 669 56 619L39 483L68 483L81 529C97 587 133 612 200 612C286 612 341 558 341 473C341 398 299 324 186 204Z" stroke="rgb(0,0,0)" stroke-opacity="1" stroke-width="8" fill="rgb(0,0,0)" fill-opacity="1"></path></g></g></g></g><svg x="39.14581298828125" overflow="visible" y="206.3125" height="8.5" width="12.75"><polygon points="0.18,5.14 2.39,3.96 4.83,9.13 8.18,0.00 12.75,0.00 12.75,0.53 8.59,0.53 4.59,11.29 1.55,4.92 0.32,5.38" style="fill:rgb(0,0,0);fill-opacity:1;stroke-width:1px;stroke:none;stroke-opacity:1;"></polygon></svg></g></g></g><g><g><g><g transform="matrix(1,0,0,1,43.39581298828125,228.54168701171875)"><path transform="matrix(0.0085,0,0,-0.0085,0,0)" d="M16 23L16 -3C203 -3 203 0 239 0C275 0 275 -3 468 -3L468 82C353 77 307 81 122 77L304 270C401 373 431 428 431 503C431 618 353 689 226 689C154 689 105 669 56 619L39 483L68 483L81 529C97 587 133 612 200 612C286 612 341 558 341 473C341 398 299 324 186 204Z" stroke="rgb(0,0,0)" stroke-opacity="1" stroke-width="8" fill="rgb(0,0,0)" fill-opacity="1"></path></g></g></g></g><line style="fill:none;stroke-width:0.666667px;stroke:rgb(0, 0, 0);" x1="39.14581298828125" y1="219.38541668653488" x2="51.89581298828125" y2="219.38541668653488"></line></g><g><g transform="matrix(1,0,0,1,52.73956298828125,221.34375)"><path transform="matrix(0.0085,0,0,-0.0085,0,0)" d="M204 123C177 114 159 108 106 93C99 17 74 -48 16 -144L30 -155L71 -136C152 -31 190 32 218 109Z" stroke="rgb(0,0,0)" stroke-opacity="1" stroke-width="8" fill="rgb(0,0,0)" fill-opacity="1"></path></g></g><g><g transform="matrix(1,0,0,1,58.2603759765625,221.34375)"><path transform="matrix(0.0085,0,0,-0.0085,0,0)" d="M555 243L555 299L51 299L51 243Z" stroke="rgb(0,0,0)" stroke-opacity="1" stroke-width="8" fill="rgb(0,0,0)" fill-opacity="1"></path></g></g><g><g><g><g><g><g><g><g transform="matrix(1,0,0,1,74.4478759765625,215.14584350585938)"><path transform="matrix(0.0085,0,0,-0.0085,0,0)" d="M16 23L16 -3C203 -3 203 0 239 0C275 0 275 -3 468 -3L468 82C353 77 307 81 122 77L304 270C401 373 431 428 431 503C431 618 353 689 226 689C154 689 105 669 56 619L39 483L68 483L81 529C97 587 133 612 200 612C286 612 341 558 341 473C341 398 299 324 186 204Z" stroke="rgb(0,0,0)" stroke-opacity="1" stroke-width="8" fill="rgb(0,0,0)" fill-opacity="1"></path></g></g></g></g><svg x="65.9478759765625" overflow="visible" y="206.3125" height="8.5" width="12.75"><polygon points="0.18,5.14 2.39,3.96 4.83,9.13 8.18,0.00 12.75,0.00 12.75,0.53 8.59,0.53 4.59,11.29 1.55,4.92 0.32,5.38" style="fill:rgb(0,0,0);fill-opacity:1;stroke-width:1px;stroke:none;stroke-opacity:1;"></polygon></svg></g></g></g><g><g><g><g transform="matrix(1,0,0,1,70.1978759765625,228.54168701171875)"><path transform="matrix(0.0085,0,0,-0.0085,0,0)" d="M16 23L16 -3C203 -3 203 0 239 0C275 0 275 -3 468 -3L468 82C353 77 307 81 122 77L304 270C401 373 431 428 431 503C431 618 353 689 226 689C154 689 105 669 56 619L39 483L68 483L81 529C97 587 133 612 200 612C286 612 341 558 341 473C341 398 299 324 186 204Z" stroke="rgb(0,0,0)" stroke-opacity="1" stroke-width="8" fill="rgb(0,0,0)" fill-opacity="1"></path></g></g></g></g><line style="fill:none;stroke-width:0.666667px;stroke:rgb(0, 0, 0);" x1="65.9478759765625" y1="219.38541668653488" x2="78.6978759765625" y2="219.38541668653488"></line></g><g><svg x="78.6978759765625" overflow="visible" y="204.51043701171875" height="28" width="4.25"><path d=" M 0.87 0.85 c 0.00 -0.03 0.02 -0.04 0.04 -0.04 c 0.01 0.00 0.03 0.01 0.04 0.01 c 1.27 0.67 2.32 1.86 2.32 4.70 v 0.30 h -0.77 v -0.30 c 0.00 -1.62 -0.32 -3.51 -1.66 -4.53 c -0.06 -0.05 -0.06 -0.10 -0.06 -0.14 z  M 3.29 5.82 v 16.36 h -0.77 v -16.36 z" style="fill:rgb(0,0,0);fill-opacity:1;stroke-width:1px;stroke:none;stroke-opacity:1;"></path><path d=" M 0.87 27.15 c 0.00 0.03 0.02 0.04 0.04 0.04 c 0.01 0.00 0.03 -0.01 0.04 -0.01 c 1.27 -0.67 2.32 -1.86 2.32 -4.70 v -0.30 h -0.77 v 0.30 c 0.00 1.62 -0.32 3.51 -1.66 4.53 c -0.06 0.05 -0.06 0.10 -0.06 0.14 z" style="fill:rgb(0,0,0);fill-opacity:1;stroke-width:1px;stroke:none;stroke-opacity:1;"></path></svg></g></g></g><g><g><g><g><g><g><g transform="matrix(1,0,0,1,76.5103759765625,245.14584350585938)"><path transform="matrix(0.0085,0,0,-0.0085,0,0)" d="M280 181L280 106C280 46 269 32 220 30L158 27L158 -3C291 0 291 0 315 0C339 0 339 0 472 -3L472 27L424 30C375 33 364 46 364 106L364 181C423 181 444 180 472 177L472 248L364 245L365 697L285 667L2 204L2 181ZM280 245L65 245L280 597ZM1024 42C968 42 963 125 964 166C965 251 993 333 1036 405L1098 418C1101 435 1107 452 1112 467C958 461 799 463 644 466C579 467 565 389 546 340C545 332 558 331 562 328L562 332C605 395 629 405 704 405L727 405C687 266 660 129 597 -2L597 -12C617 -6 652 1 669 13C710 141 739 274 767 405L994 405C937 318 896 213 894 108C894 59 909 -15 970 -15C1011 -15 1067 25 1097 51L1097 66L1085 66L1085 67C1067 56 1047 42 1024 42Z" stroke="rgb(0,0,0)" stroke-opacity="1" stroke-width="8" fill="rgb(0,0,0)" fill-opacity="1"></path></g></g></g></g><g><g><g><g transform="matrix(1,0,0,1,79.28125,258.54168701171875)"><path transform="matrix(0.0085,0,0,-0.0085,0,0)" d="M462 224C462 345 355 366 308 374C388 436 418 482 418 541C418 630 344 689 233 689C165 689 120 670 72 622L43 498L74 498L92 554C103 588 166 622 218 622C283 622 336 569 336 506C336 431 277 368 206 368C198 368 187 369 174 370L159 371L147 318L154 312C192 329 211 334 238 334C321 334 369 281 369 190C369 88 308 21 215 21C169 21 128 36 98 64C74 86 61 109 42 163L15 153C36 92 44 56 50 6C103 -12 147 -20 184 -20C307 -20 462 87 462 224Z" stroke="rgb(0,0,0)" stroke-opacity="1" stroke-width="8" fill="rgb(0,0,0)" fill-opacity="1"></path></g></g></g></g><line style="fill:none;stroke-width:0.666667px;stroke:rgb(0, 0, 0);" x1="76.5103759765625" y1="249.38541668653488" x2="86.31245994567871" y2="249.38541668653488"></line></g><g><svg x="87.75" overflow="visible" y="234.51043701171875" height="28" width="4.25"><path d=" M 3.14 0.85 c 0.00 -0.03 -0.02 -0.04 -0.04 -0.04 c -0.01 0.00 -0.03 0.01 -0.04 0.01 c -1.27 0.67 -2.32 1.86 -2.32 4.70 v 0.30 h 0.77 v -0.30 c 0.00 -1.62 0.32 -3.51 1.66 -4.53 c 0.06 -0.05 0.06 -0.10 0.06 -0.14 z   M 0.72 5.82 v 16.36 h 0.77 v -16.36 z" style="fill:rgb(0,0,0);fill-opacity:1;stroke-width:1px;stroke:none;stroke-opacity:1;"></path><path d=" M 3.14 27.15 c 0.00 0.03 -0.02 0.04 -0.04 0.04 c -0.01 0.00 -0.03 -0.01 -0.04 -0.01 c -1.27 -0.67 -2.32 -1.86 -2.32 -4.70 v -0.30 h 0.77 v 0.30 c 0.00 1.62 0.32 3.51 1.66 4.53 c 0.06 0.05 0.06 0.10 0.06 0.14 z" style="fill:rgb(0,0,0);fill-opacity:1;stroke-width:1px;stroke:none;stroke-opacity:1;"></path></svg></g><g><g transform="matrix(1,0,0,1,91.15625,251.34375)"><path transform="matrix(0.0085,0,0,-0.0085,0,0)" d="M555 243L555 299L51 299L51 243Z" stroke="rgb(0,0,0)" stroke-opacity="1" stroke-width="8" fill="rgb(0,0,0)" fill-opacity="1"></path></g></g><g><g><g><g><g transform="matrix(1,0,0,1,97.14581298828125,245.14584350585938)"><path transform="matrix(0.0085,0,0,-0.0085,0,0)" d="M418 -3L418 27L366 30C311 33 301 44 301 96L301 700L60 598L67 548L217 614L217 96C217 44 206 33 152 30L96 27L96 -3C250 0 250 0 261 0C292 0 402 -3 418 -3Z" stroke="rgb(0,0,0)" stroke-opacity="1" stroke-width="8" fill="rgb(0,0,0)" fill-opacity="1"></path></g></g></g></g><g><g><g><g transform="matrix(1,0,0,1,97.14581298828125,258.54168701171875)"><path transform="matrix(0.0085,0,0,-0.0085,0,0)" d="M16 23L16 -3C203 -3 203 0 239 0C275 0 275 -3 468 -3L468 82C353 77 307 81 122 77L304 270C401 373 431 428 431 503C431 618 353 689 226 689C154 689 105 669 56 619L39 483L68 483L81 529C97 587 133 612 200 612C286 612 341 558 341 473C341 398 299 324 186 204Z" stroke="rgb(0,0,0)" stroke-opacity="1" stroke-width="8" fill="rgb(0,0,0)" fill-opacity="1"></path></g></g></g></g><line style="fill:none;stroke-width:0.666667px;stroke:rgb(0, 0, 0);" x1="97.14581298828125" y1="249.38541668653488" x2="101.39581298828125" y2="249.38541668653488"></line></g><g><g transform="matrix(1,0,0,1,102.23956298828125,251.34375)"><path transform="matrix(0.0085,0,0,-0.0085,0,0)" d="M204 123C177 114 159 108 106 93C99 17 74 -48 16 -144L30 -155L71 -136C152 -31 190 32 218 109Z" stroke="rgb(0,0,0)" stroke-opacity="1" stroke-width="8" fill="rgb(0,0,0)" fill-opacity="1"></path></g></g><g><g transform="matrix(1,0,0,1,107.7603759765625,251.34375)"><path transform="matrix(0.0085,0,0,-0.0085,0,0)" d="M555 243L555 299L51 299L51 243Z" stroke="rgb(0,0,0)" stroke-opacity="1" stroke-width="8" fill="rgb(0,0,0)" fill-opacity="1"></path></g></g><g><g><g><g><g><g><g><g transform="matrix(1,0,0,1,123.9478759765625,245.14584350585938)"><path transform="matrix(0.0085,0,0,-0.0085,0,0)" d="M462 224C462 345 355 366 308 374C388 436 418 482 418 541C418 630 344 689 233 689C165 689 120 670 72 622L43 498L74 498L92 554C103 588 166 622 218 622C283 622 336 569 336 506C336 431 277 368 206 368C198 368 187 369 174 370L159 371L147 318L154 312C192 329 211 334 238 334C321 334 369 281 369 190C369 88 308 21 215 21C169 21 128 36 98 64C74 86 61 109 42 163L15 153C36 92 44 56 50 6C103 -12 147 -20 184 -20C307 -20 462 87 462 224Z" stroke="rgb(0,0,0)" stroke-opacity="1" stroke-width="8" fill="rgb(0,0,0)" fill-opacity="1"></path></g></g></g></g><svg x="115.4478759765625" overflow="visible" y="236.3125" height="8.5" width="12.75"><polygon points="0.18,5.14 2.39,3.96 4.83,9.13 8.18,0.00 12.75,0.00 12.75,0.53 8.59,0.53 4.59,11.29 1.55,4.92 0.32,5.38" style="fill:rgb(0,0,0);fill-opacity:1;stroke-width:1px;stroke:none;stroke-opacity:1;"></polygon></svg></g></g></g><g><g><g><g transform="matrix(1,0,0,1,119.6978759765625,258.54168701171875)"><path transform="matrix(0.0085,0,0,-0.0085,0,0)" d="M16 23L16 -3C203 -3 203 0 239 0C275 0 275 -3 468 -3L468 82C353 77 307 81 122 77L304 270C401 373 431 428 431 503C431 618 353 689 226 689C154 689 105 669 56 619L39 483L68 483L81 529C97 587 133 612 200 612C286 612 341 558 341 473C341 398 299 324 186 204Z" stroke="rgb(0,0,0)" stroke-opacity="1" stroke-width="8" fill="rgb(0,0,0)" fill-opacity="1"></path></g></g></g></g><line style="fill:none;stroke-width:0.666667px;stroke:rgb(0, 0, 0);" x1="115.4478759765625" y1="249.38541668653488" x2="128.1978759765625" y2="249.38541668653488"></line></g><g><svg x="128.1978759765625" overflow="visible" y="234.51043701171875" height="28" width="4.25"><path d=" M 0.87 0.85 c 0.00 -0.03 0.02 -0.04 0.04 -0.04 c 0.01 0.00 0.03 0.01 0.04 0.01 c 1.27 0.67 2.32 1.86 2.32 4.70 v 0.30 h -0.77 v -0.30 c 0.00 -1.62 -0.32 -3.51 -1.66 -4.53 c -0.06 -0.05 -0.06 -0.10 -0.06 -0.14 z  M 3.29 5.82 v 16.36 h -0.77 v -16.36 z" style="fill:rgb(0,0,0);fill-opacity:1;stroke-width:1px;stroke:none;stroke-opacity:1;"></path><path d=" M 0.87 27.15 c 0.00 0.03 0.02 0.04 0.04 0.04 c 0.01 0.00 0.03 -0.01 0.04 -0.01 c 1.27 -0.67 2.32 -1.86 2.32 -4.70 v -0.30 h -0.77 v 0.30 c 0.00 1.62 -0.32 3.51 -1.66 4.53 c -0.06 0.05 -0.06 0.10 -0.06 0.14 z" style="fill:rgb(0,0,0);fill-opacity:1;stroke-width:1px;stroke:none;stroke-opacity:1;"></path></svg></g></g></g><g><g><g><g><g><g><g transform="matrix(1,0,0,1,149.5103759765625,265.5)"><path transform="matrix(0.0085,0,0,-0.0085,0,0)" d="M462 224C462 345 355 366 308 374C388 436 418 482 418 541C418 630 344 689 233 689C165 689 120 670 72 622L43 498L74 498L92 554C103 588 166 622 218 622C283 622 336 569 336 506C336 431 277 368 206 368C198 368 187 369 174 370L159 371L147 318L154 312C192 329 211 334 238 334C321 334 369 281 369 190C369 88 308 21 215 21C169 21 128 36 98 64C74 86 61 109 42 163L15 153C36 92 44 56 50 6C103 -12 147 -20 184 -20C307 -20 462 87 462 224ZM1024 42C968 42 963 125 964 166C965 251 993 333 1036 405L1098 418C1101 435 1107 452 1112 467C958 461 799 463 644 466C579 467 565 389 546 340C545 332 558 331 562 328L562 332C605 395 629 405 704 405L727 405C687 266 660 129 597 -2L597 -12C617 -6 652 1 669 13C710 141 739 274 767 405L994 405C937 318 896 213 894 108C894 59 909 -15 970 -15C1011 -15 1067 25 1097 51L1097 66L1085 66L1085 67C1067 56 1047 42 1024 42Z" stroke="rgb(0,0,0)" stroke-opacity="1" stroke-width="8" fill="rgb(0,0,0)" fill-opacity="1"></path></g></g></g></g><g><g><g><g transform="matrix(1,0,0,1,152.28125,278.8958435058594)"><path transform="matrix(0.0085,0,0,-0.0085,0,0)" d="M16 23L16 -3C203 -3 203 0 239 0C275 0 275 -3 468 -3L468 82C353 77 307 81 122 77L304 270C401 373 431 428 431 503C431 618 353 689 226 689C154 689 105 669 56 619L39 483L68 483L81 529C97 587 133 612 200 612C286 612 341 558 341 473C341 398 299 324 186 204Z" stroke="rgb(0,0,0)" stroke-opacity="1" stroke-width="8" fill="rgb(0,0,0)" fill-opacity="1"></path></g></g></g></g><line style="fill:none;stroke-width:0.666667px;stroke:rgb(0, 0, 0);" x1="149.5103759765625" y1="269.73960369825363" x2="159.3124599456787" y2="269.73960369825363"></line></g><g><g transform="matrix(1,0,0,1,160.15625,272.3645935058594)"><path transform="matrix(0.0085,0,0,-0.0085,0,0)" d="M146 266C146 526 243 632 301 700L282 726C225 675 60 542 60 266C60 159 85 58 133 -32C168 -99 200 -138 282 -215L301 -194C255 -137 146 -15 146 266Z" stroke="rgb(0,0,0)" stroke-opacity="1" stroke-width="8" fill="rgb(0,0,0)" fill-opacity="1"></path></g></g><g><g transform="matrix(1,0,0,1,162.9791259765625,271.69793701171875)"><path transform="matrix(0.0085,0,0,-0.0085,0,0)" d="M263 689C108 689 29 566 29 324C29 207 50 106 85 57C120 8 176 -20 238 -20C389 -20 465 110 465 366C465 585 400 689 263 689ZM245 654C342 654 381 556 381 316C381 103 343 15 251 15C154 15 113 116 113 360C113 571 150 654 245 654Z" stroke="rgb(0,0,0)" stroke-opacity="1" stroke-width="8" fill="rgb(0,0,0)" fill-opacity="1"></path></g></g><g><g transform="matrix(1,0,0,1,167.2291259765625,271.69793701171875)"><path transform="matrix(0.0085,0,0,-0.0085,0,0)" d="M204 123C177 114 159 108 106 93C99 17 74 -48 16 -144L30 -155L71 -136C152 -31 190 32 218 109Z" stroke="rgb(0,0,0)" stroke-opacity="1" stroke-width="8" fill="rgb(0,0,0)" fill-opacity="1"></path></g></g><g><g transform="matrix(1,0,0,1,171.05206298828125,271.69793701171875)"><path transform="matrix(0.0085,0,0,-0.0085,0,0)" d="M555 243L555 299L51 299L51 243Z" stroke="rgb(0,0,0)" stroke-opacity="1" stroke-width="8" fill="rgb(0,0,0)" fill-opacity="1"></path></g></g><g><g transform="matrix(1,0,0,1,176.1978759765625,271.69793701171875)"><path transform="matrix(0.0085,0,0,-0.0085,0,0)" d="M418 -3L418 27L366 30C311 33 301 44 301 96L301 700L60 598L67 548L217 614L217 96C217 44 206 33 152 30L96 27L96 -3C250 0 250 0 261 0C292 0 402 -3 418 -3Z" stroke="rgb(0,0,0)" stroke-opacity="1" stroke-width="8" fill="rgb(0,0,0)" fill-opacity="1"></path></g></g><g><g transform="matrix(1,0,0,1,180.4478759765625,272.3645935058594)"><path transform="matrix(0.0085,0,0,-0.0085,0,0)" d="M51 726L32 700C87 636 187 526 187 266C187 -10 83 -131 32 -194L51 -215C104 -165 273 -23 273 265C273 542 108 675 51 726Z" stroke="rgb(0,0,0)" stroke-opacity="1" stroke-width="8" fill="rgb(0,0,0)" fill-opacity="1"></path></g></g></g></g><g><g><g><g><g><g><g transform="matrix(1,0,0,1,198.5103759765625,243.60418701171875)"><path transform="matrix(0.0085,0,0,-0.0085,0,0)" d="M459 253C459 366 378 446 264 446C216 446 180 443 127 396L127 605L432 604L432 689L75 690L75 322L95 316C142 363 169 377 218 377C314 377 374 309 374 201C374 90 310 25 201 25C147 25 97 43 83 69L37 151L13 137C36 80 48 48 62 4C90 -11 130 -20 173 -20C301 -20 459 89 459 253ZM1024 42C968 42 963 125 964 166C965 251 993 333 1036 405L1098 418C1101 435 1107 452 1112 467C958 461 799 463 644 466C579 467 565 389 546 340C545 332 558 331 562 328L562 332C605 395 629 405 704 405L727 405C687 266 660 129 597 -2L597 -12C617 -6 652 1 669 13C710 141 739 274 767 405L994 405C937 318 896 213 894 108C894 59 909 -15 970 -15C1011 -15 1067 25 1097 51L1097 66L1085 66L1085 67C1067 56 1047 42 1024 42Z" stroke="rgb(0,0,0)" stroke-opacity="1" stroke-width="8" fill="rgb(0,0,0)" fill-opacity="1"></path></g></g></g></g><g><g><g><g transform="matrix(1,0,0,1,201.28125,257)"><path transform="matrix(0.0085,0,0,-0.0085,0,0)" d="M462 224C462 345 355 366 308 374C388 436 418 482 418 541C418 630 344 689 233 689C165 689 120 670 72 622L43 498L74 498L92 554C103 588 166 622 218 622C283 622 336 569 336 506C336 431 277 368 206 368C198 368 187 369 174 370L159 371L147 318L154 312C192 329 211 334 238 334C321 334 369 281 369 190C369 88 308 21 215 21C169 21 128 36 98 64C74 86 61 109 42 163L15 153C36 92 44 56 50 6C103 -12 147 -20 184 -20C307 -20 462 87 462 224Z" stroke="rgb(0,0,0)" stroke-opacity="1" stroke-width="8" fill="rgb(0,0,0)" fill-opacity="1"></path></g></g></g></g><line style="fill:none;stroke-width:0.666667px;stroke:rgb(0, 0, 0);" x1="198.5103759765625" y1="247.84376019239426" x2="208.3124599456787" y2="247.84376019239426"></line></g><g><svg x="209.75" overflow="visible" y="232.96875" height="28" width="4.25"><path d=" M 3.14 0.85 c 0.00 -0.03 -0.02 -0.04 -0.04 -0.04 c -0.01 0.00 -0.03 0.01 -0.04 0.01 c -1.27 0.67 -2.32 1.86 -2.32 4.70 v 0.30 h 0.77 v -0.30 c 0.00 -1.62 0.32 -3.51 1.66 -4.53 c 0.06 -0.05 0.06 -0.10 0.06 -0.14 z   M 0.72 5.82 v 16.36 h 0.77 v -16.36 z" style="fill:rgb(0,0,0);fill-opacity:1;stroke-width:1px;stroke:none;stroke-opacity:1;"></path><path d=" M 3.14 27.15 c 0.00 0.03 -0.02 0.04 -0.04 0.04 c -0.01 0.00 -0.03 -0.01 -0.04 -0.01 c -1.27 -0.67 -2.32 -1.86 -2.32 -4.70 v -0.30 h 0.77 v 0.30 c 0.00 1.62 0.32 3.51 1.66 4.53 c 0.06 0.05 0.06 0.10 0.06 0.14 z" style="fill:rgb(0,0,0);fill-opacity:1;stroke-width:1px;stroke:none;stroke-opacity:1;"></path></svg></g><g><g><g><g><g transform="matrix(1,0,0,1,214,243.60418701171875)"><path transform="matrix(0.0085,0,0,-0.0085,0,0)" d="M418 -3L418 27L366 30C311 33 301 44 301 96L301 700L60 598L67 548L217 614L217 96C217 44 206 33 152 30L96 27L96 -3C250 0 250 0 261 0C292 0 402 -3 418 -3Z" stroke="rgb(0,0,0)" stroke-opacity="1" stroke-width="8" fill="rgb(0,0,0)" fill-opacity="1"></path></g></g></g></g><g><g><g><g transform="matrix(1,0,0,1,214,257)"><path transform="matrix(0.0085,0,0,-0.0085,0,0)" d="M16 23L16 -3C203 -3 203 0 239 0C275 0 275 -3 468 -3L468 82C353 77 307 81 122 77L304 270C401 373 431 428 431 503C431 618 353 689 226 689C154 689 105 669 56 619L39 483L68 483L81 529C97 587 133 612 200 612C286 612 341 558 341 473C341 398 299 324 186 204Z" stroke="rgb(0,0,0)" stroke-opacity="1" stroke-width="8" fill="rgb(0,0,0)" fill-opacity="1"></path></g></g></g></g><line style="fill:none;stroke-width:0.666667px;stroke:rgb(0, 0, 0);" x1="214" y1="247.84376019239426" x2="218.25" y2="247.84376019239426"></line></g><g><g transform="matrix(1,0,0,1,219.09375,249.80209350585938)"><path transform="matrix(0.0085,0,0,-0.0085,0,0)" d="M204 123C177 114 159 108 106 93C99 17 74 -48 16 -144L30 -155L71 -136C152 -31 190 32 218 109Z" stroke="rgb(0,0,0)" stroke-opacity="1" stroke-width="8" fill="rgb(0,0,0)" fill-opacity="1"></path></g></g><g><g transform="matrix(1,0,0,1,224.61456298828125,249.80209350585938)"><path transform="matrix(0.0085,0,0,-0.0085,0,0)" d="M555 243L555 299L51 299L51 243Z" stroke="rgb(0,0,0)" stroke-opacity="1" stroke-width="8" fill="rgb(0,0,0)" fill-opacity="1"></path></g></g><g><g><g><g><g><g><g><g transform="matrix(1,0,0,1,240.80206298828125,243.60418701171875)"><path transform="matrix(0.0085,0,0,-0.0085,0,0)" d="M462 224C462 345 355 366 308 374C388 436 418 482 418 541C418 630 344 689 233 689C165 689 120 670 72 622L43 498L74 498L92 554C103 588 166 622 218 622C283 622 336 569 336 506C336 431 277 368 206 368C198 368 187 369 174 370L159 371L147 318L154 312C192 329 211 334 238 334C321 334 369 281 369 190C369 88 308 21 215 21C169 21 128 36 98 64C74 86 61 109 42 163L15 153C36 92 44 56 50 6C103 -12 147 -20 184 -20C307 -20 462 87 462 224Z" stroke="rgb(0,0,0)" stroke-opacity="1" stroke-width="8" fill="rgb(0,0,0)" fill-opacity="1"></path></g></g></g></g><svg x="232.30206298828125" overflow="visible" y="234.77084350585938" height="8.5" width="12.75"><polygon points="0.18,5.14 2.39,3.96 4.83,9.13 8.18,0.00 12.75,0.00 12.75,0.53 8.59,0.53 4.59,11.29 1.55,4.92 0.32,5.38" style="fill:rgb(0,0,0);fill-opacity:1;stroke-width:1px;stroke:none;stroke-opacity:1;"></polygon></svg></g></g></g><g><g><g><g transform="matrix(1,0,0,1,236.55206298828125,257)"><path transform="matrix(0.0085,0,0,-0.0085,0,0)" d="M16 23L16 -3C203 -3 203 0 239 0C275 0 275 -3 468 -3L468 82C353 77 307 81 122 77L304 270C401 373 431 428 431 503C431 618 353 689 226 689C154 689 105 669 56 619L39 483L68 483L81 529C97 587 133 612 200 612C286 612 341 558 341 473C341 398 299 324 186 204Z" stroke="rgb(0,0,0)" stroke-opacity="1" stroke-width="8" fill="rgb(0,0,0)" fill-opacity="1"></path></g></g></g></g><line style="fill:none;stroke-width:0.666667px;stroke:rgb(0, 0, 0);" x1="232.30206298828125" y1="247.84376019239426" x2="245.05206298828125" y2="247.84376019239426"></line></g><g><svg x="245.05206298828125" overflow="visible" y="232.96875" height="28" width="4.25"><path d=" M 0.87 0.85 c 0.00 -0.03 0.02 -0.04 0.04 -0.04 c 0.01 0.00 0.03 0.01 0.04 0.01 c 1.27 0.67 2.32 1.86 2.32 4.70 v 0.30 h -0.77 v -0.30 c 0.00 -1.62 -0.32 -3.51 -1.66 -4.53 c -0.06 -0.05 -0.06 -0.10 -0.06 -0.14 z  M 3.29 5.82 v 16.36 h -0.77 v -16.36 z" style="fill:rgb(0,0,0);fill-opacity:1;stroke-width:1px;stroke:none;stroke-opacity:1;"></path><path d=" M 0.87 27.15 c 0.00 0.03 0.02 0.04 0.04 0.04 c 0.01 0.00 0.03 -0.01 0.04 -0.01 c 1.27 -0.67 2.32 -1.86 2.32 -4.70 v -0.30 h -0.77 v 0.30 c 0.00 1.62 -0.32 3.51 -1.66 4.53 c -0.06 0.05 -0.06 0.10 -0.06 0.14 z" style="fill:rgb(0,0,0);fill-opacity:1;stroke-width:1px;stroke:none;stroke-opacity:1;"></path></svg></g></g></g><g><g><g><g><g><g><g transform="matrix(1,0,0,1,240.1666259765625,214.14584350585938)"><path transform="matrix(0.0085,0,0,-0.0085,0,0)" d="M409 603L47 -1L157 -1L497 659L497 689L44 689L44 477L74 477L81 533C89 595 96 603 142 603ZM1024 42C968 42 963 125 964 166C965 251 993 333 1036 405L1098 418C1101 435 1107 452 1112 467C958 461 799 463 644 466C579 467 565 389 546 340C545 332 558 331 562 328L562 332C605 395 629 405 704 405L727 405C687 266 660 129 597 -2L597 -12C617 -6 652 1 669 13C710 141 739 274 767 405L994 405C937 318 896 213 894 108C894 59 909 -15 970 -15C1011 -15 1067 25 1097 51L1097 66L1085 66L1085 67C1067 56 1047 42 1024 42Z" stroke="rgb(0,0,0)" stroke-opacity="1" stroke-width="8" fill="rgb(0,0,0)" fill-opacity="1"></path></g></g></g></g><g><g><g><g transform="matrix(1,0,0,1,242.9375,227.54168701171875)"><path transform="matrix(0.0085,0,0,-0.0085,0,0)" d="M280 181L280 106C280 46 269 32 220 30L158 27L158 -3C291 0 291 0 315 0C339 0 339 0 472 -3L472 27L424 30C375 33 364 46 364 106L364 181C423 181 444 180 472 177L472 248L364 245L365 697L285 667L2 204L2 181ZM280 245L65 245L280 597Z" stroke="rgb(0,0,0)" stroke-opacity="1" stroke-width="8" fill="rgb(0,0,0)" fill-opacity="1"></path></g></g></g></g><line style="fill:none;stroke-width:0.666667px;stroke:rgb(0, 0, 0);" x1="240.1666259765625" y1="218.38541668653488" x2="249.9687099456787" y2="218.38541668653488"></line></g><g><svg x="251.40625" overflow="visible" y="203.51043701171875" height="28" width="4.25"><path d=" M 3.14 0.85 c 0.00 -0.03 -0.02 -0.04 -0.04 -0.04 c -0.01 0.00 -0.03 0.01 -0.04 0.01 c -1.27 0.67 -2.32 1.86 -2.32 4.70 v 0.30 h 0.77 v -0.30 c 0.00 -1.62 0.32 -3.51 1.66 -4.53 c 0.06 -0.05 0.06 -0.10 0.06 -0.14 z   M 0.72 5.82 v 16.36 h 0.77 v -16.36 z" style="fill:rgb(0,0,0);fill-opacity:1;stroke-width:1px;stroke:none;stroke-opacity:1;"></path><path d=" M 3.14 27.15 c 0.00 0.03 -0.02 0.04 -0.04 0.04 c -0.01 0.00 -0.03 -0.01 -0.04 -0.01 c -1.27 -0.67 -2.32 -1.86 -2.32 -4.70 v -0.30 h 0.77 v 0.30 c 0.00 1.62 0.32 3.51 1.66 4.53 c 0.06 0.05 0.06 0.10 0.06 0.14 z" style="fill:rgb(0,0,0);fill-opacity:1;stroke-width:1px;stroke:none;stroke-opacity:1;"></path></svg></g><g><g><g><g><g><g><g><g transform="matrix(1,0,0,1,264.15625,214.14584350585938)"><path transform="matrix(0.0085,0,0,-0.0085,0,0)" d="M16 23L16 -3C203 -3 203 0 239 0C275 0 275 -3 468 -3L468 82C353 77 307 81 122 77L304 270C401 373 431 428 431 503C431 618 353 689 226 689C154 689 105 669 56 619L39 483L68 483L81 529C97 587 133 612 200 612C286 612 341 558 341 473C341 398 299 324 186 204Z" stroke="rgb(0,0,0)" stroke-opacity="1" stroke-width="8" fill="rgb(0,0,0)" fill-opacity="1"></path></g></g></g></g><svg x="255.65625" overflow="visible" y="205.3125" height="8.5" width="12.75"><polygon points="0.18,5.14 2.39,3.96 4.83,9.13 8.18,0.00 12.75,0.00 12.75,0.53 8.59,0.53 4.59,11.29 1.55,4.92 0.32,5.38" style="fill:rgb(0,0,0);fill-opacity:1;stroke-width:1px;stroke:none;stroke-opacity:1;"></polygon></svg></g></g></g><g><g><g><g transform="matrix(1,0,0,1,259.90625,227.54168701171875)"><path transform="matrix(0.0085,0,0,-0.0085,0,0)" d="M16 23L16 -3C203 -3 203 0 239 0C275 0 275 -3 468 -3L468 82C353 77 307 81 122 77L304 270C401 373 431 428 431 503C431 618 353 689 226 689C154 689 105 669 56 619L39 483L68 483L81 529C97 587 133 612 200 612C286 612 341 558 341 473C341 398 299 324 186 204Z" stroke="rgb(0,0,0)" stroke-opacity="1" stroke-width="8" fill="rgb(0,0,0)" fill-opacity="1"></path></g></g></g></g><line style="fill:none;stroke-width:0.666667px;stroke:rgb(0, 0, 0);" x1="255.65625" y1="218.38541668653488" x2="268.40625" y2="218.38541668653488"></line></g><g><g transform="matrix(1,0,0,1,269.25,220.34375)"><path transform="matrix(0.0085,0,0,-0.0085,0,0)" d="M204 123C177 114 159 108 106 93C99 17 74 -48 16 -144L30 -155L71 -136C152 -31 190 32 218 109Z" stroke="rgb(0,0,0)" stroke-opacity="1" stroke-width="8" fill="rgb(0,0,0)" fill-opacity="1"></path></g></g><g><g transform="matrix(1,0,0,1,274.77081298828125,220.34375)"><path transform="matrix(0.0085,0,0,-0.0085,0,0)" d="M555 243L555 299L51 299L51 243Z" stroke="rgb(0,0,0)" stroke-opacity="1" stroke-width="8" fill="rgb(0,0,0)" fill-opacity="1"></path></g></g><g><g><g><g><g><g><g><g transform="matrix(1,0,0,1,290.95831298828125,214.14584350585938)"><path transform="matrix(0.0085,0,0,-0.0085,0,0)" d="M16 23L16 -3C203 -3 203 0 239 0C275 0 275 -3 468 -3L468 82C353 77 307 81 122 77L304 270C401 373 431 428 431 503C431 618 353 689 226 689C154 689 105 669 56 619L39 483L68 483L81 529C97 587 133 612 200 612C286 612 341 558 341 473C341 398 299 324 186 204Z" stroke="rgb(0,0,0)" stroke-opacity="1" stroke-width="8" fill="rgb(0,0,0)" fill-opacity="1"></path></g></g></g></g><svg x="282.45831298828125" overflow="visible" y="205.3125" height="8.5" width="12.75"><polygon points="0.18,5.14 2.39,3.96 4.83,9.13 8.18,0.00 12.75,0.00 12.75,0.53 8.59,0.53 4.59,11.29 1.55,4.92 0.32,5.38" style="fill:rgb(0,0,0);fill-opacity:1;stroke-width:1px;stroke:none;stroke-opacity:1;"></polygon></svg></g></g></g><g><g><g><g transform="matrix(1,0,0,1,286.70831298828125,227.54168701171875)"><path transform="matrix(0.0085,0,0,-0.0085,0,0)" d="M16 23L16 -3C203 -3 203 0 239 0C275 0 275 -3 468 -3L468 82C353 77 307 81 122 77L304 270C401 373 431 428 431 503C431 618 353 689 226 689C154 689 105 669 56 619L39 483L68 483L81 529C97 587 133 612 200 612C286 612 341 558 341 473C341 398 299 324 186 204Z" stroke="rgb(0,0,0)" stroke-opacity="1" stroke-width="8" fill="rgb(0,0,0)" fill-opacity="1"></path></g></g></g></g><line style="fill:none;stroke-width:0.666667px;stroke:rgb(0, 0, 0);" x1="282.45831298828125" y1="218.38541668653488" x2="295.20831298828125" y2="218.38541668653488"></line></g><g><svg x="295.20831298828125" overflow="visible" y="203.51043701171875" height="28" width="4.25"><path d=" M 0.87 0.85 c 0.00 -0.03 0.02 -0.04 0.04 -0.04 c 0.01 0.00 0.03 0.01 0.04 0.01 c 1.27 0.67 2.32 1.86 2.32 4.70 v 0.30 h -0.77 v -0.30 c 0.00 -1.62 -0.32 -3.51 -1.66 -4.53 c -0.06 -0.05 -0.06 -0.10 -0.06 -0.14 z  M 3.29 5.82 v 16.36 h -0.77 v -16.36 z" style="fill:rgb(0,0,0);fill-opacity:1;stroke-width:1px;stroke:none;stroke-opacity:1;"></path><path d=" M 0.87 27.15 c 0.00 0.03 0.02 0.04 0.04 0.04 c 0.01 0.00 0.03 -0.01 0.04 -0.01 c 1.27 -0.67 2.32 -1.86 2.32 -4.70 v -0.30 h -0.77 v 0.30 c 0.00 1.62 -0.32 3.51 -1.66 4.53 c -0.06 0.05 -0.06 0.10 -0.06 0.14 z" style="fill:rgb(0,0,0);fill-opacity:1;stroke-width:1px;stroke:none;stroke-opacity:1;"></path></svg></g></g></g><g><g><g><g><g><g><g transform="matrix(1,0,0,1,257.6666259765625,172.14584350585938)"><path transform="matrix(0.0085,0,0,-0.0085,0,0)" d="M418 -3L418 27L366 30C311 33 301 44 301 96L301 700L60 598L67 548L217 614L217 96C217 44 206 33 152 30L96 27L96 -3C250 0 250 0 261 0C292 0 402 -3 418 -3ZM917 -3L917 27L865 30C810 33 800 44 800 96L800 700L559 598L566 548L716 614L716 96C716 44 705 33 651 30L595 27L595 -3C749 0 749 0 760 0C791 0 901 -3 917 -3ZM1523 42C1467 42 1462 125 1463 166C1464 251 1492 333 1535 405L1597 418C1600 435 1606 452 1611 467C1457 461 1298 463 1143 466C1078 467 1064 389 1045 340C1044 332 1057 331 1061 328L1061 332C1104 395 1128 405 1203 405L1226 405C1186 266 1159 129 1096 -2L1096 -12C1116 -6 1151 1 1168 13C1209 141 1238 274 1266 405L1493 405C1436 318 1395 213 1393 108C1393 59 1408 -15 1469 -15C1510 -15 1566 25 1596 51L1596 66L1584 66L1584 67C1566 56 1546 42 1523 42Z" stroke="rgb(0,0,0)" stroke-opacity="1" stroke-width="8" fill="rgb(0,0,0)" fill-opacity="1"></path></g></g></g></g><g><g><g><g transform="matrix(1,0,0,1,262.5625,185.54168701171875)"><path transform="matrix(0.0085,0,0,-0.0085,0,0)" d="M131 331C152 512 241 611 421 665L379 689C283 657 242 637 191 593C88 506 32 384 32 247C32 82 112 -20 241 -20C371 -20 468 83 468 219C468 334 399 409 293 409C216 409 184 370 131 331ZM255 349C331 349 382 283 382 184C382 80 331 13 254 13C169 13 123 86 123 220C123 255 127 274 138 291C160 325 207 349 255 349Z" stroke="rgb(0,0,0)" stroke-opacity="1" stroke-width="8" fill="rgb(0,0,0)" fill-opacity="1"></path></g></g></g></g><line style="fill:none;stroke-width:0.666667px;stroke:rgb(0, 0, 0);" x1="257.6666259765625" y1="176.38541668653488" x2="271.7082929611206" y2="176.38541668653488"></line></g><g><svg x="273.14581298828125" overflow="visible" y="161.51043701171875" height="28" width="4.25"><path d=" M 3.14 0.85 c 0.00 -0.03 -0.02 -0.04 -0.04 -0.04 c -0.01 0.00 -0.03 0.01 -0.04 0.01 c -1.27 0.67 -2.32 1.86 -2.32 4.70 v 0.30 h 0.77 v -0.30 c 0.00 -1.62 0.32 -3.51 1.66 -4.53 c 0.06 -0.05 0.06 -0.10 0.06 -0.14 z   M 0.72 5.82 v 16.36 h 0.77 v -16.36 z" style="fill:rgb(0,0,0);fill-opacity:1;stroke-width:1px;stroke:none;stroke-opacity:1;"></path><path d=" M 3.14 27.15 c 0.00 0.03 -0.02 0.04 -0.04 0.04 c -0.01 0.00 -0.03 -0.01 -0.04 -0.01 c -1.27 -0.67 -2.32 -1.86 -2.32 -4.70 v -0.30 h 0.77 v 0.30 c 0.00 1.62 0.32 3.51 1.66 4.53 c 0.06 0.05 0.06 0.10 0.06 0.14 z" style="fill:rgb(0,0,0);fill-opacity:1;stroke-width:1px;stroke:none;stroke-opacity:1;"></path></svg></g><g><g><g><g><g><g><g><g transform="matrix(1,0,0,1,285.89581298828125,172.14584350585938)"><path transform="matrix(0.0085,0,0,-0.0085,0,0)" d="M462 224C462 345 355 366 308 374C388 436 418 482 418 541C418 630 344 689 233 689C165 689 120 670 72 622L43 498L74 498L92 554C103 588 166 622 218 622C283 622 336 569 336 506C336 431 277 368 206 368C198 368 187 369 174 370L159 371L147 318L154 312C192 329 211 334 238 334C321 334 369 281 369 190C369 88 308 21 215 21C169 21 128 36 98 64C74 86 61 109 42 163L15 153C36 92 44 56 50 6C103 -12 147 -20 184 -20C307 -20 462 87 462 224Z" stroke="rgb(0,0,0)" stroke-opacity="1" stroke-width="8" fill="rgb(0,0,0)" fill-opacity="1"></path></g></g></g></g><svg x="277.39581298828125" overflow="visible" y="163.3125" height="8.5" width="12.75"><polygon points="0.18,5.14 2.39,3.96 4.83,9.13 8.18,0.00 12.75,0.00 12.75,0.53 8.59,0.53 4.59,11.29 1.55,4.92 0.32,5.38" style="fill:rgb(0,0,0);fill-opacity:1;stroke-width:1px;stroke:none;stroke-opacity:1;"></polygon></svg></g></g></g><g><g><g><g transform="matrix(1,0,0,1,281.64581298828125,185.54168701171875)"><path transform="matrix(0.0085,0,0,-0.0085,0,0)" d="M16 23L16 -3C203 -3 203 0 239 0C275 0 275 -3 468 -3L468 82C353 77 307 81 122 77L304 270C401 373 431 428 431 503C431 618 353 689 226 689C154 689 105 669 56 619L39 483L68 483L81 529C97 587 133 612 200 612C286 612 341 558 341 473C341 398 299 324 186 204Z" stroke="rgb(0,0,0)" stroke-opacity="1" stroke-width="8" fill="rgb(0,0,0)" fill-opacity="1"></path></g></g></g></g><line style="fill:none;stroke-width:0.666667px;stroke:rgb(0, 0, 0);" x1="277.39581298828125" y1="176.38541668653488" x2="290.14581298828125" y2="176.38541668653488"></line></g><g><g transform="matrix(1,0,0,1,290.98956298828125,178.34375)"><path transform="matrix(0.0085,0,0,-0.0085,0,0)" d="M204 123C177 114 159 108 106 93C99 17 74 -48 16 -144L30 -155L71 -136C152 -31 190 32 218 109Z" stroke="rgb(0,0,0)" stroke-opacity="1" stroke-width="8" fill="rgb(0,0,0)" fill-opacity="1"></path></g></g><g><g transform="matrix(1,0,0,1,296.5103759765625,178.34375)"><path transform="matrix(0.0085,0,0,-0.0085,0,0)" d="M555 243L555 299L51 299L51 243Z" stroke="rgb(0,0,0)" stroke-opacity="1" stroke-width="8" fill="rgb(0,0,0)" fill-opacity="1"></path></g></g><g><g><g><g><g transform="matrix(1,0,0,1,304.1978759765625,172.14584350585938)"><path transform="matrix(0.0085,0,0,-0.0085,0,0)" d="M418 -3L418 27L366 30C311 33 301 44 301 96L301 700L60 598L67 548L217 614L217 96C217 44 206 33 152 30L96 27L96 -3C250 0 250 0 261 0C292 0 402 -3 418 -3Z" stroke="rgb(0,0,0)" stroke-opacity="1" stroke-width="8" fill="rgb(0,0,0)" fill-opacity="1"></path></g></g></g></g><g><g><g><g transform="matrix(1,0,0,1,304.1978759765625,185.54168701171875)"><path transform="matrix(0.0085,0,0,-0.0085,0,0)" d="M16 23L16 -3C203 -3 203 0 239 0C275 0 275 -3 468 -3L468 82C353 77 307 81 122 77L304 270C401 373 431 428 431 503C431 618 353 689 226 689C154 689 105 669 56 619L39 483L68 483L81 529C97 587 133 612 200 612C286 612 341 558 341 473C341 398 299 324 186 204Z" stroke="rgb(0,0,0)" stroke-opacity="1" stroke-width="8" fill="rgb(0,0,0)" fill-opacity="1"></path></g></g></g></g><line style="fill:none;stroke-width:0.666667px;stroke:rgb(0, 0, 0);" x1="304.1978759765625" y1="176.38541668653488" x2="308.4478759765625" y2="176.38541668653488"></line></g><g><svg x="308.4478759765625" overflow="visible" y="161.51043701171875" height="28" width="4.25"><path d=" M 0.87 0.85 c 0.00 -0.03 0.02 -0.04 0.04 -0.04 c 0.01 0.00 0.03 0.01 0.04 0.01 c 1.27 0.67 2.32 1.86 2.32 4.70 v 0.30 h -0.77 v -0.30 c 0.00 -1.62 -0.32 -3.51 -1.66 -4.53 c -0.06 -0.05 -0.06 -0.10 -0.06 -0.14 z  M 3.29 5.82 v 16.36 h -0.77 v -16.36 z" style="fill:rgb(0,0,0);fill-opacity:1;stroke-width:1px;stroke:none;stroke-opacity:1;"></path><path d=" M 0.87 27.15 c 0.00 0.03 0.02 0.04 0.04 0.04 c 0.01 0.00 0.03 -0.01 0.04 -0.01 c 1.27 -0.67 2.32 -1.86 2.32 -4.70 v -0.30 h -0.77 v 0.30 c 0.00 1.62 -0.32 3.51 -1.66 4.53 c -0.06 0.05 -0.06 0.10 -0.06 0.14 z" style="fill:rgb(0,0,0);fill-opacity:1;stroke-width:1px;stroke:none;stroke-opacity:1;"></path></svg></g></g></g></svg>
</svg>
