<svg xmlns="http://www.w3.org/2000/svg" xmlns:xlink="http://www.w3.org/1999/xlink" x="0" y="0" width="495" height="224.65625" style="
        width:495px;
        height:224.65625px;
        background: transparent;
        fill: none;
">
        <svg xmlns="http://www.w3.org/2000/svg"/>
        
        <svg xmlns="http://www.w3.org/2000/svg" class="role-diagram-draw-area"><g class="shapes-region" style="stroke: black; fill: none;"><g class="composite-shape"><path class="real" d=" M210,53 L244,182 L27,182 Z" style="stroke-width: 1; stroke: rgb(0, 0, 0); fill: none; fill-opacity: 1;"/></g><g/></g><g/><g/><g/></svg>
        <svg xmlns="http://www.w3.org/2000/svg" xmlns:xlink="http://www.w3.org/1999/xlink" width="493" height="222.65625" style="width:493px;height:222.65625px;font-family:Asana-Math, Asana;background:transparent;"><g><g><g><g transform="matrix(1,0,0,1,8,188.4)"><path transform="matrix(0.020399999999999998,0,0,-0.020399999999999998,0,0)" d="M567 55C567 39 552 30 524 28L480 25L480 -3C582 0 582 0 602 0C622 0 622 0 724 -3L724 25L698 28C651 35 650 35 642 80L555 705L509 705L136 112C100 56 82 40 48 32L28 27L28 -3C120 0 120 0 140 0C159 0 161 0 247 -3L247 25L195 28C179 29 164 38 164 47C164 55 171 69 190 102L292 277L538 277L563 89L563 86C563 84 567 69 567 55ZM496 601L533 313L317 313Z" stroke="rgb(0,0,0)" stroke-opacity="1" stroke-width="8" fill="rgb(0,0,0)" fill-opacity="1"></path></g></g></g></g><g><g><g><g transform="matrix(1,0,0,1,209,48.4)"><path transform="matrix(0.020399999999999998,0,0,-0.020399999999999998,0,0)" d="M543 227C543 337 459 353 377 365C434 385 459 397 490 425C536 464 559 511 559 562C559 644 501 692 401 692C399 692 389 692 374 691L311 690C299 689 263 689 251 689C232 689 201 690 152 691L100 692L97 664L150 662C174 661 185 653 185 635C185 621 181 589 176 559L89 55C85 37 73 30 31 23L26 -3L63 -2C90 0 105 0 117 0C128 0 154 -1 180 -2L217 -3L237 -4C256 -5 269 -6 277 -6C392 -6 543 87 543 227ZM166 41L217 340L302 340C405 340 455 298 455 211C455 108 382 34 282 34C228 34 207 38 166 41ZM352 655C433 655 473 619 473 544C473 439 399 376 275 376L223 376L272 650C288 650 329 655 352 655Z" stroke="rgb(0,0,0)" stroke-opacity="1" stroke-width="8" fill="rgb(0,0,0)" fill-opacity="1"></path></g></g></g></g><g><g><g><g transform="matrix(1,0,0,1,248,190.4)"><path transform="matrix(0.020399999999999998,0,0,-0.020399999999999998,0,0)" d="M45 284C45 90 152 -18 343 -18C439 -18 510 5 600 67C600 67 610 103 610 103C610 103 600 110 600 110C506 53 454 35 376 35C219 35 133 131 133 309C133 447 190 653 418 653C489 653 541 639 597 603L597 519L624 519C629 576 637 619 651 665C575 694 518 706 456 706C276 706 45 578 45 284Z" stroke="rgb(0,0,0)" stroke-opacity="1" stroke-width="8" fill="rgb(0,0,0)" fill-opacity="1"></path></g></g></g></g><g><g><g><g transform="matrix(1,0,0,1,236,116.4)"><path transform="matrix(0.020399999999999998,0,0,-0.020399999999999998,0,0)" d="M271 204L242 77C238 60 236 42 236 26C236 4 245 -9 260 -9C283 -9 324 17 406 85L399 106C375 86 346 59 324 59C315 59 309 68 309 82C309 87 309 90 310 93L402 472L392 481L359 463C318 478 301 482 274 482C246 482 226 477 199 464C137 433 104 403 79 354C35 265 4 145 4 67C4 23 19 -11 38 -11C75 -11 155 41 271 204ZM319 414C297 305 278 253 244 201C187 117 126 59 94 59C82 59 76 72 76 99C76 163 104 280 139 360C163 415 186 433 234 433C257 433 275 429 319 414Z" stroke="rgb(0,0,0)" stroke-opacity="1" stroke-width="8" fill="rgb(0,0,0)" fill-opacity="1"></path></g></g></g></g><g><g><g><g transform="matrix(1,0,0,1,135,205.4)"><path transform="matrix(0.020399999999999998,0,0,-0.020399999999999998,0,0)" d="M235 722L223 733C171 707 135 698 63 691L59 670L107 670C131 670 141 663 141 646C141 639 140 628 139 622L38 71C37 68 37 64 37 61C37 22 85 -11 140 -11C177 -11 228 8 271 39C367 107 433 244 433 376C433 414 424 453 412 468C405 477 392 482 377 482C353 482 323 474 295 460C244 433 211 403 149 324ZM322 424C348 424 361 401 361 352C361 288 340 202 310 137C277 68 237 36 183 36C137 36 112 59 112 101C112 135 127 276 208 361C241 395 293 424 322 424Z" stroke="rgb(0,0,0)" stroke-opacity="1" stroke-width="8" fill="rgb(0,0,0)" fill-opacity="1"></path></g></g></g></g><g><g><g><g transform="matrix(1,0,0,1,102,108.4)"><path transform="matrix(0.020399999999999998,0,0,-0.020399999999999998,0,0)" d="M342 330L365 330C373 395 380 432 389 458C365 473 330 482 293 482C248 483 175 463 118 400C64 352 25 241 25 136C25 40 67 -11 147 -11C201 -11 249 9 304 54L354 95L346 115L331 105C259 57 221 40 186 40C130 40 101 80 101 159C101 267 136 371 185 409C206 425 230 433 261 433C306 433 342 414 342 390Z" stroke="rgb(0,0,0)" stroke-opacity="1" stroke-width="8" fill="rgb(0,0,0)" fill-opacity="1"></path></g></g></g></g><g><g><g><g transform="matrix(1,0,0,1,302,37)"><path transform="matrix(0.018,0,0,-0.018,0,0)" d="M41 444L89 444C93 484 97 554 124 590C159 637 219 638 267 638L328 638L328 48L175 48L175 0C281 2 302 3 387 3C466 3 545 2 624 0L624 48L471 48L471 638L532 638C676 638 697 589 710 444L758 444L736 686L62 686ZM736 225C736 91 836 -6 997 -6C1155 -6 1198 100 1198 117C1198 135 1179 135 1174 135C1157 135 1155 130 1149 114C1128 66 1071 34 1006 34C865 34 864 167 864 218L1166 218C1188 218 1198 218 1198 245C1198 276 1192 349 1142 399C1105 435 1052 453 983 453C823 453 736 350 736 225ZM864 251C866 290 867 332 888 365C914 405 954 417 983 417C1100 417 1102 286 1103 251ZM1263 218C1263 94 1351 -6 1518 -6C1686 -6 1773 95 1773 218C1773 352 1681 453 1518 453C1354 453 1263 351 1263 218ZM1391 229C1391 274 1391 325 1408 359C1427 396 1469 417 1518 417C1560 417 1602 401 1624 366C1645 332 1645 277 1645 229C1645 142 1645 34 1518 34C1391 34 1391 142 1391 229ZM1841 -147L1841 -195C1878 -194 1914 -192 1963 -192C2007 -192 2050 -193 2094 -195L2094 -147L2025 -147L2025 40C2063 11 2100 -5 2155 -5C2298 -5 2405 81 2405 223C2405 363 2305 450 2172 450C2096 450 2047 421 2019 401L2019 450L1841 442L1841 394L1852 394C1902 394 1911 388 1911 359L1911 -147ZM2024 113C2024 116 2025 118 2025 120L2025 330C2025 337 2025 344 2029 350C2041 370 2090 409 2154 409C2228 409 2277 338 2277 224C2277 69 2197 31 2143 31C2080 31 2024 81 2024 113ZM2477 225C2477 91 2577 -6 2738 -6C2896 -6 2939 100 2939 117C2939 135 2920 135 2915 135C2898 135 2896 130 2890 114C2869 66 2812 34 2747 34C2606 34 2605 167 2605 218L2907 218C2929 218 2939 218 2939 245C2939 276 2933 349 2883 399C2846 435 2793 453 2724 453C2564 453 2477 350 2477 225ZM2605 251C2607 290 2608 332 2629 365C2655 405 2695 417 2724 417C2841 417 2843 286 2844 251ZM3013 0C3044 2 3075 3 3107 3C3140 3 3172 2 3205 0L3205 36C3139 36 3136 50 3136 74L3136 385L3288 49C3299 24 3307 1 3328 1C3351 1 3362 32 3368 46L3510 361C3516 375 3523 389 3529 403L3529 62C3529 39 3528 36 3476 36L3460 36L3460 0C3522 3 3555 3 3570 3L3574 3C3615 3 3655 2 3696 0L3696 36L3679 36C3635 36 3627 38 3627 60L3627 387C3627 404 3630 409 3679 409L3696 409L3696 445L3542 445C3514 445 3508 438 3495 410C3386 169 3372 139 3359 108L3223 409C3209 439 3202 445 3175 445L3013 445L3013 409L3029 409C3075 409 3083 407 3083 385L3083 80C3083 53 3084 36 3013 36ZM3770 108C3770 12 3894 -6 3963 -6C4043 -6 4090 35 4112 77C4112 46 4112 0 4216 0L4264 0C4284 0 4296 0 4296 24C4296 47 4283 47 4270 47C4209 48 4209 61 4209 84L4209 299C4209 388 4138 453 3989 453C3932 453 3810 449 3810 361C3810 317 3845 298 3872 298C3903 298 3935 319 3935 361C3935 391 3916 408 3913 410C3941 416 3973 417 3985 417C4060 417 4095 375 4095 299L4095 265C4024 262 3770 253 3770 108ZM3887 109C3887 217 4045 231 4095 234L4095 139C4095 43 4003 30 3978 30C3927 30 3887 65 3887 109ZM4718 222C4718 89 4812 -6 4966 -6C5128 -6 5158 110 5158 117C5158 131 5144 131 5134 131C5116 131 5115 129 5110 116C5084 53 5036 34 4985 34C4846 34 4846 181 4846 227C4846 283 4846 413 4975 413C5010 413 5027 410 5040 407C5022 391 5020 370 5020 361C5020 317 5055 298 5082 298C5113 298 5145 319 5145 361C5145 447 5029 453 4971 453C4792 453 4718 338 4718 222ZM5224 0C5261 1 5297 3 5346 3C5390 3 5433 2 5477 0L5477 36L5450 36C5434 36 5412 37 5412 46C5412 50 5416 57 5422 65L5588 296C5596 307 5604 318 5612 330L5612 60C5612 38 5611 36 5553 36L5543 36L5543 0C5580 1 5615 3 5664 3C5708 3 5752 2 5796 0L5796 36L5779 36C5734 36 5726 38 5726 60L5726 387C5726 404 5729 409 5779 409L5796 409L5796 445C5736 442 5699 442 5675 442C5631 442 5587 443 5543 445L5543 409L5563 409C5598 409 5608 406 5608 398C5608 393 5603 387 5598 380L5432 148C5424 137 5416 126 5408 114L5408 379C5408 405 5406 409 5463 409L5477 409L5477 445C5433 443 5389 442 5345 442C5321 442 5284 442 5224 445L5224 409L5239 409C5286 409 5294 407 5294 385L5294 58C5294 40 5292 36 5241 36L5224 36ZM5863 0C5900 1 5936 3 5985 3C6029 3 6072 2 6116 0L6116 36L6103 36C6054 36 6048 37 6047 59L6047 228L6251 228L6251 59C6250 37 6243 36 6195 36L6182 36L6182 0C6219 1 6254 3 6303 3C6347 3 6391 2 6435 0L6435 36L6418 36C6374 36 6365 37 6365 59L6365 387C6365 404 6367 409 6417 409L6435 409L6435 445C6375 442 6338 442 6314 442C6270 442 6226 443 6182 445L6182 409L6193 409C6242 409 6250 408 6251 389L6251 261L6047 261L6047 380C6047 407 6051 409 6105 409L6116 409L6116 445C6072 443 6028 442 5984 442C5960 442 5923 442 5863 445L5863 409L5878 409C5924 409 5933 408 5933 385L5933 58C5933 40 5931 36 5880 36L5863 36ZM6491 -108C6491 -152 6531 -200 6598 -200C6702 -200 6751 -100 6770 -60L6973 371C6982 390 6990 408 7049 409L7049 445C7023 443 6996 442 6970 442C6939 442 6909 443 6878 445L6878 409C6909 408 6925 400 6925 387C6925 373 6845 217 6806 128L6805 128C6692 370 6681 387 6681 396C6681 407 6701 409 6726 409L6732 409L6732 445C6691 443 6649 442 6608 442C6570 442 6532 443 6495 445L6495 409L6504 409C6556 409 6554 407 6569 375L6739 15C6742 8 6743 3 6743 -1C6743 -7 6739 -12 6735 -21C6717 -60 6682 -163 6600 -163C6592 -163 6584 -162 6576 -160C6587 -153 6607 -138 6607 -107C6607 -73 6581 -50 6549 -50C6519 -50 6491 -71 6491 -108ZM7082 222C7082 89 7176 -6 7330 -6C7492 -6 7522 110 7522 117C7522 131 7508 131 7498 131C7480 131 7479 129 7474 116C7448 53 7400 34 7349 34C7210 34 7210 181 7210 227C7210 283 7210 413 7339 413C7374 413 7391 410 7404 407C7386 391 7384 370 7384 361C7384 317 7419 298 7446 298C7477 298 7509 319 7509 361C7509 447 7393 453 7335 453C7156 453 7082 338 7082 222ZM7587 218C7587 94 7675 -6 7842 -6C8010 -6 8097 95 8097 218C8097 352 8005 453 7842 453C7678 453 7587 351 7587 218ZM7715 229C7715 274 7715 325 7732 359C7751 396 7793 417 7842 417C7884 417 7926 401 7948 366C7969 332 7969 277 7969 229C7969 142 7969 34 7842 34C7715 34 7715 142 7715 229ZM8165 0L8473 0C8628 0 8665 78 8665 130C8665 176 8628 220 8536 245C8562 254 8640 277 8640 336C8640 373 8613 409 8558 429C8519 443 8477 445 8435 445L8165 445L8165 409L8181 409C8227 409 8235 407 8235 385L8235 58C8235 40 8233 36 8182 36L8165 36ZM8349 59L8349 228L8455 228C8525 228 8543 177 8543 132C8543 87 8522 36 8439 36L8389 36C8351 36 8349 38 8349 59ZM8349 261L8349 389C8350 407 8354 409 8388 409L8437 409C8510 409 8523 366 8523 337C8523 307 8505 261 8411 261Z" stroke="rgb(0,0,0)" stroke-opacity="1" stroke-width="8" fill="rgb(0,0,0)" fill-opacity="1"></path></g></g></g></g><g><g><g><g transform="matrix(1,0,0,1,300,127)"><path transform="matrix(0.018,0,0,-0.018,0,0)" d="M41 444L89 444C93 484 97 554 124 590C159 637 219 638 267 638L328 638L328 48L175 48L175 0C281 2 302 3 387 3C466 3 545 2 624 0L624 48L471 48L471 638L532 638C676 638 697 589 710 444L758 444L736 686L62 686ZM736 225C736 91 836 -6 997 -6C1155 -6 1198 100 1198 117C1198 135 1179 135 1174 135C1157 135 1155 130 1149 114C1128 66 1071 34 1006 34C865 34 864 167 864 218L1166 218C1188 218 1198 218 1198 245C1198 276 1192 349 1142 399C1105 435 1052 453 983 453C823 453 736 350 736 225ZM864 251C866 290 867 332 888 365C914 405 954 417 983 417C1100 417 1102 286 1103 251ZM1263 218C1263 94 1351 -6 1518 -6C1686 -6 1773 95 1773 218C1773 352 1681 453 1518 453C1354 453 1263 351 1263 218ZM1391 229C1391 274 1391 325 1408 359C1427 396 1469 417 1518 417C1560 417 1602 401 1624 366C1645 332 1645 277 1645 229C1645 142 1645 34 1518 34C1391 34 1391 142 1391 229ZM1841 -147L1841 -195C1878 -194 1914 -192 1963 -192C2007 -192 2050 -193 2094 -195L2094 -147L2025 -147L2025 40C2063 11 2100 -5 2155 -5C2298 -5 2405 81 2405 223C2405 363 2305 450 2172 450C2096 450 2047 421 2019 401L2019 450L1841 442L1841 394L1852 394C1902 394 1911 388 1911 359L1911 -147ZM2024 113C2024 116 2025 118 2025 120L2025 330C2025 337 2025 344 2029 350C2041 370 2090 409 2154 409C2228 409 2277 338 2277 224C2277 69 2197 31 2143 31C2080 31 2024 81 2024 113ZM2477 225C2477 91 2577 -6 2738 -6C2896 -6 2939 100 2939 117C2939 135 2920 135 2915 135C2898 135 2896 130 2890 114C2869 66 2812 34 2747 34C2606 34 2605 167 2605 218L2907 218C2929 218 2939 218 2939 245C2939 276 2933 349 2883 399C2846 435 2793 453 2724 453C2564 453 2477 350 2477 225ZM2605 251C2607 290 2608 332 2629 365C2655 405 2695 417 2724 417C2841 417 2843 286 2844 251ZM3013 0C3044 2 3075 3 3107 3C3140 3 3172 2 3205 0L3205 36C3139 36 3136 50 3136 74L3136 385L3288 49C3299 24 3307 1 3328 1C3351 1 3362 32 3368 46L3510 361C3516 375 3523 389 3529 403L3529 62C3529 39 3528 36 3476 36L3460 36L3460 0C3522 3 3555 3 3570 3L3574 3C3615 3 3655 2 3696 0L3696 36L3679 36C3635 36 3627 38 3627 60L3627 387C3627 404 3630 409 3679 409L3696 409L3696 445L3542 445C3514 445 3508 438 3495 410C3386 169 3372 139 3359 108L3223 409C3209 439 3202 445 3175 445L3013 445L3013 409L3029 409C3075 409 3083 407 3083 385L3083 80C3083 53 3084 36 3013 36ZM3770 108C3770 12 3894 -6 3963 -6C4043 -6 4090 35 4112 77C4112 46 4112 0 4216 0L4264 0C4284 0 4296 0 4296 24C4296 47 4283 47 4270 47C4209 48 4209 61 4209 84L4209 299C4209 388 4138 453 3989 453C3932 453 3810 449 3810 361C3810 317 3845 298 3872 298C3903 298 3935 319 3935 361C3935 391 3916 408 3913 410C3941 416 3973 417 3985 417C4060 417 4095 375 4095 299L4095 265C4024 262 3770 253 3770 108ZM3887 109C3887 217 4045 231 4095 234L4095 139C4095 43 4003 30 3978 30C3927 30 3887 65 3887 109ZM4713 0C4756 2 4798 3 4841 3C4889 3 4925 1 4961 0L4961 36L4949 36C4901 36 4892 37 4891 55L4891 175L4955 220C5014 148 5099 63 5099 50C5099 38 5084 36 5072 36L5070 36L5070 0C5111 2 5151 3 5192 3C5228 3 5264 2 5299 0L5299 36C5254 36 5247 36 5217 70C5071 235 5053 256 5034 276C5195 391 5203 407 5273 409L5273 445C5239 443 5222 442 5195 442C5161 442 5126 443 5092 445L5092 409C5100 407 5108 405 5109 396L5108 391L5104 386L5088 374L4891 234L4891 387C4892 406 4897 409 4949 409L4961 409L4961 445C4922 443 4883 442 4843 442C4800 442 4756 443 4713 445L4713 409L4729 409C4775 409 4783 407 4783 385L4783 58C4783 40 4781 36 4730 36L4713 36ZM5319 218C5319 94 5407 -6 5574 -6C5742 -6 5829 95 5829 218C5829 352 5737 453 5574 453C5410 453 5319 351 5319 218ZM5447 229C5447 274 5447 325 5464 359C5483 396 5525 417 5574 417C5616 417 5658 401 5680 366C5701 332 5701 277 5701 229C5701 142 5701 34 5574 34C5447 34 5447 142 5447 229ZM5900 222C5900 89 5994 -6 6148 -6C6310 -6 6340 110 6340 117C6340 131 6326 131 6316 131C6298 131 6297 129 6292 116C6266 53 6218 34 6167 34C6028 34 6028 181 6028 227C6028 283 6028 413 6157 413C6192 413 6209 410 6222 407C6204 391 6202 370 6202 361C6202 317 6237 298 6264 298C6295 298 6327 319 6327 361C6327 447 6211 453 6153 453C5974 453 5900 338 5900 222ZM6406 0C6443 1 6479 3 6528 3C6572 3 6615 2 6659 0L6659 36L6632 36C6616 36 6594 37 6594 46C6594 50 6598 57 6604 65L6770 296C6778 307 6786 318 6794 330L6794 60C6794 38 6793 36 6735 36L6725 36L6725 0C6762 1 6797 3 6846 3C6890 3 6934 2 6978 0L6978 36L6961 36C6916 36 6908 38 6908 60L6908 387C6908 404 6911 409 6961 409L6978 409L6978 445C6918 442 6881 442 6857 442C6813 442 6769 443 6725 445L6725 409L6745 409C6780 409 6790 406 6790 398C6790 393 6785 387 6780 380L6614 148C6606 137 6598 126 6590 114L6590 379C6590 405 6588 409 6645 409L6659 409L6659 445C6615 443 6571 442 6527 442C6503 442 6466 442 6406 445L6406 409L6421 409C6468 409 6476 407 6476 385L6476 58C6476 40 6474 36 6423 36L6406 36ZM7045 0C7082 1 7118 3 7167 3C7211 3 7254 2 7298 0L7298 36L7285 36C7236 36 7230 37 7229 59L7229 228L7433 228L7433 59C7432 37 7425 36 7377 36L7364 36L7364 0C7401 1 7436 3 7485 3C7529 3 7573 2 7617 0L7617 36L7600 36C7556 36 7547 37 7547 59L7547 387C7547 404 7549 409 7599 409L7617 409L7617 445C7557 442 7520 442 7496 442C7452 442 7408 443 7364 445L7364 409L7375 409C7424 409 7432 408 7433 389L7433 261L7229 261L7229 380C7229 407 7233 409 7287 409L7298 409L7298 445C7254 443 7210 442 7166 442C7142 442 7105 442 7045 445L7045 409L7060 409C7106 409 7115 408 7115 385L7115 58C7115 40 7113 36 7062 36L7045 36ZM7673 -108C7673 -152 7713 -200 7780 -200C7884 -200 7933 -100 7952 -60L8155 371C8164 390 8172 408 8231 409L8231 445C8205 443 8178 442 8152 442C8121 442 8091 443 8060 445L8060 409C8091 408 8107 400 8107 387C8107 373 8027 217 7988 128L7987 128C7874 370 7863 387 7863 396C7863 407 7883 409 7908 409L7914 409L7914 445C7873 443 7831 442 7790 442C7752 442 7714 443 7677 445L7677 409L7686 409C7738 409 7736 407 7751 375L7921 15C7924 8 7925 3 7925 -1C7925 -7 7921 -12 7917 -21C7899 -60 7864 -163 7782 -163C7774 -163 7766 -162 7758 -160C7769 -153 7789 -138 7789 -107C7789 -73 7763 -50 7731 -50C7701 -50 7673 -71 7673 -108ZM8264 222C8264 89 8358 -6 8512 -6C8674 -6 8704 110 8704 117C8704 131 8690 131 8680 131C8662 131 8661 129 8656 116C8630 53 8582 34 8531 34C8392 34 8392 181 8392 227C8392 283 8392 413 8521 413C8556 413 8573 410 8586 407C8568 391 8566 370 8566 361C8566 317 8601 298 8628 298C8659 298 8691 319 8691 361C8691 447 8575 453 8517 453C8338 453 8264 338 8264 222ZM8769 218C8769 94 8857 -6 9024 -6C9192 -6 9279 95 9279 218C9279 352 9187 453 9024 453C8860 453 8769 351 8769 218ZM8897 229C8897 274 8897 325 8914 359C8933 396 8975 417 9024 417C9066 417 9108 401 9130 366C9151 332 9151 277 9151 229C9151 142 9151 34 9024 34C8897 34 8897 142 8897 229ZM9347 0L9655 0C9810 0 9847 78 9847 130C9847 176 9810 220 9718 245C9744 254 9822 277 9822 336C9822 373 9795 409 9740 429C9701 443 9659 445 9617 445L9347 445L9347 409L9363 409C9409 409 9417 407 9417 385L9417 58C9417 40 9415 36 9364 36L9347 36ZM9531 59L9531 228L9637 228C9707 228 9725 177 9725 132C9725 87 9704 36 9621 36L9571 36C9533 36 9531 38 9531 59ZM9531 261L9531 389C9532 407 9536 409 9570 409L9619 409C9692 409 9705 366 9705 337C9705 307 9687 261 9593 261Z" stroke="rgb(0,0,0)" stroke-opacity="1" stroke-width="8" fill="rgb(0,0,0)" fill-opacity="1"></path></g></g></g></g><g><g><g><g><g><g><g transform="matrix(1,0,0,1,319,63)"><path transform="matrix(0.017,0,0,-0.017,0,0)" d="M271 204L242 77C238 60 236 42 236 26C236 4 245 -9 260 -9C283 -9 324 17 406 85L399 106C375 86 346 59 324 59C315 59 309 68 309 82C309 87 309 90 310 93L402 472L392 481L359 463C318 478 301 482 274 482C246 482 226 477 199 464C137 433 104 403 79 354C35 265 4 145 4 67C4 23 19 -11 38 -11C75 -11 155 41 271 204ZM319 414C297 305 278 253 244 201C187 117 126 59 94 59C82 59 76 72 76 99C76 163 104 280 139 360C163 415 186 433 234 433C257 433 275 429 319 414Z" stroke="rgb(0,0,0)" stroke-opacity="1" stroke-width="8" fill="rgb(0,0,0)" fill-opacity="1"></path></g></g></g></g><g><g><g><g><g transform="matrix(1,0,0,1,303.6875,88.78125)"><path transform="matrix(0.017,0,0,-0.017,0,0)" d="M41 143C41 74 38 44 30 4C82 -13 121 -20 167 -20C298 -20 391 50 391 148C391 321 107 228 107 358C107 408 142 436 203 436C270 436 321 401 321 354L321 331L349 331C350 389 351 413 354 444C301 462 265 469 224 469C108 469 37 414 37 324C37 276 59 242 105 221C223 169 317 195 317 109C317 55 267 17 196 17C123 17 71 52 71 102L71 143ZM611 465L602 469C551 448 499 434 446 428L446 400L483 400C523 400 527 393 527 327L527 102C527 39 524 32 490 30L444 27L444 -3C544 0 544 0 569 0C594 0 594 0 694 -3L694 27L648 30C614 32 611 39 611 102ZM565 687C535 687 509 661 509 631C509 602 535 576 564 576C593 576 620 602 620 631C620 659 593 687 565 687ZM1123 -3C1184 0 1185 0 1202 0C1216 0 1216 0 1285 -3L1285 27L1244 30C1210 32 1207 38 1207 102L1207 295C1207 412 1152 469 1040 469C1003 469 982 462 961 444L885 378L885 465L876 469C825 448 773 434 720 428L720 400L757 400C797 400 801 393 801 327L801 102C801 39 798 32 764 30L719 27L719 -3C787 -1 814 0 843 0C872 0 899 -1 967 -3L967 27L922 30C888 32 885 39 885 102L885 314C885 359 951 408 1012 408C1079 408 1123 358 1123 281Z" stroke="rgb(0,0,0)" stroke-opacity="1" stroke-width="8" fill="rgb(0,0,0)" fill-opacity="1"></path></g></g></g><g><g transform="matrix(1,0,0,1,329.078125,88.78125)"><path transform="matrix(0.017,0,0,-0.017,0,0)" d="M567 55C567 39 552 30 524 28L480 25L480 -3C582 0 582 0 602 0C622 0 622 0 724 -3L724 25L698 28C651 35 650 35 642 80L555 705L509 705L136 112C100 56 82 40 48 32L28 27L28 -3C120 0 120 0 140 0C159 0 161 0 247 -3L247 25L195 28C179 29 164 38 164 47C164 55 171 69 190 102L292 277L538 277L563 89L563 86C563 84 567 69 567 55ZM496 601L533 313L317 313Z" stroke="rgb(0,0,0)" stroke-opacity="1" stroke-width="8" fill="rgb(0,0,0)" fill-opacity="1"></path></g></g></g></g><line style="fill:none;stroke-width:1px;stroke:rgb(0, 0, 0);" x1="303.6875" y1="71.140625" x2="341.859375" y2="71.140625"></line></g><g><g transform="matrix(1,0,0,1,348.640625,75.390625)"><path transform="matrix(0.017,0,0,-0.017,0,0)" d="M604 347L604 406L65 406L65 347ZM604 134L604 193L65 193L65 134Z" stroke="rgb(0,0,0)" stroke-opacity="1" stroke-width="8" fill="rgb(0,0,0)" fill-opacity="1"></path></g></g><g><g><g><g><g transform="matrix(1,0,0,1,380.734375,63)"><path transform="matrix(0.017,0,0,-0.017,0,0)" d="M235 722L223 733C171 707 135 698 63 691L59 670L107 670C131 670 141 663 141 646C141 639 140 628 139 622L38 71C37 68 37 64 37 61C37 22 85 -11 140 -11C177 -11 228 8 271 39C367 107 433 244 433 376C433 414 424 453 412 468C405 477 392 482 377 482C353 482 323 474 295 460C244 433 211 403 149 324ZM322 424C348 424 361 401 361 352C361 288 340 202 310 137C277 68 237 36 183 36C137 36 112 59 112 101C112 135 127 276 208 361C241 395 293 424 322 424Z" stroke="rgb(0,0,0)" stroke-opacity="1" stroke-width="8" fill="rgb(0,0,0)" fill-opacity="1"></path></g></g></g></g><g><g><g><g><g transform="matrix(1,0,0,1,366.78125,88.78125)"><path transform="matrix(0.017,0,0,-0.017,0,0)" d="M41 143C41 74 38 44 30 4C82 -13 121 -20 167 -20C298 -20 391 50 391 148C391 321 107 228 107 358C107 408 142 436 203 436C270 436 321 401 321 354L321 331L349 331C350 389 351 413 354 444C301 462 265 469 224 469C108 469 37 414 37 324C37 276 59 242 105 221C223 169 317 195 317 109C317 55 267 17 196 17C123 17 71 52 71 102L71 143ZM611 465L602 469C551 448 499 434 446 428L446 400L483 400C523 400 527 393 527 327L527 102C527 39 524 32 490 30L444 27L444 -3C544 0 544 0 569 0C594 0 594 0 694 -3L694 27L648 30C614 32 611 39 611 102ZM565 687C535 687 509 661 509 631C509 602 535 576 564 576C593 576 620 602 620 631C620 659 593 687 565 687ZM1123 -3C1184 0 1185 0 1202 0C1216 0 1216 0 1285 -3L1285 27L1244 30C1210 32 1207 38 1207 102L1207 295C1207 412 1152 469 1040 469C1003 469 982 462 961 444L885 378L885 465L876 469C825 448 773 434 720 428L720 400L757 400C797 400 801 393 801 327L801 102C801 39 798 32 764 30L719 27L719 -3C787 -1 814 0 843 0C872 0 899 -1 967 -3L967 27L922 30C888 32 885 39 885 102L885 314C885 359 951 408 1012 408C1079 408 1123 358 1123 281Z" stroke="rgb(0,0,0)" stroke-opacity="1" stroke-width="8" fill="rgb(0,0,0)" fill-opacity="1"></path></g></g></g><g><g transform="matrix(1,0,0,1,392.171875,88.78125)"><path transform="matrix(0.017,0,0,-0.017,0,0)" d="M543 227C543 337 459 353 377 365C434 385 459 397 490 425C536 464 559 511 559 562C559 644 501 692 401 692C399 692 389 692 374 691L311 690C299 689 263 689 251 689C232 689 201 690 152 691L100 692L97 664L150 662C174 661 185 653 185 635C185 621 181 589 176 559L89 55C85 37 73 30 31 23L26 -3L63 -2C90 0 105 0 117 0C128 0 154 -1 180 -2L217 -3L237 -4C256 -5 269 -6 277 -6C392 -6 543 87 543 227ZM166 41L217 340L302 340C405 340 455 298 455 211C455 108 382 34 282 34C228 34 207 38 166 41ZM352 655C433 655 473 619 473 544C473 439 399 376 275 376L223 376L272 650C288 650 329 655 352 655Z" stroke="rgb(0,0,0)" stroke-opacity="1" stroke-width="8" fill="rgb(0,0,0)" fill-opacity="1"></path></g></g></g></g><line style="fill:none;stroke-width:1px;stroke:rgb(0, 0, 0);" x1="366.78125" y1="71.140625" x2="402.546875" y2="71.140625"></line></g><g><g transform="matrix(1,0,0,1,409.328125,75.390625)"><path transform="matrix(0.017,0,0,-0.017,0,0)" d="M604 347L604 406L65 406L65 347ZM604 134L604 193L65 193L65 134Z" stroke="rgb(0,0,0)" stroke-opacity="1" stroke-width="8" fill="rgb(0,0,0)" fill-opacity="1"></path></g></g><g><g><g><g><g transform="matrix(1,0,0,1,442.546875,63)"><path transform="matrix(0.017,0,0,-0.017,0,0)" d="M342 330L365 330C373 395 380 432 389 458C365 473 330 482 293 482C248 483 175 463 118 400C64 352 25 241 25 136C25 40 67 -11 147 -11C201 -11 249 9 304 54L354 95L346 115L331 105C259 57 221 40 186 40C130 40 101 80 101 159C101 267 136 371 185 409C206 425 230 433 261 433C306 433 342 414 342 390Z" stroke="rgb(0,0,0)" stroke-opacity="1" stroke-width="8" fill="rgb(0,0,0)" fill-opacity="1"></path></g></g></g></g><g><g><g><g><g transform="matrix(1,0,0,1,427.46875,88.78125)"><path transform="matrix(0.017,0,0,-0.017,0,0)" d="M41 143C41 74 38 44 30 4C82 -13 121 -20 167 -20C298 -20 391 50 391 148C391 321 107 228 107 358C107 408 142 436 203 436C270 436 321 401 321 354L321 331L349 331C350 389 351 413 354 444C301 462 265 469 224 469C108 469 37 414 37 324C37 276 59 242 105 221C223 169 317 195 317 109C317 55 267 17 196 17C123 17 71 52 71 102L71 143ZM611 465L602 469C551 448 499 434 446 428L446 400L483 400C523 400 527 393 527 327L527 102C527 39 524 32 490 30L444 27L444 -3C544 0 544 0 569 0C594 0 594 0 694 -3L694 27L648 30C614 32 611 39 611 102ZM565 687C535 687 509 661 509 631C509 602 535 576 564 576C593 576 620 602 620 631C620 659 593 687 565 687ZM1123 -3C1184 0 1185 0 1202 0C1216 0 1216 0 1285 -3L1285 27L1244 30C1210 32 1207 38 1207 102L1207 295C1207 412 1152 469 1040 469C1003 469 982 462 961 444L885 378L885 465L876 469C825 448 773 434 720 428L720 400L757 400C797 400 801 393 801 327L801 102C801 39 798 32 764 30L719 27L719 -3C787 -1 814 0 843 0C872 0 899 -1 967 -3L967 27L922 30C888 32 885 39 885 102L885 314C885 359 951 408 1012 408C1079 408 1123 358 1123 281Z" stroke="rgb(0,0,0)" stroke-opacity="1" stroke-width="8" fill="rgb(0,0,0)" fill-opacity="1"></path></g></g></g><g><g transform="matrix(1,0,0,1,452.859375,88.78125)"><path transform="matrix(0.017,0,0,-0.017,0,0)" d="M45 284C45 90 152 -18 343 -18C439 -18 510 5 600 67C600 67 610 103 610 103C610 103 600 110 600 110C506 53 454 35 376 35C219 35 133 131 133 309C133 447 190 653 418 653C489 653 541 639 597 603L597 519L624 519C629 576 637 619 651 665C575 694 518 706 456 706C276 706 45 578 45 284Z" stroke="rgb(0,0,0)" stroke-opacity="1" stroke-width="8" fill="rgb(0,0,0)" fill-opacity="1"></path></g></g></g></g><line style="fill:none;stroke-width:1px;stroke:rgb(0, 0, 0);" x1="427.46875" y1="71.140625" x2="464.546875" y2="71.140625"></line></g></g></g><g><g><g><g transform="matrix(1,0,0,1,305,160.609375)"><path transform="matrix(0.017,0,0,-0.017,0,0)" d="M342 330L365 330C373 395 380 432 389 458C365 473 330 482 293 482C248 483 175 463 118 400C64 352 25 241 25 136C25 40 67 -11 147 -11C201 -11 249 9 304 54L354 95L346 115L331 105C259 57 221 40 186 40C130 40 101 80 101 159C101 267 136 371 185 409C206 425 230 433 261 433C306 433 342 414 342 390Z" stroke="rgb(0,0,0)" stroke-opacity="1" stroke-width="8" fill="rgb(0,0,0)" fill-opacity="1"></path></g></g><g><g><g><g><g transform="matrix(1,0,0,1,312.875,153.9)"><path transform="matrix(0.0119,0,0,-0.0119,0,0)" d="M16 23L16 -3C203 -3 203 0 239 0C275 0 275 -3 468 -3L468 82C353 77 307 81 122 77L304 270C401 373 431 428 431 503C431 618 353 689 226 689C154 689 105 669 56 619L39 483L68 483L81 529C97 587 133 612 200 612C286 612 341 558 341 473C341 398 299 324 186 204Z" stroke="rgb(0,0,0)" stroke-opacity="1" stroke-width="8" fill="rgb(0,0,0)" fill-opacity="1"></path></g></g></g></g></g><g><g transform="matrix(1,0,0,1,324.921875,160.609375)"><path transform="matrix(0.017,0,0,-0.017,0,0)" d="M604 347L604 406L65 406L65 347ZM604 134L604 193L65 193L65 134Z" stroke="rgb(0,0,0)" stroke-opacity="1" stroke-width="8" fill="rgb(0,0,0)" fill-opacity="1"></path></g></g><g><g transform="matrix(1,0,0,1,341.375,160.609375)"><path transform="matrix(0.017,0,0,-0.017,0,0)" d="M271 204L242 77C238 60 236 42 236 26C236 4 245 -9 260 -9C283 -9 324 17 406 85L399 106C375 86 346 59 324 59C315 59 309 68 309 82C309 87 309 90 310 93L402 472L392 481L359 463C318 478 301 482 274 482C246 482 226 477 199 464C137 433 104 403 79 354C35 265 4 145 4 67C4 23 19 -11 38 -11C75 -11 155 41 271 204ZM319 414C297 305 278 253 244 201C187 117 126 59 94 59C82 59 76 72 76 99C76 163 104 280 139 360C163 415 186 433 234 433C257 433 275 429 319 414Z" stroke="rgb(0,0,0)" stroke-opacity="1" stroke-width="8" fill="rgb(0,0,0)" fill-opacity="1"></path></g></g><g><g><g><g><g transform="matrix(1,0,0,1,349.875,153.9)"><path transform="matrix(0.0119,0,0,-0.0119,0,0)" d="M16 23L16 -3C203 -3 203 0 239 0C275 0 275 -3 468 -3L468 82C353 77 307 81 122 77L304 270C401 373 431 428 431 503C431 618 353 689 226 689C154 689 105 669 56 619L39 483L68 483L81 529C97 587 133 612 200 612C286 612 341 558 341 473C341 398 299 324 186 204Z" stroke="rgb(0,0,0)" stroke-opacity="1" stroke-width="8" fill="rgb(0,0,0)" fill-opacity="1"></path></g></g></g></g></g><g><g transform="matrix(1,0,0,1,360.21875,160.609375)"><path transform="matrix(0.017,0,0,-0.017,0,0)" d="M604 241L604 300L364 300L364 538L305 538L305 300L65 300L65 241L305 241L305 0L364 0L364 241Z" stroke="rgb(0,0,0)" stroke-opacity="1" stroke-width="8" fill="rgb(0,0,0)" fill-opacity="1"></path></g></g><g><g transform="matrix(1,0,0,1,374.96875,160.609375)"><path transform="matrix(0.017,0,0,-0.017,0,0)" d="M235 722L223 733C171 707 135 698 63 691L59 670L107 670C131 670 141 663 141 646C141 639 140 628 139 622L38 71C37 68 37 64 37 61C37 22 85 -11 140 -11C177 -11 228 8 271 39C367 107 433 244 433 376C433 414 424 453 412 468C405 477 392 482 377 482C353 482 323 474 295 460C244 433 211 403 149 324ZM322 424C348 424 361 401 361 352C361 288 340 202 310 137C277 68 237 36 183 36C137 36 112 59 112 101C112 135 127 276 208 361C241 395 293 424 322 424Z" stroke="rgb(0,0,0)" stroke-opacity="1" stroke-width="8" fill="rgb(0,0,0)" fill-opacity="1"></path></g></g><g><g><g><g><g transform="matrix(1,0,0,1,383.796875,153.9)"><path transform="matrix(0.0119,0,0,-0.0119,0,0)" d="M16 23L16 -3C203 -3 203 0 239 0C275 0 275 -3 468 -3L468 82C353 77 307 81 122 77L304 270C401 373 431 428 431 503C431 618 353 689 226 689C154 689 105 669 56 619L39 483L68 483L81 529C97 587 133 612 200 612C286 612 341 558 341 473C341 398 299 324 186 204Z" stroke="rgb(0,0,0)" stroke-opacity="1" stroke-width="8" fill="rgb(0,0,0)" fill-opacity="1"></path></g></g></g></g></g><g><g transform="matrix(1,0,0,1,394.140625,160.609375)"><path transform="matrix(0.017,0,0,-0.017,0,0)" d="M555 243L555 299L51 299L51 243Z" stroke="rgb(0,0,0)" stroke-opacity="1" stroke-width="8" fill="rgb(0,0,0)" fill-opacity="1"></path></g></g><g><g transform="matrix(1,0,0,1,407.828125,160.609375)"><path transform="matrix(0.017,0,0,-0.017,0,0)" d="M16 23L16 -3C203 -3 203 0 239 0C275 0 275 -3 468 -3L468 82C353 77 307 81 122 77L304 270C401 373 431 428 431 503C431 618 353 689 226 689C154 689 105 669 56 619L39 483L68 483L81 529C97 587 133 612 200 612C286 612 341 558 341 473C341 398 299 324 186 204ZM770 204L741 77C737 60 735 42 735 26C735 4 744 -9 759 -9C782 -9 823 17 905 85L898 106C874 86 845 59 823 59C814 59 808 68 808 82C808 87 808 90 809 93L901 472L891 481L858 463C817 478 800 482 773 482C745 482 725 477 698 464C636 433 603 403 578 354C534 265 503 145 503 67C503 23 518 -11 537 -11C574 -11 654 41 770 204ZM818 414C796 305 777 253 743 201C686 117 625 59 593 59C581 59 575 72 575 99C575 163 603 280 638 360C662 415 685 433 733 433C756 433 774 429 818 414ZM1177 722L1165 733C1113 707 1077 698 1005 691L1001 670L1049 670C1073 670 1083 663 1083 646C1083 639 1082 628 1081 622L980 71C979 68 979 64 979 61C979 22 1027 -11 1082 -11C1119 -11 1170 8 1213 39C1309 107 1375 244 1375 376C1375 414 1366 453 1354 468C1347 477 1334 482 1319 482C1295 482 1265 474 1237 460C1186 433 1153 403 1091 324ZM1264 424C1290 424 1303 401 1303 352C1303 288 1282 202 1252 137C1219 68 1179 36 1125 36C1079 36 1054 59 1054 101C1054 135 1069 276 1150 361C1183 395 1235 424 1264 424Z" stroke="rgb(0,0,0)" stroke-opacity="1" stroke-width="8" fill="rgb(0,0,0)" fill-opacity="1"></path></g></g><g><g><g transform="matrix(1,0,0,1,435.09375,160.609375)"><path transform="matrix(0.017,0,0,-0.017,0,0)" d="M399 311C399 357 404 398 413 434C381 478 338 497 293 497C169 497 25 361 25 224C25 219 26 215 26 210C26 75 121 -20 255 -20C307 -20 382 -1 392 14L413 46L403 61C366 41 334 32 298 32C187 32 114 118 114 250C114 357 164 417 254 417C298 417 346 397 364 372L371 311ZM722 469C576 469 475 366 475 217C475 76 564 -20 693 -20C847 -20 957 87 957 237C957 372 859 469 722 469ZM704 436C796 436 864 336 864 200C864 85 813 13 732 13C634 13 568 109 568 251C568 371 616 436 704 436ZM1029 143C1029 74 1026 44 1018 4C1070 -13 1109 -20 1155 -20C1286 -20 1379 50 1379 148C1379 321 1095 228 1095 358C1095 408 1130 436 1191 436C1258 436 1309 401 1309 354L1309 331L1337 331C1338 389 1339 413 1342 444C1289 462 1253 469 1212 469C1096 469 1025 414 1025 324C1025 276 1047 242 1093 221C1211 169 1305 195 1305 109C1305 55 1255 17 1184 17C1111 17 1059 52 1059 102L1059 143Z" stroke="rgb(0,0,0)" stroke-opacity="1" stroke-width="8" fill="rgb(0,0,0)" fill-opacity="1"></path></g></g></g><g><g transform="matrix(1,0,0,1,462.484375,160.609375)"><path transform="matrix(0.017,0,0,-0.017,0,0)" d="M45 284C45 90 152 -18 343 -18C439 -18 510 5 600 67C600 67 610 103 610 103C610 103 600 110 600 110C506 53 454 35 376 35C219 35 133 131 133 309C133 447 190 653 418 653C489 653 541 639 597 603L597 519L624 519C629 576 637 619 651 665C575 694 518 706 456 706C276 706 45 578 45 284Z" stroke="rgb(0,0,0)" stroke-opacity="1" stroke-width="8" fill="rgb(0,0,0)" fill-opacity="1"></path></g></g></g></g></svg>
</svg>
