<svg xmlns="http://www.w3.org/2000/svg" xmlns:xlink="http://www.w3.org/1999/xlink" x="0" y="0" width="514" height="271.65625" style="
        width:514px;
        height:271.65625px;
        background: transparent;
        fill: none;
">
        <svg xmlns="http://www.w3.org/2000/svg"/>
        
        <svg xmlns="http://www.w3.org/2000/svg" class="role-diagram-draw-area"><g class="shapes-region" style="stroke: black; fill: none;"><g class="composite-shape"><path class="real" d=" M163.33,31.47 L187.05,111.29 L35.65,111.29 Z" style="stroke-width: 1; stroke: rgb(0, 0, 0); fill: none; fill-opacity: 1;"/></g><g class="arrow-line"><path class="connection real" stroke-dasharray="" d="  M52,101 C58.2,97.6 67.2,105.6 60.2,111.6" style="stroke: rgb(0, 0, 0); stroke-width: 1; fill: none; fill-opacity: 1;"/></g><g class="arrow-line"><path class="connection real" stroke-dasharray="" d="  M76.11,155 L38.5,239" style="stroke: rgb(0, 0, 0); stroke-width: 1; fill: none; fill-opacity: 1;"/></g><g class="arrow-line"><path class="connection real" stroke-dasharray="" d="  M204.5,236.82 L38.5,239" style="stroke: rgb(0, 0, 0); stroke-width: 1; fill: none; fill-opacity: 1;"/></g><g class="arrow-line"><path class="connection real" stroke-dasharray="" d="  M166.89,173.55 L204.5,236.82" style="stroke: rgb(0, 0, 0); stroke-width: 1; fill: none; fill-opacity: 1;"/></g><g class="arrow-line"><path class="connection real" stroke-dasharray="" d="  M166.89,173.55 L76.11,155" style="stroke: rgb(0, 0, 0); stroke-width: 1; fill: none; fill-opacity: 1;"/></g><g class="arrow-line"><path class="connection real" stroke-dasharray="" d="  M166.89,173.55 L38.5,239" style="stroke: rgb(0, 0, 0); stroke-width: 1; fill: none; fill-opacity: 1;"/></g><g class="arrow-line"><path class="connection real" stroke-dasharray="" d="  M76.11,155 L204.5,236.82" style="stroke: rgb(0, 0, 0); stroke-width: 1; fill: none; fill-opacity: 1;"/></g><g class="arrow-line"><path class="connection real" stroke-dasharray="" d="  M124,196 C113,194 117,188 120,182" style="stroke: rgb(0, 0, 0); stroke-width: 1; fill: none; fill-opacity: 1;"/></g><g/></g><g/><g/><g/></svg>
        <svg xmlns="http://www.w3.org/2000/svg" xmlns:xlink="http://www.w3.org/1999/xlink" width="512" height="269.65625" style="width:512px;height:269.65625px;font-family:Asana-Math, Asana;background:transparent;"><g><g><g><g transform="matrix(1,0,0,1,17.125,117.446875)"><path transform="matrix(0.020399999999999998,0,0,-0.020399999999999998,0,0)" d="M567 55C567 39 552 30 524 28L480 25L480 -3C582 0 582 0 602 0C622 0 622 0 724 -3L724 25L698 28C651 35 650 35 642 80L555 705L509 705L136 112C100 56 82 40 48 32L28 27L28 -3C120 0 120 0 140 0C159 0 161 0 247 -3L247 25L195 28C179 29 164 38 164 47C164 55 171 69 190 102L292 277L538 277L563 89L563 86C563 84 567 69 567 55ZM496 601L533 313L317 313Z" stroke="rgb(0,0,0)" stroke-opacity="1" stroke-width="8" fill="rgb(0,0,0)" fill-opacity="1"></path></g></g></g></g><g><g><g><g transform="matrix(1,0,0,1,160.8125,27.821875)"><path transform="matrix(0.020399999999999998,0,0,-0.020399999999999998,0,0)" d="M543 227C543 337 459 353 377 365C434 385 459 397 490 425C536 464 559 511 559 562C559 644 501 692 401 692C399 692 389 692 374 691L311 690C299 689 263 689 251 689C232 689 201 690 152 691L100 692L97 664L150 662C174 661 185 653 185 635C185 621 181 589 176 559L89 55C85 37 73 30 31 23L26 -3L63 -2C90 0 105 0 117 0C128 0 154 -1 180 -2L217 -3L237 -4C256 -5 269 -6 277 -6C392 -6 543 87 543 227ZM166 41L217 340L302 340C405 340 455 298 455 211C455 108 382 34 282 34C228 34 207 38 166 41ZM352 655C433 655 473 619 473 544C473 439 399 376 275 376L223 376L272 650C288 650 329 655 352 655Z" stroke="rgb(0,0,0)" stroke-opacity="1" stroke-width="8" fill="rgb(0,0,0)" fill-opacity="1"></path></g></g></g></g><g><g><g><g transform="matrix(1,0,0,1,190.71875,116.68125)"><path transform="matrix(0.020399999999999998,0,0,-0.020399999999999998,0,0)" d="M45 284C45 90 152 -18 343 -18C439 -18 510 5 600 67C600 67 610 103 610 103C610 103 600 110 600 110C506 53 454 35 376 35C219 35 133 131 133 309C133 447 190 653 418 653C489 653 541 639 597 603L597 519L624 519C629 576 637 619 651 665C575 694 518 706 456 706C276 706 45 578 45 284Z" stroke="rgb(0,0,0)" stroke-opacity="1" stroke-width="8" fill="rgb(0,0,0)" fill-opacity="1"></path></g></g></g></g><g><g><g><g transform="matrix(1,0,0,1,248,39)"><path transform="matrix(0.018,0,0,-0.018,0,0)" d="M39 0C98 2 155 3 215 3C276 3 337 2 398 0L398 48L289 48L289 638L611 638L611 48L503 48L503 0C562 2 619 3 679 3C740 3 801 2 862 0L862 48L754 48L754 638L862 638L862 686L39 686L39 638L147 638L147 48L39 48ZM923 80C923 45 945 -8 1022 -8C1135 -8 1164 76 1164 320L1164 367C1164 404 1168 409 1193 409L1289 409C1315 409 1322 407 1322 383L1322 63C1322 40 1322 36 1266 36L1253 36L1253 0C1290 1 1325 3 1374 3C1418 3 1462 2 1506 0L1506 36L1489 36C1444 36 1436 38 1436 60L1436 377C1437 404 1431 409 1490 409L1506 409L1506 445L1044 445L1044 409L1060 409C1114 409 1117 406 1117 382L1117 374C1117 59 1088 43 1023 40C1031 51 1039 62 1039 81C1039 116 1011 139 981 139C951 139 923 118 923 80ZM1572 218C1572 94 1660 -6 1827 -6C1995 -6 2082 95 2082 218C2082 352 1990 453 1827 453C1663 453 1572 351 1572 218ZM1700 229C1700 274 1700 325 1717 359C1736 396 1778 417 1827 417C1869 417 1911 401 1933 366C1954 332 1954 277 1954 229C1954 142 1954 34 1827 34C1700 34 1700 142 1700 229ZM2148 0L2851 0C2884 0 2918 0 2947 -17C2990 -42 2996 -83 3004 -162L3052 -162L3033 36L3016 36C2955 36 2953 39 2953 60L2953 388C2953 405 2956 409 3009 409L3023 409L3023 445C2979 443 2935 442 2891 442C2867 442 2830 442 2770 445L2770 409L2785 409C2832 409 2839 408 2839 385L2839 67C2838 38 2844 36 2791 36L2683 36C2647 36 2644 39 2643 57L2643 381C2643 404 2641 409 2698 409L2712 409L2712 445C2652 442 2615 442 2591 442C2547 442 2503 443 2459 445L2459 409L2474 409C2521 409 2528 407 2528 385L2528 67C2527 38 2533 36 2480 36L2372 36C2336 36 2333 39 2332 57L2332 381C2332 404 2331 409 2388 409L2401 409L2401 445C2357 443 2313 442 2269 442C2245 442 2208 442 2148 445L2148 409L2163 409C2209 409 2218 408 2218 385L2218 58C2218 40 2216 36 2165 36L2148 36ZM3088 108C3088 12 3212 -6 3281 -6C3361 -6 3408 35 3430 77C3430 46 3430 0 3534 0L3582 0C3602 0 3614 0 3614 24C3614 47 3601 47 3588 47C3527 48 3527 61 3527 84L3527 299C3527 388 3456 453 3307 453C3250 453 3128 449 3128 361C3128 317 3163 298 3190 298C3221 298 3253 319 3253 361C3253 391 3234 408 3231 410C3259 416 3291 417 3303 417C3378 417 3413 375 3413 299L3413 265C3342 262 3088 253 3088 108ZM3205 109C3205 217 3363 231 3413 234L3413 139C3413 43 3321 30 3296 30C3245 30 3205 65 3205 109ZM3619 -162L3667 -162C3678 -51 3689 0 3814 0L4049 0C4170 0 4188 -39 4200 -162L4248 -162L4230 36L4213 36C4152 36 4150 39 4150 60L4150 387C4150 404 4153 409 4202 409L4219 409L4219 445L3762 445L3762 409L3774 409C3829 409 3830 407 3830 382C3830 207 3788 126 3752 85C3712 39 3686 36 3662 36L3637 36ZM3774 44C3774 50 3785 58 3793 69C3870 167 3874 305 3878 399L3879 399C3887 409 3886 408 3915 409L4007 409C4029 409 4035 405 4036 388L4036 59C4037 36 4024 36 4005 36L3804 36C3786 36 3774 38 3774 44ZM4287 0L4576 0C4591 0 4607 0 4622 1C4721 9 4790 60 4790 134C4790 185 4753 261 4579 261L4471 261L4471 381C4471 408 4475 409 4529 409L4540 409L4540 445C4496 443 4452 442 4408 442C4384 442 4347 442 4287 445L4287 409L4302 409C4348 409 4357 408 4357 385L4357 58C4357 40 4355 36 4304 36L4287 36ZM4471 60L4471 228L4546 228C4648 228 4662 166 4662 134C4662 103 4649 40 4548 40L4488 40C4475 40 4471 42 4471 60ZM5240 270L5288 270C5294 348 5296 408 5395 408C5425 408 5426 403 5426 385L5426 59C5426 38 5424 36 5349 36L5328 36L5328 0C5372 1 5417 3 5476 3C5530 3 5585 2 5639 0L5639 36L5618 36C5543 36 5540 39 5540 59L5540 386C5540 403 5542 408 5571 408C5670 408 5673 346 5679 270L5727 270L5715 445L5252 445ZM5791 -147L5791 -195C5828 -194 5864 -192 5913 -192C5957 -192 6000 -193 6044 -195L6044 -147L5975 -147L5975 40C6013 11 6050 -5 6105 -5C6248 -5 6355 81 6355 223C6355 363 6255 450 6122 450C6046 450 5997 421 5969 401L5969 450L5791 442L5791 394L5802 394C5852 394 5861 388 5861 359L5861 -147ZM5974 113C5974 116 5975 118 5975 120L5975 330C5975 337 5975 344 5979 350C5991 370 6040 409 6104 409C6178 409 6227 338 6227 224C6227 69 6147 31 6093 31C6030 31 5974 81 5974 113ZM6427 225C6427 91 6527 -6 6688 -6C6846 -6 6889 100 6889 117C6889 135 6870 135 6865 135C6848 135 6846 130 6840 114C6819 66 6762 34 6697 34C6556 34 6555 167 6555 218L6857 218C6879 218 6889 218 6889 245C6889 276 6883 349 6833 399C6796 435 6743 453 6674 453C6514 453 6427 350 6427 225ZM6555 251C6557 290 6558 332 6579 365C6605 405 6645 417 6674 417C6791 417 6793 286 6794 251ZM6944 -108C6944 -152 6984 -200 7051 -200C7155 -200 7204 -100 7223 -60L7426 371C7435 390 7443 408 7502 409L7502 445C7476 443 7449 442 7423 442C7392 442 7362 443 7331 445L7331 409C7362 408 7378 400 7378 387C7378 373 7298 217 7259 128L7258 128C7145 370 7134 387 7134 396C7134 407 7154 409 7179 409L7185 409L7185 445C7144 443 7102 442 7061 442C7023 442 6985 443 6948 445L6948 409L6957 409C7009 409 7007 407 7022 375L7192 15C7195 8 7196 3 7196 -1C7196 -7 7192 -12 7188 -21C7170 -60 7135 -163 7053 -163C7045 -163 7037 -162 7029 -160C7040 -153 7060 -138 7060 -107C7060 -73 7034 -50 7002 -50C6972 -50 6944 -71 6944 -108ZM7562 0C7626 3 7664 3 7689 3C7737 3 7784 2 7832 0L7832 36L7814 36C7748 36 7746 38 7746 59L7746 379C7746 405 7742 409 7787 409L7814 409C7930 409 7941 361 7948 270L7996 270L7983 445L7562 445L7562 409L7578 409C7624 409 7632 407 7632 385L7632 58C7632 40 7629 36 7579 36L7562 36ZM8057 218C8057 94 8145 -6 8312 -6C8480 -6 8567 95 8567 218C8567 352 8475 453 8312 453C8148 453 8057 351 8057 218ZM8185 229C8185 274 8185 325 8202 359C8221 396 8263 417 8312 417C8354 417 8396 401 8418 366C8439 332 8439 277 8439 229C8439 142 8439 34 8312 34C8185 34 8185 142 8185 229ZM8622 80C8622 45 8644 -8 8721 -8C8834 -8 8863 76 8863 320L8863 367C8863 404 8867 409 8892 409L8988 409C9014 409 9021 407 9021 383L9021 63C9021 40 9021 36 8965 36L8952 36L8952 0C8989 1 9024 3 9073 3C9117 3 9161 2 9205 0L9205 36L9188 36C9143 36 9135 38 9135 60L9135 377C9136 404 9130 409 9189 409L9205 409L9205 445L8743 445L8743 409L8759 409C8813 409 8816 406 8816 382L8816 374C8816 59 8787 43 8722 40C8730 51 8738 62 8738 81C8738 116 8710 139 8680 139C8650 139 8622 118 8622 80ZM9272 0L9561 0C9576 0 9592 0 9607 1C9706 9 9775 60 9775 134C9775 185 9738 261 9564 261L9456 261L9456 381C9456 408 9460 409 9514 409L9525 409L9525 445C9481 443 9437 442 9393 442C9369 442 9332 442 9272 445L9272 409L9287 409C9333 409 9342 408 9342 385L9342 58C9342 40 9340 36 9289 36L9272 36ZM9456 60L9456 228L9531 228C9633 228 9647 166 9647 134C9647 103 9634 40 9533 40L9473 40C9460 40 9456 42 9456 60ZM9847 0C9884 1 9920 3 9969 3C10013 3 10056 2 10100 0L10100 36L10087 36C10038 36 10032 37 10031 59L10031 228L10235 228L10235 59C10234 37 10227 36 10179 36L10166 36L10166 0C10203 1 10238 3 10287 3C10331 3 10375 2 10419 0L10419 36L10402 36C10358 36 10349 37 10349 59L10349 387C10349 404 10351 409 10401 409L10419 409L10419 445C10359 442 10322 442 10298 442C10254 442 10210 443 10166 445L10166 409L10177 409C10226 409 10234 408 10235 389L10235 261L10031 261L10031 380C10031 407 10035 409 10089 409L10100 409L10100 445C10056 443 10012 442 9968 442C9944 442 9907 442 9847 445L9847 409L9862 409C9908 409 9917 408 9917 385L9917 58C9917 40 9915 36 9864 36L9847 36ZM10486 0C10523 1 10559 3 10608 3C10652 3 10695 2 10739 0L10739 36L10712 36C10696 36 10674 37 10674 46C10674 50 10678 57 10684 65L10850 296C10858 307 10866 318 10874 330L10874 60C10874 38 10873 36 10815 36L10805 36L10805 0C10842 1 10877 3 10926 3C10970 3 11014 2 11058 0L11058 36L11041 36C10996 36 10988 38 10988 60L10988 387C10988 404 10991 409 11041 409L11058 409L11058 445C10998 442 10961 442 10937 442C10893 442 10849 443 10805 445L10805 409L10825 409C10860 409 10870 406 10870 398C10870 393 10865 387 10860 380L10694 148C10686 137 10678 126 10670 114L10670 379C10670 405 10668 409 10725 409L10739 409L10739 445C10695 443 10651 442 10607 442C10583 442 10546 442 10486 445L10486 409L10501 409C10548 409 10556 407 10556 385L10556 58C10556 40 10554 36 10503 36L10486 36ZM11125 0C11168 2 11210 3 11253 3C11301 3 11337 1 11373 0L11373 36L11361 36C11313 36 11304 37 11303 55L11303 175L11367 220C11426 148 11511 63 11511 50C11511 38 11496 36 11484 36L11482 36L11482 0C11523 2 11563 3 11604 3C11640 3 11676 2 11711 0L11711 36C11666 36 11659 36 11629 70C11483 235 11465 256 11446 276C11607 391 11615 407 11685 409L11685 445C11651 443 11634 442 11607 442C11573 442 11538 443 11504 445L11504 409C11512 407 11520 405 11521 396L11520 391L11516 386L11500 374L11303 234L11303 387C11304 406 11309 409 11361 409L11373 409L11373 445C11334 443 11295 442 11255 442C11212 442 11168 443 11125 445L11125 409L11141 409C11187 409 11195 407 11195 385L11195 58C11195 40 11193 36 11142 36L11125 36ZM11731 108C11731 12 11855 -6 11924 -6C12004 -6 12051 35 12073 77C12073 46 12073 0 12177 0L12225 0C12245 0 12257 0 12257 24C12257 47 12244 47 12231 47C12170 48 12170 61 12170 84L12170 299C12170 388 12099 453 11950 453C11893 453 11771 449 11771 361C11771 317 11806 298 11833 298C11864 298 11896 319 11896 361C11896 391 11877 408 11874 410C11902 416 11934 417 11946 417C12021 417 12056 375 12056 299L12056 265C11985 262 11731 253 11731 108ZM11848 109C11848 217 12006 231 12056 234L12056 139C12056 43 11964 30 11939 30C11888 30 11848 65 11848 109Z" stroke="rgb(0,0,0)" stroke-opacity="1" stroke-width="8" fill="rgb(0,0,0)" fill-opacity="1"></path></g></g></g></g><g><g><g><g transform="matrix(1,0,0,1,234,155)"><path transform="matrix(0.018,0,0,-0.018,0,0)" d="M39 0C98 2 155 3 215 3C276 3 337 2 398 0L398 48L289 48L289 638L611 638L611 48L503 48L503 0C562 2 619 3 679 3C740 3 801 2 862 0L862 48L754 48L754 638L862 638L862 686L39 686L39 638L147 638L147 48L39 48ZM923 80C923 45 945 -8 1022 -8C1135 -8 1164 76 1164 320L1164 367C1164 404 1168 409 1193 409L1289 409C1315 409 1322 407 1322 383L1322 63C1322 40 1322 36 1266 36L1253 36L1253 0C1290 1 1325 3 1374 3C1418 3 1462 2 1506 0L1506 36L1489 36C1444 36 1436 38 1436 60L1436 377C1437 404 1431 409 1490 409L1506 409L1506 445L1044 445L1044 409L1060 409C1114 409 1117 406 1117 382L1117 374C1117 59 1088 43 1023 40C1031 51 1039 62 1039 81C1039 116 1011 139 981 139C951 139 923 118 923 80ZM1572 218C1572 94 1660 -6 1827 -6C1995 -6 2082 95 2082 218C2082 352 1990 453 1827 453C1663 453 1572 351 1572 218ZM1700 229C1700 274 1700 325 1717 359C1736 396 1778 417 1827 417C1869 417 1911 401 1933 366C1954 332 1954 277 1954 229C1954 142 1954 34 1827 34C1700 34 1700 142 1700 229ZM2148 0L2851 0C2884 0 2918 0 2947 -17C2990 -42 2996 -83 3004 -162L3052 -162L3033 36L3016 36C2955 36 2953 39 2953 60L2953 388C2953 405 2956 409 3009 409L3023 409L3023 445C2979 443 2935 442 2891 442C2867 442 2830 442 2770 445L2770 409L2785 409C2832 409 2839 408 2839 385L2839 67C2838 38 2844 36 2791 36L2683 36C2647 36 2644 39 2643 57L2643 381C2643 404 2641 409 2698 409L2712 409L2712 445C2652 442 2615 442 2591 442C2547 442 2503 443 2459 445L2459 409L2474 409C2521 409 2528 407 2528 385L2528 67C2527 38 2533 36 2480 36L2372 36C2336 36 2333 39 2332 57L2332 381C2332 404 2331 409 2388 409L2401 409L2401 445C2357 443 2313 442 2269 442C2245 442 2208 442 2148 445L2148 409L2163 409C2209 409 2218 408 2218 385L2218 58C2218 40 2216 36 2165 36L2148 36ZM3088 108C3088 12 3212 -6 3281 -6C3361 -6 3408 35 3430 77C3430 46 3430 0 3534 0L3582 0C3602 0 3614 0 3614 24C3614 47 3601 47 3588 47C3527 48 3527 61 3527 84L3527 299C3527 388 3456 453 3307 453C3250 453 3128 449 3128 361C3128 317 3163 298 3190 298C3221 298 3253 319 3253 361C3253 391 3234 408 3231 410C3259 416 3291 417 3303 417C3378 417 3413 375 3413 299L3413 265C3342 262 3088 253 3088 108ZM3205 109C3205 217 3363 231 3413 234L3413 139C3413 43 3321 30 3296 30C3245 30 3205 65 3205 109ZM3619 -162L3667 -162C3678 -51 3689 0 3814 0L4049 0C4170 0 4188 -39 4200 -162L4248 -162L4230 36L4213 36C4152 36 4150 39 4150 60L4150 387C4150 404 4153 409 4202 409L4219 409L4219 445L3762 445L3762 409L3774 409C3829 409 3830 407 3830 382C3830 207 3788 126 3752 85C3712 39 3686 36 3662 36L3637 36ZM3774 44C3774 50 3785 58 3793 69C3870 167 3874 305 3878 399L3879 399C3887 409 3886 408 3915 409L4007 409C4029 409 4035 405 4036 388L4036 59C4037 36 4024 36 4005 36L3804 36C3786 36 3774 38 3774 44ZM4287 0L4576 0C4591 0 4607 0 4622 1C4721 9 4790 60 4790 134C4790 185 4753 261 4579 261L4471 261L4471 381C4471 408 4475 409 4529 409L4540 409L4540 445C4496 443 4452 442 4408 442C4384 442 4347 442 4287 445L4287 409L4302 409C4348 409 4357 408 4357 385L4357 58C4357 40 4355 36 4304 36L4287 36ZM4471 60L4471 228L4546 228C4648 228 4662 166 4662 134C4662 103 4649 40 4548 40L4488 40C4475 40 4471 42 4471 60ZM5245 409L5256 409C5314 409 5315 407 5315 376L5315 313C5315 309 5314 306 5314 302C5314 208 5413 187 5479 187C5540 187 5588 200 5633 221L5633 58C5632 36 5624 36 5579 36L5564 36L5564 0C5601 1 5636 3 5685 3C5729 3 5773 2 5817 0L5817 36L5800 36C5756 36 5747 37 5747 59L5747 387C5747 404 5749 409 5799 409L5817 409L5817 445C5757 442 5720 442 5696 442C5652 442 5608 443 5564 445L5564 409L5575 409C5624 409 5632 408 5633 389L5633 255C5599 239 5547 220 5486 220C5451 220 5429 242 5429 303L5429 376C5429 407 5432 409 5481 409L5498 409L5498 445C5454 443 5410 442 5366 442C5342 442 5305 442 5245 445ZM5883 225C5883 91 5983 -6 6144 -6C6302 -6 6345 100 6345 117C6345 135 6326 135 6321 135C6304 135 6302 130 6296 114C6275 66 6218 34 6153 34C6012 34 6011 167 6011 218L6313 218C6335 218 6345 218 6345 245C6345 276 6339 349 6289 399C6252 435 6199 453 6130 453C5970 453 5883 350 5883 225ZM6011 251C6013 290 6014 332 6035 365C6061 405 6101 417 6130 417C6247 417 6249 286 6250 251ZM6406 270L6454 270C6460 348 6462 408 6561 408C6591 408 6592 403 6592 385L6592 59C6592 38 6590 36 6515 36L6494 36L6494 0C6538 1 6583 3 6642 3C6696 3 6751 2 6805 0L6805 36L6784 36C6709 36 6706 39 6706 59L6706 386C6706 403 6708 408 6737 408C6836 408 6839 346 6845 270L6893 270L6881 445L6418 445ZM7465 0C7533 3 7570 3 7585 3L7588 3C7631 3 7675 2 7718 0L7718 36L7702 36C7658 36 7649 37 7649 59L7649 388C7649 405 7652 409 7702 409L7718 409L7718 445C7675 443 7631 442 7588 442C7546 442 7506 443 7465 445L7465 409L7482 409C7528 409 7535 407 7535 385L7535 69C7534 41 7540 36 7483 36L7465 36ZM6955 0L7244 0C7259 0 7275 0 7290 1C7389 9 7458 60 7458 134C7458 185 7421 261 7247 261L7139 261L7139 381C7139 408 7143 409 7197 409L7208 409L7208 445C7164 443 7120 442 7076 442C7052 442 7015 442 6955 445L6955 409L6970 409C7016 409 7025 408 7025 385L7025 58C7025 40 7023 36 6972 36L6955 36ZM7139 60L7139 228L7214 228C7316 228 7330 166 7330 134C7330 103 7317 40 7216 40L7156 40C7143 40 7139 42 7139 60ZM7787 -147L7787 -195C7824 -194 7860 -192 7909 -192C7953 -192 7996 -193 8040 -195L8040 -147L7971 -147L7971 40C8009 11 8046 -5 8101 -5C8244 -5 8351 81 8351 223C8351 363 8251 450 8118 450C8042 450 7993 421 7965 401L7965 450L7787 442L7787 394L7798 394C7848 394 7857 388 7857 359L7857 -147ZM7970 113C7970 116 7971 118 7971 120L7971 330C7971 337 7971 344 7975 350C7987 370 8036 409 8100 409C8174 409 8223 338 8223 224C8223 69 8143 31 8089 31C8026 31 7970 81 7970 113ZM8464 608C8464 569 8495 530 8542 530C8588 530 8619 569 8619 608C8619 647 8589 686 8542 686C8496 686 8464 647 8464 608ZM8687 608C8687 569 8718 530 8765 530C8811 530 8843 568 8843 607C8843 652 8806 685 8765 685C8719 685 8687 647 8687 608ZM8423 225C8423 91 8523 -6 8684 -6C8842 -6 8885 100 8885 117C8885 135 8866 135 8861 135C8844 135 8842 130 8836 114C8815 66 8758 34 8693 34C8552 34 8551 167 8551 218L8853 218C8875 218 8885 218 8885 245C8885 276 8879 349 8829 399C8792 435 8739 453 8670 453C8510 453 8423 350 8423 225ZM8551 251C8553 290 8554 332 8575 365C8601 405 8641 417 8670 417C8787 417 8789 286 8790 251ZM8940 0C8971 2 9002 3 9033 3C9067 3 9101 2 9135 0L9135 36C9105 38 9099 48 9099 55C9099 65 9125 90 9202 176C9298 63 9309 52 9309 47C9309 41 9301 37 9273 36L9273 0C9314 2 9355 3 9396 3C9432 3 9467 2 9503 0L9503 36L9496 36C9438 36 9440 39 9419 63L9265 245L9265 246L9378 373C9396 393 9409 408 9483 409L9483 445C9453 443 9422 442 9391 442C9357 442 9322 443 9288 445L9288 409C9301 408 9323 404 9323 390C9323 378 9304 366 9234 283C9154 377 9144 388 9135 401L9150 406L9175 409L9175 445C9135 443 9095 442 9055 442C9018 442 8982 443 8945 445L8945 409L8959 409C9003 409 9007 408 9028 383L9171 213L9046 73C9029 55 9020 37 8940 36ZM9547 -108C9547 -152 9587 -200 9654 -200C9758 -200 9807 -100 9826 -60L10029 371C10038 390 10046 408 10105 409L10105 445C10079 443 10052 442 10026 442C9995 442 9965 443 9934 445L9934 409C9965 408 9981 400 9981 387C9981 373 9901 217 9862 128L9861 128C9748 370 9737 387 9737 396C9737 407 9757 409 9782 409L9788 409L9788 445C9747 443 9705 442 9664 442C9626 442 9588 443 9551 445L9551 409L9560 409C9612 409 9610 407 9625 375L9795 15C9798 8 9799 3 9799 -1C9799 -7 9795 -12 9791 -21C9773 -60 9738 -163 9656 -163C9648 -163 9640 -162 9632 -160C9643 -153 9663 -138 9663 -107C9663 -73 9637 -50 9605 -50C9575 -50 9547 -71 9547 -108ZM10165 0C10229 3 10267 3 10292 3C10340 3 10387 2 10435 0L10435 36L10417 36C10351 36 10349 38 10349 59L10349 379C10349 405 10345 409 10390 409L10417 409C10533 409 10544 361 10551 270L10599 270L10586 445L10165 445L10165 409L10181 409C10227 409 10235 407 10235 385L10235 58C10235 40 10232 36 10182 36L10165 36ZM10660 218C10660 94 10748 -6 10915 -6C11083 -6 11170 95 11170 218C11170 352 11078 453 10915 453C10751 453 10660 351 10660 218ZM10788 229C10788 274 10788 325 10805 359C10824 396 10866 417 10915 417C10957 417 10999 401 11021 366C11042 332 11042 277 11042 229C11042 142 11042 34 10915 34C10788 34 10788 142 10788 229ZM11225 80C11225 45 11247 -8 11324 -8C11437 -8 11466 76 11466 320L11466 367C11466 404 11470 409 11495 409L11591 409C11617 409 11624 407 11624 383L11624 63C11624 40 11624 36 11568 36L11555 36L11555 0C11592 1 11627 3 11676 3C11720 3 11764 2 11808 0L11808 36L11791 36C11746 36 11738 38 11738 60L11738 377C11739 404 11733 409 11792 409L11808 409L11808 445L11346 445L11346 409L11362 409C11416 409 11419 406 11419 382L11419 374C11419 59 11390 43 11325 40C11333 51 11341 62 11341 81C11341 116 11313 139 11283 139C11253 139 11225 118 11225 80ZM11875 0L12164 0C12179 0 12195 0 12210 1C12309 9 12378 60 12378 134C12378 185 12341 261 12167 261L12059 261L12059 381C12059 408 12063 409 12117 409L12128 409L12128 445C12084 443 12040 442 11996 442C11972 442 11935 442 11875 445L11875 409L11890 409C11936 409 11945 408 11945 385L11945 58C11945 40 11943 36 11892 36L11875 36ZM12059 60L12059 228L12134 228C12236 228 12250 166 12250 134C12250 103 12237 40 12136 40L12076 40C12063 40 12059 42 12059 60ZM12450 0C12487 1 12523 3 12572 3C12616 3 12659 2 12703 0L12703 36L12690 36C12641 36 12635 37 12634 59L12634 228L12838 228L12838 59C12837 37 12830 36 12782 36L12769 36L12769 0C12806 1 12841 3 12890 3C12934 3 12978 2 13022 0L13022 36L13005 36C12961 36 12952 37 12952 59L12952 387C12952 404 12954 409 13004 409L13022 409L13022 445C12962 442 12925 442 12901 442C12857 442 12813 443 12769 445L12769 409L12780 409C12829 409 12837 408 12838 389L12838 261L12634 261L12634 380C12634 407 12638 409 12692 409L12703 409L12703 445C12659 443 12615 442 12571 442C12547 442 12510 442 12450 445L12450 409L12465 409C12511 409 12520 408 12520 385L12520 58C12520 40 12518 36 12467 36L12450 36ZM13089 0C13126 1 13162 3 13211 3C13255 3 13298 2 13342 0L13342 36L13315 36C13299 36 13277 37 13277 46C13277 50 13281 57 13287 65L13453 296C13461 307 13469 318 13477 330L13477 60C13477 38 13476 36 13418 36L13408 36L13408 0C13445 1 13480 3 13529 3C13573 3 13617 2 13661 0L13661 36L13644 36C13599 36 13591 38 13591 60L13591 387C13591 404 13594 409 13644 409L13661 409L13661 445C13601 442 13564 442 13540 442C13496 442 13452 443 13408 445L13408 409L13428 409C13463 409 13473 406 13473 398C13473 393 13468 387 13463 380L13297 148C13289 137 13281 126 13273 114L13273 379C13273 405 13271 409 13328 409L13342 409L13342 445C13298 443 13254 442 13210 442C13186 442 13149 442 13089 445L13089 409L13104 409C13151 409 13159 407 13159 385L13159 58C13159 40 13157 36 13106 36L13089 36ZM13728 0C13771 2 13813 3 13856 3C13904 3 13940 1 13976 0L13976 36L13964 36C13916 36 13907 37 13906 55L13906 175L13970 220C14029 148 14114 63 14114 50C14114 38 14099 36 14087 36L14085 36L14085 0C14126 2 14166 3 14207 3C14243 3 14279 2 14314 0L14314 36C14269 36 14262 36 14232 70C14086 235 14068 256 14049 276C14210 391 14218 407 14288 409L14288 445C14254 443 14237 442 14210 442C14176 442 14141 443 14107 445L14107 409C14115 407 14123 405 14124 396L14123 391L14119 386L14103 374L13906 234L13906 387C13907 406 13912 409 13964 409L13976 409L13976 445C13937 443 13898 442 13858 442C13815 442 13771 443 13728 445L13728 409L13744 409C13790 409 13798 407 13798 385L13798 58C13798 40 13796 36 13745 36L13728 36ZM14334 108C14334 12 14458 -6 14527 -6C14607 -6 14654 35 14676 77C14676 46 14676 0 14780 0L14828 0C14848 0 14860 0 14860 24C14860 47 14847 47 14834 47C14773 48 14773 61 14773 84L14773 299C14773 388 14702 453 14553 453C14496 453 14374 449 14374 361C14374 317 14409 298 14436 298C14467 298 14499 319 14499 361C14499 391 14480 408 14477 410C14505 416 14537 417 14549 417C14624 417 14659 375 14659 299L14659 265C14588 262 14334 253 14334 108ZM14451 109C14451 217 14609 231 14659 234L14659 139C14659 43 14567 30 14542 30C14491 30 14451 65 14451 109Z" stroke="rgb(0,0,0)" stroke-opacity="1" stroke-width="8" fill="rgb(0,0,0)" fill-opacity="1"></path></g></g></g></g><g><g><g><g transform="matrix(1,0,0,1,294,80.390625)"><path transform="matrix(0.017,0,0,-0.017,0,0)" d="M108 471C108 386 146 339 230 319L325 296C379 283 406 248 406 191C406 96 335 30 232 30C178 30 140 42 96 73L96 172L66 172C60 117 53 72 42 20C91 -5 144 -18 197 -18C352 -18 485 99 485 234C485 313 442 355 341 377L276 391C210 405 180 442 180 508C180 595 247 658 339 658C388 658 421 645 451 613L451 537L481 537C485 591 492 629 506 672C461 696 421 706 374 706C250 706 108 614 108 471Z" stroke="rgb(0,0,0)" stroke-opacity="1" stroke-width="8" fill="rgb(0,0,0)" fill-opacity="1"></path></g></g><g><g><g><g><g transform="matrix(1,0,0,1,303.9375,83.4)"><path transform="matrix(0.0119,0,0,-0.0119,0,0)" d="M567 55C567 39 552 30 524 28L480 25L480 -3C582 0 582 0 602 0C622 0 622 0 724 -3L724 25L698 28C651 35 650 35 642 80L555 705L509 705L136 112C100 56 82 40 48 32L28 27L28 -3C120 0 120 0 140 0C159 0 161 0 247 -3L247 25L195 28C179 29 164 38 164 47C164 55 171 69 190 102L292 277L538 277L563 89L563 86C563 84 567 69 567 55ZM496 601L533 313L317 313ZM1294 227C1294 337 1210 353 1128 365C1185 385 1210 397 1241 425C1287 464 1310 511 1310 562C1310 644 1252 692 1152 692C1150 692 1140 692 1125 691L1062 690C1050 689 1014 689 1002 689C983 689 952 690 903 691L851 692L848 664L901 662C925 661 936 653 936 635C936 621 932 589 927 559L840 55C836 37 824 30 782 23L777 -3L814 -2C841 0 856 0 868 0C879 0 905 -1 931 -2L968 -3L988 -4C1007 -5 1020 -6 1028 -6C1143 -6 1294 87 1294 227ZM917 41L968 340L1053 340C1156 340 1206 298 1206 211C1206 108 1133 34 1033 34C979 34 958 38 917 41ZM1103 655C1184 655 1224 619 1224 544C1224 439 1150 376 1026 376L974 376L1023 650C1039 650 1080 655 1103 655ZM1406 284C1406 90 1513 -18 1704 -18C1800 -18 1871 5 1961 67C1961 67 1971 103 1971 103C1971 103 1961 110 1961 110C1867 53 1815 35 1737 35C1580 35 1494 131 1494 309C1494 447 1551 653 1779 653C1850 653 1902 639 1958 603L1958 519L1985 519C1990 576 1998 619 2012 665C1936 694 1879 706 1817 706C1637 706 1406 578 1406 284Z" stroke="rgb(0,0,0)" stroke-opacity="1" stroke-width="8" fill="rgb(0,0,0)" fill-opacity="1"></path></g></g></g></g></g><g><g transform="matrix(1,0,0,1,334.40625,80.390625)"><path transform="matrix(0.017,0,0,-0.017,0,0)" d="M604 347L604 406L65 406L65 347ZM604 134L604 193L65 193L65 134Z" stroke="rgb(0,0,0)" stroke-opacity="1" stroke-width="8" fill="rgb(0,0,0)" fill-opacity="1"></path></g></g><g><g><g><g><g transform="matrix(1,0,0,1,352.546875,68)"><path transform="matrix(0.017,0,0,-0.017,0,0)" d="M418 -3L418 27L366 30C311 33 301 44 301 96L301 700L60 598L67 548L217 614L217 96C217 44 206 33 152 30L96 27L96 -3C250 0 250 0 261 0C292 0 402 -3 418 -3Z" stroke="rgb(0,0,0)" stroke-opacity="1" stroke-width="8" fill="rgb(0,0,0)" fill-opacity="1"></path></g></g></g></g><g><g><g><g transform="matrix(1,0,0,1,352.546875,93.78125)"><path transform="matrix(0.017,0,0,-0.017,0,0)" d="M16 23L16 -3C203 -3 203 0 239 0C275 0 275 -3 468 -3L468 82C353 77 307 81 122 77L304 270C401 373 431 428 431 503C431 618 353 689 226 689C154 689 105 669 56 619L39 483L68 483L81 529C97 587 133 612 200 612C286 612 341 558 341 473C341 398 299 324 186 204Z" stroke="rgb(0,0,0)" stroke-opacity="1" stroke-width="8" fill="rgb(0,0,0)" fill-opacity="1"></path></g></g></g></g><line style="fill:none;stroke-width:1px;stroke:rgb(0, 0, 0);" x1="352.546875" y1="76.140625" x2="361.03125" y2="76.140625"></line></g><g><g transform="matrix(1,0,0,1,362.71875,80.390625)"><path transform="matrix(0.017,0,0,-0.017,0,0)" d="M235 722L223 733C171 707 135 698 63 691L59 670L107 670C131 670 141 663 141 646C141 639 140 628 139 622L38 71C37 68 37 64 37 61C37 22 85 -11 140 -11C177 -11 228 8 271 39C367 107 433 244 433 376C433 414 424 453 412 468C405 477 392 482 377 482C353 482 323 474 295 460C244 433 211 403 149 324ZM322 424C348 424 361 401 361 352C361 288 340 202 310 137C277 68 237 36 183 36C137 36 112 59 112 101C112 135 127 276 208 361C241 395 293 424 322 424ZM804 330L827 330C835 395 842 432 851 458C827 473 792 482 755 482C710 483 637 463 580 400C526 352 487 241 487 136C487 40 529 -11 609 -11C663 -11 711 9 766 54L816 95L808 115L793 105C721 57 683 40 648 40C592 40 563 80 563 159C563 267 598 371 647 409C668 425 692 433 723 433C768 433 804 414 804 390Z" stroke="rgb(0,0,0)" stroke-opacity="1" stroke-width="8" fill="rgb(0,0,0)" fill-opacity="1"></path></g></g><g><g><g transform="matrix(1,0,0,1,380.875,80.390625)"><path transform="matrix(0.017,0,0,-0.017,0,0)" d="M41 143C41 74 38 44 30 4C82 -13 121 -20 167 -20C298 -20 391 50 391 148C391 321 107 228 107 358C107 408 142 436 203 436C270 436 321 401 321 354L321 331L349 331C350 389 351 413 354 444C301 462 265 469 224 469C108 469 37 414 37 324C37 276 59 242 105 221C223 169 317 195 317 109C317 55 267 17 196 17C123 17 71 52 71 102L71 143ZM611 465L602 469C551 448 499 434 446 428L446 400L483 400C523 400 527 393 527 327L527 102C527 39 524 32 490 30L444 27L444 -3C544 0 544 0 569 0C594 0 594 0 694 -3L694 27L648 30C614 32 611 39 611 102ZM565 687C535 687 509 661 509 631C509 602 535 576 564 576C593 576 620 602 620 631C620 659 593 687 565 687ZM1123 -3C1184 0 1185 0 1202 0C1216 0 1216 0 1285 -3L1285 27L1244 30C1210 32 1207 38 1207 102L1207 295C1207 412 1152 469 1040 469C1003 469 982 462 961 444L885 378L885 465L876 469C825 448 773 434 720 428L720 400L757 400C797 400 801 393 801 327L801 102C801 39 798 32 764 30L719 27L719 -3C787 -1 814 0 843 0C872 0 899 -1 967 -3L967 27L922 30C888 32 885 39 885 102L885 314C885 359 951 408 1012 408C1079 408 1123 358 1123 281Z" stroke="rgb(0,0,0)" stroke-opacity="1" stroke-width="8" fill="rgb(0,0,0)" fill-opacity="1"></path></g></g></g><g><g transform="matrix(1,0,0,1,406.265625,80.390625)"><path transform="matrix(0.017,0,0,-0.017,0,0)" d="M400 -16C446 -16 513 54 545 84L545 97L532 97C513 79 489 55 462 55C417 55 424 184 424 216C474 278 520 343 558 413C551 428 544 444 536 459L525 459C511 391 456 315 420 257C422 336 445 472 332 473C164 473 27 243 24 93C23 33 43 -16 111 -16C203 -16 297 64 357 131C357 96 348 -15 400 -16ZM284 437C371 437 358 224 357 164C314 113 233 28 162 28C109 28 98 70 99 115C100 202 175 437 284 437Z" stroke="rgb(0,0,0)" stroke-opacity="1" stroke-width="8" fill="rgb(0,0,0)" fill-opacity="1"></path></g></g></g></g><g><g><g><g transform="matrix(1,0,0,1,287,196.390625)"><path transform="matrix(0.017,0,0,-0.017,0,0)" d="M108 471C108 386 146 339 230 319L325 296C379 283 406 248 406 191C406 96 335 30 232 30C178 30 140 42 96 73L96 172L66 172C60 117 53 72 42 20C91 -5 144 -18 197 -18C352 -18 485 99 485 234C485 313 442 355 341 377L276 391C210 405 180 442 180 508C180 595 247 658 339 658C388 658 421 645 451 613L451 537L481 537C485 591 492 629 506 672C461 696 421 706 374 706C250 706 108 614 108 471Z" stroke="rgb(0,0,0)" stroke-opacity="1" stroke-width="8" fill="rgb(0,0,0)" fill-opacity="1"></path></g></g><g><g><g><g><g transform="matrix(1,0,0,1,296.9375,199.4)"><path transform="matrix(0.0119,0,0,-0.0119,0,0)" d="M567 55C567 39 552 30 524 28L480 25L480 -3C582 0 582 0 602 0C622 0 622 0 724 -3L724 25L698 28C651 35 650 35 642 80L555 705L509 705L136 112C100 56 82 40 48 32L28 27L28 -3C120 0 120 0 140 0C159 0 161 0 247 -3L247 25L195 28C179 29 164 38 164 47C164 55 171 69 190 102L292 277L538 277L563 89L563 86C563 84 567 69 567 55ZM496 601L533 313L317 313ZM1294 227C1294 337 1210 353 1128 365C1185 385 1210 397 1241 425C1287 464 1310 511 1310 562C1310 644 1252 692 1152 692C1150 692 1140 692 1125 691L1062 690C1050 689 1014 689 1002 689C983 689 952 690 903 691L851 692L848 664L901 662C925 661 936 653 936 635C936 621 932 589 927 559L840 55C836 37 824 30 782 23L777 -3L814 -2C841 0 856 0 868 0C879 0 905 -1 931 -2L968 -3L988 -4C1007 -5 1020 -6 1028 -6C1143 -6 1294 87 1294 227ZM917 41L968 340L1053 340C1156 340 1206 298 1206 211C1206 108 1133 34 1033 34C979 34 958 38 917 41ZM1103 655C1184 655 1224 619 1224 544C1224 439 1150 376 1026 376L974 376L1023 650C1039 650 1080 655 1103 655ZM1406 284C1406 90 1513 -18 1704 -18C1800 -18 1871 5 1961 67C1961 67 1971 103 1971 103C1971 103 1961 110 1961 110C1867 53 1815 35 1737 35C1580 35 1494 131 1494 309C1494 447 1551 653 1779 653C1850 653 1902 639 1958 603L1958 519L1985 519C1990 576 1998 619 2012 665C1936 694 1879 706 1817 706C1637 706 1406 578 1406 284ZM2364 -3C2436 -3 2485 8 2537 34C2693 114 2789 265 2789 431C2789 529 2759 599 2698 642C2652 675 2567 693 2472 692L2268 689L2258 689C2249 689 2246 689 2145 692L2142 664L2195 662C2219 661 2230 653 2230 635C2230 621 2226 589 2221 559L2134 55C2129 31 2104 29 2081 23L2076 -3L2169 0L2224 0C2259 0 2330 -3 2364 -3ZM2432 655C2614 655 2697 579 2697 415C2697 225 2597 41 2377 41C2333 41 2284 46 2216 56C2216 68 2217 75 2220 93L2316 650C2339 650 2397 655 2432 655Z" stroke="rgb(0,0,0)" stroke-opacity="1" stroke-width="8" fill="rgb(0,0,0)" fill-opacity="1"></path></g></g></g></g></g><g><g transform="matrix(1,0,0,1,336.640625,196.390625)"><path transform="matrix(0.017,0,0,-0.017,0,0)" d="M604 347L604 406L65 406L65 347ZM604 134L604 193L65 193L65 134Z" stroke="rgb(0,0,0)" stroke-opacity="1" stroke-width="8" fill="rgb(0,0,0)" fill-opacity="1"></path></g></g><g><g><g><g><g transform="matrix(1,0,0,1,354.78125,184)"><path transform="matrix(0.017,0,0,-0.017,0,0)" d="M418 -3L418 27L366 30C311 33 301 44 301 96L301 700L60 598L67 548L217 614L217 96C217 44 206 33 152 30L96 27L96 -3C250 0 250 0 261 0C292 0 402 -3 418 -3Z" stroke="rgb(0,0,0)" stroke-opacity="1" stroke-width="8" fill="rgb(0,0,0)" fill-opacity="1"></path></g></g></g></g><g><g><g><g transform="matrix(1,0,0,1,354.78125,209.78125)"><path transform="matrix(0.017,0,0,-0.017,0,0)" d="M16 23L16 -3C203 -3 203 0 239 0C275 0 275 -3 468 -3L468 82C353 77 307 81 122 77L304 270C401 373 431 428 431 503C431 618 353 689 226 689C154 689 105 669 56 619L39 483L68 483L81 529C97 587 133 612 200 612C286 612 341 558 341 473C341 398 299 324 186 204Z" stroke="rgb(0,0,0)" stroke-opacity="1" stroke-width="8" fill="rgb(0,0,0)" fill-opacity="1"></path></g></g></g></g><line style="fill:none;stroke-width:1px;stroke:rgb(0, 0, 0);" x1="354.78125" y1="192.140625" x2="363.265625" y2="192.140625"></line></g><g><g transform="matrix(1,0,0,1,364.953125,196.390625)"><path transform="matrix(0.017,0,0,-0.017,0,0)" d="M483 722L471 733C419 707 383 698 311 691L307 670L355 670C379 670 389 663 389 646C389 638 388 629 387 622L359 468C329 477 302 482 277 482C208 482 114 410 68 323C37 265 17 170 17 86C17 21 32 -11 61 -11C88 -11 125 6 159 33C213 77 246 116 313 217L290 126C279 82 274 50 274 24C274 3 283 -9 300 -9C317 -9 341 3 375 28L456 88L446 107L402 76C388 66 372 59 363 59C355 59 349 68 349 82C349 90 350 99 357 128ZM114 59C98 59 89 73 89 98C89 224 135 380 184 418C197 428 216 433 243 433C287 433 316 427 349 410L337 351C300 171 159 59 114 59Z" stroke="rgb(0,0,0)" stroke-opacity="1" stroke-width="8" fill="rgb(0,0,0)" fill-opacity="1"></path></g></g><g><g><g><g><g transform="matrix(1,0,0,1,373.9375,199.4)"><path transform="matrix(0.0119,0,0,-0.0119,0,0)" d="M418 -3L418 27L366 30C311 33 301 44 301 96L301 700L60 598L67 548L217 614L217 96C217 44 206 33 152 30L96 27L96 -3C250 0 250 0 261 0C292 0 402 -3 418 -3Z" stroke="rgb(0,0,0)" stroke-opacity="1" stroke-width="8" fill="rgb(0,0,0)" fill-opacity="1"></path></g></g></g></g></g><g><g transform="matrix(1,0,0,1,380.890625,196.390625)"><path transform="matrix(0.017,0,0,-0.017,0,0)" d="M483 722L471 733C419 707 383 698 311 691L307 670L355 670C379 670 389 663 389 646C389 638 388 629 387 622L359 468C329 477 302 482 277 482C208 482 114 410 68 323C37 265 17 170 17 86C17 21 32 -11 61 -11C88 -11 125 6 159 33C213 77 246 116 313 217L290 126C279 82 274 50 274 24C274 3 283 -9 300 -9C317 -9 341 3 375 28L456 88L446 107L402 76C388 66 372 59 363 59C355 59 349 68 349 82C349 90 350 99 357 128ZM114 59C98 59 89 73 89 98C89 224 135 380 184 418C197 428 216 433 243 433C287 433 316 427 349 410L337 351C300 171 159 59 114 59Z" stroke="rgb(0,0,0)" stroke-opacity="1" stroke-width="8" fill="rgb(0,0,0)" fill-opacity="1"></path></g></g><g><g><g><g><g transform="matrix(1,0,0,1,389.875,199.4)"><path transform="matrix(0.0119,0,0,-0.0119,0,0)" d="M16 23L16 -3C203 -3 203 0 239 0C275 0 275 -3 468 -3L468 82C353 77 307 81 122 77L304 270C401 373 431 428 431 503C431 618 353 689 226 689C154 689 105 669 56 619L39 483L68 483L81 529C97 587 133 612 200 612C286 612 341 558 341 473C341 398 299 324 186 204Z" stroke="rgb(0,0,0)" stroke-opacity="1" stroke-width="8" fill="rgb(0,0,0)" fill-opacity="1"></path></g></g></g></g></g><g><g><g transform="matrix(1,0,0,1,400.21875,196.390625)"><path transform="matrix(0.017,0,0,-0.017,0,0)" d="M41 143C41 74 38 44 30 4C82 -13 121 -20 167 -20C298 -20 391 50 391 148C391 321 107 228 107 358C107 408 142 436 203 436C270 436 321 401 321 354L321 331L349 331C350 389 351 413 354 444C301 462 265 469 224 469C108 469 37 414 37 324C37 276 59 242 105 221C223 169 317 195 317 109C317 55 267 17 196 17C123 17 71 52 71 102L71 143ZM611 465L602 469C551 448 499 434 446 428L446 400L483 400C523 400 527 393 527 327L527 102C527 39 524 32 490 30L444 27L444 -3C544 0 544 0 569 0C594 0 594 0 694 -3L694 27L648 30C614 32 611 39 611 102ZM565 687C535 687 509 661 509 631C509 602 535 576 564 576C593 576 620 602 620 631C620 659 593 687 565 687ZM1123 -3C1184 0 1185 0 1202 0C1216 0 1216 0 1285 -3L1285 27L1244 30C1210 32 1207 38 1207 102L1207 295C1207 412 1152 469 1040 469C1003 469 982 462 961 444L885 378L885 465L876 469C825 448 773 434 720 428L720 400L757 400C797 400 801 393 801 327L801 102C801 39 798 32 764 30L719 27L719 -3C787 -1 814 0 843 0C872 0 899 -1 967 -3L967 27L922 30C888 32 885 39 885 102L885 314C885 359 951 408 1012 408C1079 408 1123 358 1123 281Z" stroke="rgb(0,0,0)" stroke-opacity="1" stroke-width="8" fill="rgb(0,0,0)" fill-opacity="1"></path></g></g></g><g><g transform="matrix(1,0,0,1,425.609375,196.390625)"><path transform="matrix(0.017,0,0,-0.017,0,0)" d="M400 -16C446 -16 513 54 545 84L545 97L532 97C513 79 489 55 462 55C417 55 424 184 424 216C474 278 520 343 558 413C551 428 544 444 536 459L525 459C511 391 456 315 420 257C422 336 445 472 332 473C164 473 27 243 24 93C23 33 43 -16 111 -16C203 -16 297 64 357 131C357 96 348 -15 400 -16ZM284 437C371 437 358 224 357 164C314 113 233 28 162 28C109 28 98 70 99 115C100 202 175 437 284 437Z" stroke="rgb(0,0,0)" stroke-opacity="1" stroke-width="8" fill="rgb(0,0,0)" fill-opacity="1"></path></g></g></g></g><g><g><g><g transform="matrix(1,0,0,1,24,257.446875)"><path transform="matrix(0.020399999999999998,0,0,-0.020399999999999998,0,0)" d="M567 55C567 39 552 30 524 28L480 25L480 -3C582 0 582 0 602 0C622 0 622 0 724 -3L724 25L698 28C651 35 650 35 642 80L555 705L509 705L136 112C100 56 82 40 48 32L28 27L28 -3C120 0 120 0 140 0C159 0 161 0 247 -3L247 25L195 28C179 29 164 38 164 47C164 55 171 69 190 102L292 277L538 277L563 89L563 86C563 84 567 69 567 55ZM496 601L533 313L317 313Z" stroke="rgb(0,0,0)" stroke-opacity="1" stroke-width="8" fill="rgb(0,0,0)" fill-opacity="1"></path></g></g></g></g><g><g><g><g transform="matrix(1,0,0,1,66.8125,147.4)"><path transform="matrix(0.020399999999999998,0,0,-0.020399999999999998,0,0)" d="M543 227C543 337 459 353 377 365C434 385 459 397 490 425C536 464 559 511 559 562C559 644 501 692 401 692C399 692 389 692 374 691L311 690C299 689 263 689 251 689C232 689 201 690 152 691L100 692L97 664L150 662C174 661 185 653 185 635C185 621 181 589 176 559L89 55C85 37 73 30 31 23L26 -3L63 -2C90 0 105 0 117 0C128 0 154 -1 180 -2L217 -3L237 -4C256 -5 269 -6 277 -6C392 -6 543 87 543 227ZM166 41L217 340L302 340C405 340 455 298 455 211C455 108 382 34 282 34C228 34 207 38 166 41ZM352 655C433 655 473 619 473 544C473 439 399 376 275 376L223 376L272 650C288 650 329 655 352 655Z" stroke="rgb(0,0,0)" stroke-opacity="1" stroke-width="8" fill="rgb(0,0,0)" fill-opacity="1"></path></g></g></g></g><g><g><g><g transform="matrix(1,0,0,1,169.8125,168.4)"><path transform="matrix(0.020399999999999998,0,0,-0.020399999999999998,0,0)" d="M45 284C45 90 152 -18 343 -18C439 -18 510 5 600 67C600 67 610 103 610 103C610 103 600 110 600 110C506 53 454 35 376 35C219 35 133 131 133 309C133 447 190 653 418 653C489 653 541 639 597 603L597 519L624 519C629 576 637 619 651 665C575 694 518 706 456 706C276 706 45 578 45 284Z" stroke="rgb(0,0,0)" stroke-opacity="1" stroke-width="8" fill="rgb(0,0,0)" fill-opacity="1"></path></g></g></g></g><g><g><g><g transform="matrix(1,0,0,1,207.8125,249.4)"><path transform="matrix(0.020399999999999998,0,0,-0.020399999999999998,0,0)" d="M316 -3C388 -3 437 8 489 34C645 114 741 265 741 431C741 529 711 599 650 642C604 675 519 693 424 692L220 689L210 689C201 689 198 689 97 692L94 664L147 662C171 661 182 653 182 635C182 621 178 589 173 559L86 55C81 31 56 29 33 23L28 -3L121 0L176 0C211 0 282 -3 316 -3ZM384 655C566 655 649 579 649 415C649 225 549 41 329 41C285 41 236 46 168 56C168 68 169 75 172 93L268 650C291 650 349 655 384 655Z" stroke="rgb(0,0,0)" stroke-opacity="1" stroke-width="8" fill="rgb(0,0,0)" fill-opacity="1"></path></g></g></g></g><g><g><g><g transform="matrix(1,0,0,1,101,196)"><path transform="matrix(0.017,0,0,-0.017,0,0)" d="M400 -16C446 -16 513 54 545 84L545 97L532 97C513 79 489 55 462 55C417 55 424 184 424 216C474 278 520 343 558 413C551 428 544 444 536 459L525 459C511 391 456 315 420 257C422 336 445 472 332 473C164 473 27 243 24 93C23 33 43 -16 111 -16C203 -16 297 64 357 131C357 96 348 -15 400 -16ZM284 437C371 437 358 224 357 164C314 113 233 28 162 28C109 28 98 70 99 115C100 202 175 437 284 437Z" stroke="rgb(0,0,0)" stroke-opacity="1" stroke-width="8" fill="rgb(0,0,0)" fill-opacity="1"></path></g></g></g></g><g><g><g><g transform="matrix(1,0,0,1,98,221)"><path transform="matrix(0.017,0,0,-0.017,0,0)" d="M483 722L471 733C419 707 383 698 311 691L307 670L355 670C379 670 389 663 389 646C389 638 388 629 387 622L359 468C329 477 302 482 277 482C208 482 114 410 68 323C37 265 17 170 17 86C17 21 32 -11 61 -11C88 -11 125 6 159 33C213 77 246 116 313 217L290 126C279 82 274 50 274 24C274 3 283 -9 300 -9C317 -9 341 3 375 28L456 88L446 107L402 76C388 66 372 59 363 59C355 59 349 68 349 82C349 90 350 99 357 128ZM114 59C98 59 89 73 89 98C89 224 135 380 184 418C197 428 216 433 243 433C287 433 316 427 349 410L337 351C300 171 159 59 114 59Z" stroke="rgb(0,0,0)" stroke-opacity="1" stroke-width="8" fill="rgb(0,0,0)" fill-opacity="1"></path></g></g><g><g><g><g><g transform="matrix(1,0,0,1,106.984375,224.009375)"><path transform="matrix(0.0119,0,0,-0.0119,0,0)" d="M418 -3L418 27L366 30C311 33 301 44 301 96L301 700L60 598L67 548L217 614L217 96C217 44 206 33 152 30L96 27L96 -3C250 0 250 0 261 0C292 0 402 -3 418 -3Z" stroke="rgb(0,0,0)" stroke-opacity="1" stroke-width="8" fill="rgb(0,0,0)" fill-opacity="1"></path></g></g></g></g></g></g></g><g><g><g><g transform="matrix(1,0,0,1,145.5,220.265625)"><path transform="matrix(0.017,0,0,-0.017,0,0)" d="M483 722L471 733C419 707 383 698 311 691L307 670L355 670C379 670 389 663 389 646C389 638 388 629 387 622L359 468C329 477 302 482 277 482C208 482 114 410 68 323C37 265 17 170 17 86C17 21 32 -11 61 -11C88 -11 125 6 159 33C213 77 246 116 313 217L290 126C279 82 274 50 274 24C274 3 283 -9 300 -9C317 -9 341 3 375 28L456 88L446 107L402 76C388 66 372 59 363 59C355 59 349 68 349 82C349 90 350 99 357 128ZM114 59C98 59 89 73 89 98C89 224 135 380 184 418C197 428 216 433 243 433C287 433 316 427 349 410L337 351C300 171 159 59 114 59Z" stroke="rgb(0,0,0)" stroke-opacity="1" stroke-width="8" fill="rgb(0,0,0)" fill-opacity="1"></path></g></g><g><g><g><g><g transform="matrix(1,0,0,1,154.484375,223.275)"><path transform="matrix(0.0119,0,0,-0.0119,0,0)" d="M16 23L16 -3C203 -3 203 0 239 0C275 0 275 -3 468 -3L468 82C353 77 307 81 122 77L304 270C401 373 431 428 431 503C431 618 353 689 226 689C154 689 105 669 56 619L39 483L68 483L81 529C97 587 133 612 200 612C286 612 341 558 341 473C341 398 299 324 186 204Z" stroke="rgb(0,0,0)" stroke-opacity="1" stroke-width="8" fill="rgb(0,0,0)" fill-opacity="1"></path></g></g></g></g></g></g></g><g><g><g><g transform="matrix(1,0,0,1,182,69)"><path transform="matrix(0.017,0,0,-0.017,0,0)" d="M271 204L242 77C238 60 236 42 236 26C236 4 245 -9 260 -9C283 -9 324 17 406 85L399 106C375 86 346 59 324 59C315 59 309 68 309 82C309 87 309 90 310 93L402 472L392 481L359 463C318 478 301 482 274 482C246 482 226 477 199 464C137 433 104 403 79 354C35 265 4 145 4 67C4 23 19 -11 38 -11C75 -11 155 41 271 204ZM319 414C297 305 278 253 244 201C187 117 126 59 94 59C82 59 76 72 76 99C76 163 104 280 139 360C163 415 186 433 234 433C257 433 275 429 319 414Z" stroke="rgb(0,0,0)" stroke-opacity="1" stroke-width="8" fill="rgb(0,0,0)" fill-opacity="1"></path></g></g></g></g><g><g><g><g transform="matrix(1,0,0,1,113,128)"><path transform="matrix(0.017,0,0,-0.017,0,0)" d="M235 722L223 733C171 707 135 698 63 691L59 670L107 670C131 670 141 663 141 646C141 639 140 628 139 622L38 71C37 68 37 64 37 61C37 22 85 -11 140 -11C177 -11 228 8 271 39C367 107 433 244 433 376C433 414 424 453 412 468C405 477 392 482 377 482C353 482 323 474 295 460C244 433 211 403 149 324ZM322 424C348 424 361 401 361 352C361 288 340 202 310 137C277 68 237 36 183 36C137 36 112 59 112 101C112 135 127 276 208 361C241 395 293 424 322 424Z" stroke="rgb(0,0,0)" stroke-opacity="1" stroke-width="8" fill="rgb(0,0,0)" fill-opacity="1"></path></g></g></g></g><g><g><g><g transform="matrix(1,0,0,1,96,63)"><path transform="matrix(0.017,0,0,-0.017,0,0)" d="M342 330L365 330C373 395 380 432 389 458C365 473 330 482 293 482C248 483 175 463 118 400C64 352 25 241 25 136C25 40 67 -11 147 -11C201 -11 249 9 304 54L354 95L346 115L331 105C259 57 221 40 186 40C130 40 101 80 101 159C101 267 136 371 185 409C206 425 230 433 261 433C306 433 342 414 342 390Z" stroke="rgb(0,0,0)" stroke-opacity="1" stroke-width="8" fill="rgb(0,0,0)" fill-opacity="1"></path></g></g></g></g><g><g><g><g transform="matrix(1,0,0,1,69,106)"><path transform="matrix(0.017,0,0,-0.017,0,0)" d="M400 -16C446 -16 513 54 545 84L545 97L532 97C513 79 489 55 462 55C417 55 424 184 424 216C474 278 520 343 558 413C551 428 544 444 536 459L525 459C511 391 456 315 420 257C422 336 445 472 332 473C164 473 27 243 24 93C23 33 43 -16 111 -16C203 -16 297 64 357 131C357 96 348 -15 400 -16ZM284 437C371 437 358 224 357 164C314 113 233 28 162 28C109 28 98 70 99 115C100 202 175 437 284 437Z" stroke="rgb(0,0,0)" stroke-opacity="1" stroke-width="8" fill="rgb(0,0,0)" fill-opacity="1"></path></g></g></g></g></svg>
</svg>
